<svg width="26" height="26" viewBox="0 0 26 26" fill="none" xmlns="http://www.w3.org/2000/svg">
<path d="M13 0.480469C10.5277 0.480469 8.11099 1.21358 6.05538 2.5871C3.99976 3.96062 2.39761 5.91285 1.45151 8.19693C0.505416 10.481 0.257874 12.9943 0.74019 15.4191C1.2225 17.8439 2.41301 20.0711 4.16117 21.8193C5.90933 23.5675 8.13661 24.758 10.5614 25.2403C12.9861 25.7226 15.4995 25.4751 17.7835 24.529C20.0676 23.5829 22.0199 21.9807 23.3934 19.9251C24.7669 17.8695 25.5 15.4527 25.5 12.9805C25.4963 9.66641 24.1781 6.48917 21.8347 4.14578C19.4913 1.80238 16.3141 0.484218 13 0.480469ZM13 23.8138C10.8574 23.8138 8.76286 23.1784 6.98133 21.9881C5.1998 20.7977 3.81126 19.1057 2.99131 17.1262C2.17136 15.1467 1.95682 12.9685 2.37483 10.867C2.79284 8.76553 3.82461 6.83521 5.33968 5.32014C6.85475 3.80508 8.78507 2.7733 10.8865 2.35529C12.988 1.93729 15.1662 2.15182 17.1457 2.97177C19.1253 3.79172 20.8172 5.18026 22.0076 6.96179C23.198 8.74332 23.8333 10.8378 23.8333 12.9805C23.83 15.8526 22.6876 18.6062 20.6567 20.6371C18.6257 22.6681 15.8722 23.8105 13 23.8138Z" fill="#333333"/>
<path d="M14.6667 17.9798H13.8333V10.4798C13.8333 10.2588 13.7455 10.0468 13.5893 9.89056C13.433 9.73428 13.221 9.64648 13 9.64648H11.3333C11.1123 9.64648 10.9004 9.73428 10.7441 9.89056C10.5878 10.0468 10.5 10.2588 10.5 10.4798C10.5 10.7008 10.5878 10.9128 10.7441 11.0691C10.9004 11.2254 11.1123 11.3132 11.3333 11.3132H12.1667V17.9798H11.3333C11.1123 17.9798 10.9004 18.0676 10.7441 18.2239C10.5878 18.3802 10.5 18.5921 10.5 18.8132C10.5 19.0342 10.5878 19.2461 10.7441 19.4024C10.9004 19.5587 11.1123 19.6465 11.3333 19.6465H14.6667C14.8877 19.6465 15.0996 19.5587 15.2559 19.4024C15.4122 19.2461 15.5 19.0342 15.5 18.8132C15.5 18.5921 15.4122 18.3802 15.2559 18.2239C15.0996 18.0676 14.8877 17.9798 14.6667 17.9798Z" fill="#333333"/>
<path d="M13 7.98112C13.4602 7.98112 13.8333 7.60802 13.8333 7.14779C13.8333 6.68755 13.4602 6.31445 13 6.31445C12.5397 6.31445 12.1666 6.68755 12.1666 7.14779C12.1666 7.60802 12.5397 7.98112 13 7.98112Z" fill="#333333"/>
</svg>
