<svg width="30" height="31" viewBox="0 0 30 31" fill="none" xmlns="http://www.w3.org/2000/svg">
<path d="M4.77656 2.15274C4.05991 2.15274 3.35936 2.36525 2.76349 2.7634C2.16762 3.16155 1.70319 3.72745 1.42894 4.38955C1.15469 5.05165 1.08294 5.7802 1.22275 6.48308C1.36256 7.18595 1.70766 7.83159 2.2144 8.33834C2.72115 8.84508 3.36679 9.19018 4.06966 9.32999C4.77254 9.4698 5.50109 9.39805 6.16319 9.1238C6.82529 8.84955 7.39119 8.38512 7.78934 7.78925C8.18749 7.19338 8.4 6.49283 8.4 5.77618C8.39876 4.81556 8.01661 3.89465 7.33735 3.21539C6.65809 2.53613 5.73718 2.15398 4.77656 2.15274ZM4.77656 7.99337C4.33804 7.99337 3.90937 7.86333 3.54476 7.6197C3.18014 7.37607 2.89596 7.0298 2.72815 6.62466C2.56033 6.21952 2.51643 5.77372 2.60198 5.34363C2.68753 4.91353 2.89869 4.51847 3.20877 4.20839C3.51885 3.89831 3.91392 3.68714 4.34401 3.60159C4.7741 3.51604 5.2199 3.55995 5.62504 3.72776C6.03018 3.89558 6.37646 4.17976 6.62009 4.54437C6.86371 4.90899 6.99375 5.33766 6.99375 5.77618C6.99622 6.06892 6.9407 6.35925 6.83039 6.63042C6.72007 6.90159 6.55715 7.14823 6.35102 7.3561C6.14488 7.56398 5.89963 7.72897 5.6294 7.84157C5.35916 7.95416 5.06931 8.01213 4.77656 8.01212V7.99337ZM4.77656 12.3574C4.05991 12.3574 3.35936 12.5699 2.76349 12.9681C2.16762 13.3662 1.70319 13.9321 1.42894 14.5942C1.15469 15.2563 1.08294 15.9849 1.22275 16.6878C1.36256 17.3906 1.70766 18.0363 2.2144 18.543C2.72115 19.0498 3.36679 19.3949 4.06966 19.5347C4.77254 19.6745 5.50109 19.6027 6.16319 19.3285C6.82529 19.0542 7.39119 18.5898 7.78934 17.9939C8.18749 17.3981 8.4 16.6975 8.4 15.9809C8.39876 15.0203 8.01661 14.0993 7.33735 13.4201C6.65809 12.7408 5.73718 12.3587 4.77656 12.3574ZM4.77656 18.1981C4.33804 18.1981 3.90937 18.068 3.54476 17.8244C3.18014 17.5808 2.89596 17.2345 2.72815 16.8293C2.56033 16.4242 2.51643 15.9784 2.60198 15.5483C2.68753 15.1182 2.89869 14.7232 3.20877 14.4131C3.51885 14.103 3.91392 13.8918 4.34401 13.8063C4.7741 13.7207 5.2199 13.7646 5.62504 13.9325C6.03018 14.1003 6.37646 14.3844 6.62009 14.7491C6.86371 15.1137 6.99375 15.5423 6.99375 15.9809C6.99375 16.272 6.9364 16.5603 6.82498 16.8293C6.71355 17.0983 6.55023 17.3428 6.34435 17.5487C6.13846 17.7545 5.89404 17.9179 5.62504 18.0293C5.35604 18.1407 5.06773 18.1981 4.77656 18.1981ZM4.77656 22.5434C4.05991 22.5434 3.35936 22.7559 2.76349 23.154C2.16762 23.5522 1.70319 24.1181 1.42894 24.7802C1.15469 25.4423 1.08294 26.1708 1.22275 26.8737C1.36256 27.5766 1.70766 28.2222 2.2144 28.729C2.72115 29.2357 3.36679 29.5808 4.06966 29.7206C4.77254 29.8604 5.50109 29.7887 6.16319 29.5144C6.82529 29.2402 7.39119 28.7757 7.78934 28.1799C8.18749 27.584 8.4 26.8835 8.4 26.1668C8.39876 25.2062 8.01661 24.2853 7.33735 23.606C6.65809 22.9268 5.73718 22.5446 4.77656 22.5434ZM4.77656 28.384C4.33804 28.384 3.90937 28.254 3.54476 28.0103C3.18014 27.7667 2.89596 27.4204 2.72815 27.0153C2.56033 26.6101 2.51643 26.1643 2.60198 25.7343C2.68753 25.3042 2.89869 24.9091 3.20877 24.599C3.51885 24.2889 3.91392 24.0778 4.34401 23.9922C4.7741 23.9067 5.2199 23.9506 5.62504 24.1184C6.03018 24.2862 6.37646 24.5704 6.62009 24.935C6.86371 25.2996 6.99375 25.7283 6.99375 26.1668C6.99622 26.4595 6.9407 26.7499 6.83039 27.021C6.72007 27.2922 6.55715 27.5389 6.35102 27.7467C6.14488 27.9546 5.89963 28.1196 5.6294 28.2322C5.35916 28.3448 5.06931 28.4028 4.77656 28.4027V28.384ZM14.025 7.93712H26.6812C26.9738 7.95074 27.2661 7.90488 27.5404 7.80231C27.8147 7.69974 28.0654 7.54259 28.2773 7.34037C28.4891 7.13815 28.6578 6.89506 28.773 6.6258C28.8882 6.35654 28.9476 6.06671 28.9476 5.77383C28.9476 5.48096 28.8882 5.19113 28.773 4.92187C28.6578 4.65261 28.4891 4.40952 28.2773 4.2073C28.0654 4.00508 27.8147 3.84793 27.5404 3.74536C27.2661 3.64279 26.9738 3.59693 26.6812 3.61055H14.025C13.4687 3.63646 12.9437 3.87569 12.5592 4.27854C12.1747 4.6814 11.9601 5.21691 11.9601 5.77383C11.9601 6.33076 12.1747 6.86627 12.5592 7.26913C12.9437 7.67198 13.4687 7.91121 14.025 7.93712ZM14.025 5.0168H26.6812C26.7857 5.00858 26.8907 5.02205 26.9896 5.05636C27.0886 5.09068 27.1794 5.1451 27.2563 5.2162C27.3332 5.2873 27.3946 5.37354 27.4366 5.46951C27.4786 5.56547 27.5002 5.66909 27.5002 5.77383C27.5002 5.87858 27.4786 5.98219 27.4366 6.07816C27.3946 6.17413 27.3332 6.26037 27.2563 6.33147C27.1794 6.40257 27.0886 6.45699 26.9896 6.49131C26.8907 6.52562 26.7857 6.53909 26.6812 6.53087H14.025C13.8345 6.51586 13.6567 6.4296 13.527 6.28929C13.3973 6.14897 13.3252 5.96491 13.3252 5.77383C13.3252 5.58276 13.3973 5.3987 13.527 5.25838C13.6567 5.11807 13.8345 5.0318 14.025 5.0168ZM26.6812 13.8152H14.025C13.4506 13.8152 12.8998 14.0434 12.4937 14.4495C12.0875 14.8557 11.8594 15.4065 11.8594 15.9809C11.8594 16.5552 12.0875 17.1061 12.4937 17.5122C12.8998 17.9183 13.4506 18.1465 14.025 18.1465H26.6812C27.2556 18.1465 27.8064 17.9183 28.2126 17.5122C28.6187 17.1061 28.8469 16.5552 28.8469 15.9809C28.8469 15.4065 28.6187 14.8557 28.2126 14.4495C27.8064 14.0434 27.2556 13.8152 26.6812 13.8152ZM26.6812 16.7402H14.025C13.8236 16.7402 13.6304 16.6602 13.488 16.5178C13.3456 16.3754 13.2656 16.1823 13.2656 15.9809C13.2656 15.7795 13.3456 15.5863 13.488 15.4439C13.6304 15.3015 13.8236 15.2215 14.025 15.2215H26.6812C26.8826 15.2215 27.0758 15.3015 27.2182 15.4439C27.3606 15.5863 27.4406 15.7795 27.4406 15.9809C27.4406 16.1823 27.3606 16.3754 27.2182 16.5178C27.0758 16.6602 26.8826 16.7402 26.6812 16.7402ZM26.6812 24.0199H14.025C13.4687 24.0458 12.9437 24.2851 12.5592 24.6879C12.1747 25.0908 11.9601 25.6263 11.9601 26.1832C11.9601 26.7401 12.1747 27.2756 12.5592 27.6785C12.9437 28.0814 13.4687 28.3206 14.025 28.3465H26.6812C26.9738 28.3601 27.2661 28.3143 27.5404 28.2117C27.8147 28.1091 28.0654 27.952 28.2773 27.7497C28.4891 27.5475 28.6578 27.3044 28.773 27.0352C28.8882 26.7659 28.9476 26.4761 28.9476 26.1832C28.9476 25.8903 28.8882 25.6005 28.773 25.3312C28.6578 25.062 28.4891 24.8189 28.2773 24.6167C28.0654 24.4145 27.8147 24.2573 27.5404 24.1547C27.2661 24.0522 26.9738 24.0063 26.6812 24.0199ZM26.6812 26.9402H14.025C13.8345 26.9252 13.6567 26.839 13.527 26.6987C13.3973 26.5583 13.3252 26.3743 13.3252 26.1832C13.3252 25.9921 13.3973 25.8081 13.527 25.6678C13.6567 25.5274 13.8345 25.4412 14.025 25.4262H26.6812C26.7857 25.418 26.8907 25.4314 26.9896 25.4657C27.0886 25.5001 27.1794 25.5545 27.2563 25.6256C27.3332 25.6967 27.3946 25.7829 27.4366 25.8789C27.4786 25.9748 27.5002 26.0785 27.5002 26.1832C27.5002 26.288 27.4786 26.3916 27.4366 26.4875C27.3946 26.5835 27.3332 26.6697 27.2563 26.7408C27.1794 26.8119 27.0886 26.8664 26.9896 26.9007C26.8907 26.935 26.7857 26.9485 26.6812 26.9402Z" fill="#DBDBDB"/>
</svg>
