<svg width="30" height="31" viewBox="0 0 30 31" fill="none" xmlns="http://www.w3.org/2000/svg">
<g clip-path="url(#clip0_10079_3086)">
<path d="M11.5624 10.8545H2.18742C0.981211 10.8545 0 9.87327 0 8.66682V3.04182C0 1.83561 0.981211 0.854401 2.18742 0.854401H11.5624C12.7689 0.854401 13.7501 1.83561 13.7501 3.04182V8.66682C13.7501 9.87327 12.7689 10.8545 11.5624 10.8545ZM2.18742 2.7294C2.10458 2.72946 2.02515 2.7624 1.96657 2.82098C1.908 2.87955 1.87506 2.95898 1.875 3.04182V8.66682C1.87502 8.7497 1.90793 8.82918 1.96651 8.8878C2.02509 8.94643 2.10455 8.9794 2.18742 8.97948H11.5624C11.6453 8.97945 11.7248 8.9465 11.7835 8.88787C11.8421 8.82924 11.875 8.74973 11.8751 8.66682V3.04182C11.875 2.95895 11.842 2.87949 11.7834 2.82091C11.7248 2.76233 11.6453 2.72942 11.5624 2.7294H2.18742ZM11.5624 30.8544H2.18742C0.981211 30.8544 0 29.8732 0 28.667V15.542C0 14.3355 0.981211 13.3543 2.18742 13.3543H11.5624C12.7689 13.3543 13.7501 14.3355 13.7501 15.542V28.667C13.7501 29.8732 12.7689 30.8544 11.5624 30.8544ZM2.18742 15.2293C2.10455 15.2294 2.02509 15.2624 1.96651 15.321C1.90793 15.3796 1.87502 15.4591 1.875 15.542V28.667C1.87506 28.7498 1.908 28.8293 1.96657 28.8878C2.02515 28.9464 2.10458 28.9793 2.18742 28.9794H11.5624C11.6453 28.9794 11.7248 28.9465 11.7834 28.8879C11.842 28.8293 11.875 28.7499 11.8751 28.667V15.542C11.875 15.4591 11.8421 15.3796 11.7835 15.3209C11.7248 15.2623 11.6453 15.2294 11.5624 15.2293H2.18742ZM27.8126 30.8544H18.4376C17.2311 30.8544 16.2499 29.8732 16.2499 28.667V23.042C16.2499 21.8355 17.2311 20.8543 18.4376 20.8543H27.8126C29.0188 20.8543 30 21.8355 30 23.042V28.667C30 29.8732 29.0188 30.8544 27.8126 30.8544ZM18.4376 22.7293C18.3547 22.7294 18.2752 22.7623 18.2165 22.8209C18.1579 22.8796 18.125 22.9591 18.1249 23.042V28.667C18.125 28.7499 18.158 28.8293 18.2166 28.8879C18.2752 28.9465 18.3547 28.9794 18.4376 28.9794H27.8126C27.8954 28.9793 27.9748 28.9464 28.0334 28.8878C28.092 28.8293 28.1249 28.7498 28.125 28.667V23.042C28.125 22.9591 28.0921 22.8796 28.0335 22.821C27.9749 22.7624 27.8955 22.7294 27.8126 22.7293H18.4376ZM27.8126 18.3545H18.4376C17.2311 18.3545 16.2499 17.3733 16.2499 16.1668V3.04182C16.2499 1.83561 17.2311 0.854401 18.4376 0.854401H27.8126C29.0188 0.854401 30 1.83561 30 3.04182V16.1668C30 17.3733 29.0188 18.3545 27.8126 18.3545ZM18.4376 2.7294C18.3547 2.72942 18.2752 2.76233 18.2166 2.82091C18.158 2.87949 18.125 2.95895 18.1249 3.04182V16.1668C18.125 16.2497 18.1579 16.3292 18.2165 16.3879C18.2752 16.4465 18.3547 16.4794 18.4376 16.4795H27.8126C27.8955 16.4794 27.9749 16.4464 28.0335 16.3878C28.0921 16.3292 28.125 16.2497 28.125 16.1668V3.04182C28.1249 2.95898 28.092 2.87955 28.0334 2.82098C27.9748 2.7624 27.8954 2.72946 27.8126 2.7294H18.4376Z" fill="#DBDBDB"/>
</g>
<defs>
<clipPath id="clip0_10079_3086">
<rect width="30" height="30" fill="white" transform="translate(0 0.854401)"/>
</clipPath>
</defs>
</svg>
