<svg width="30" height="31" viewBox="0 0 30 31" fill="none" xmlns="http://www.w3.org/2000/svg">
<path d="M22.5 30.6892C22.375 30.6892 22.25 30.6642 22.1325 30.6142C21.8425 30.4904 15 27.5104 15 21.3817V16.3592C15.0001 16.1633 15.0615 15.9724 15.1756 15.8132C15.2897 15.654 15.4508 15.5346 15.6362 15.4717L22.1988 13.2392C22.3941 13.1729 22.6059 13.1729 22.8012 13.2392L29.3637 15.4717C29.5492 15.5346 29.7103 15.654 29.8244 15.8132C29.9385 15.9724 29.9999 16.1633 30 16.3592V21.3817C30 27.5104 23.1575 30.4904 22.8675 30.6154C22.751 30.6639 22.6262 30.689 22.5 30.6892ZM16.875 17.0304V21.3804C16.875 25.5467 21.195 28.0517 22.5 28.7117C23.805 28.0517 28.125 25.5467 28.125 21.3804V17.0304L22.5 15.1167L16.875 17.0304Z" fill="#333333"/>
<path d="M22.1875 25.0645C22.0644 25.0648 21.9424 25.0406 21.8287 24.9934C21.7149 24.9462 21.6117 24.8769 21.525 24.7895L19.025 22.2895C18.9379 22.2024 18.8688 22.099 18.8217 21.9852C18.7746 21.8714 18.7503 21.7495 18.7503 21.6263C18.7503 21.5032 18.7746 21.3812 18.8217 21.2674C18.8688 21.1537 18.9379 21.0503 19.025 20.9632C19.1121 20.8761 19.2155 20.807 19.3292 20.7599C19.443 20.7128 19.565 20.6885 19.6881 20.6885C19.8113 20.6885 19.9332 20.7128 20.047 20.7599C20.1608 20.807 20.2642 20.8761 20.3513 20.9632L22.0875 22.6995L25.1875 18.5645C25.2606 18.4638 25.353 18.3787 25.4593 18.3141C25.5656 18.2495 25.6838 18.2067 25.8068 18.1883C25.9298 18.1698 26.0553 18.176 26.1759 18.2065C26.2965 18.237 26.4098 18.2912 26.5093 18.3659C26.6087 18.4406 26.6923 18.5344 26.7551 18.6418C26.818 18.7491 26.8588 18.8679 26.8753 18.9912C26.8918 19.1145 26.8835 19.2399 26.8511 19.36C26.8186 19.4801 26.7626 19.5925 26.6863 19.6907L22.9363 24.6907C22.8556 24.7982 22.7528 24.887 22.6349 24.9513C22.5169 25.0156 22.3865 25.0537 22.2525 25.0632L22.1875 25.0645ZM13.2375 26.9395H3.4375C2.52602 26.9388 1.65206 26.5764 1.00755 25.9319C0.363039 25.2874 0.000662171 24.4134 0 23.502L0 4.12695C0.000662171 3.21547 0.363039 2.34152 1.00755 1.697C1.65206 1.05249 2.52602 0.690115 3.4375 0.689453L17.8125 0.689453C18.724 0.690115 19.5979 1.05249 20.2425 1.697C20.887 2.34152 21.2493 3.21547 21.25 4.12695V10.9145C21.25 11.1631 21.1512 11.4016 20.9754 11.5774C20.7996 11.7532 20.5611 11.852 20.3125 11.852C20.0639 11.852 19.8254 11.7532 19.6496 11.5774C19.4738 11.4016 19.375 11.1631 19.375 10.9145V4.12695C19.375 3.2657 18.6738 2.56445 17.8125 2.56445H3.4375C2.57625 2.56445 1.875 3.2657 1.875 4.12695V23.502C1.875 24.3632 2.57625 25.0645 3.4375 25.0645H13.2375C13.4861 25.0645 13.7246 25.1632 13.9004 25.339C14.0762 25.5149 14.175 25.7533 14.175 26.002C14.175 26.2506 14.0762 26.4891 13.9004 26.6649C13.7246 26.8407 13.4861 26.9395 13.2375 26.9395Z" fill="#333333"/>
<path d="M16.5625 12.5645H4.6875C4.43886 12.5645 4.2004 12.4657 4.02459 12.2899C3.84877 12.114 3.75 11.8756 3.75 11.627C3.75 11.3783 3.84877 11.1399 4.02459 10.964C4.2004 10.7882 4.43886 10.6895 4.6875 10.6895H16.5625C16.8111 10.6895 17.0496 10.7882 17.2254 10.964C17.4012 11.1399 17.5 11.3783 17.5 11.627C17.5 11.8756 17.4012 12.114 17.2254 12.2899C17.0496 12.4657 16.8111 12.5645 16.5625 12.5645ZM11.5625 17.5645H4.6875C4.43886 17.5645 4.2004 17.4657 4.02459 17.2899C3.84877 17.114 3.75 16.8756 3.75 16.627C3.75 16.3783 3.84877 16.1399 4.02459 15.964C4.2004 15.7882 4.43886 15.6895 4.6875 15.6895H11.5625C11.8111 15.6895 12.0496 15.7882 12.2254 15.964C12.4012 16.1399 12.5 16.3783 12.5 16.627C12.5 16.8756 12.4012 17.114 12.2254 17.2899C12.0496 17.4657 11.8111 17.5645 11.5625 17.5645ZM10.3125 7.56445H4.6875C4.43886 7.56445 4.2004 7.46568 4.02459 7.28987C3.84877 7.11405 3.75 6.87559 3.75 6.62695C3.75 6.37831 3.84877 6.13986 4.02459 5.96404C4.2004 5.78823 4.43886 5.68945 4.6875 5.68945H10.3125C10.5611 5.68945 10.7996 5.78823 10.9754 5.96404C11.1512 6.13986 11.25 6.37831 11.25 6.62695C11.25 6.87559 11.1512 7.11405 10.9754 7.28987C10.7996 7.46568 10.5611 7.56445 10.3125 7.56445Z" fill="#333333"/>
</svg>
