<svg width="30" height="31" viewBox="0 0 30 31" fill="none" xmlns="http://www.w3.org/2000/svg">
<g clip-path="url(#clip0_10079_3104)">
<path d="M30.0001 15.9233C29.6564 23.9695 23.0664 30.272 15.0001 30.272C9.95012 30.272 5.37637 27.792 2.57887 23.6333C2.53762 23.757 2.50012 23.8845 2.50012 24.022V29.647C2.50012 29.992 2.22012 30.272 1.87512 30.272C1.53012 30.272 1.25012 29.992 1.25012 29.647V24.022C1.25012 22.6433 2.37137 21.522 3.75012 21.522H9.37512C9.72012 21.522 10.0001 21.802 10.0001 22.147C10.0001 22.492 9.72012 22.772 9.37512 22.772H3.75012C3.67262 22.772 3.60512 22.802 3.53262 22.8158C6.08887 26.702 10.3226 29.022 15.0001 29.022C22.3951 29.022 28.4351 23.2445 28.7501 15.8708C28.7651 15.5345 29.0414 15.272 29.3751 15.272C29.3839 15.272 29.3926 15.272 29.4014 15.272C29.7451 15.287 30.0139 15.5783 30.0001 15.9233ZM15.0001 1.52203C19.6776 1.52203 23.9126 3.84203 26.4676 7.72828C26.3939 7.74203 26.3264 7.77203 26.2501 7.77203H20.6251C20.2801 7.77203 20.0001 8.05203 20.0001 8.39703C20.0001 8.74203 20.2801 9.02203 20.6251 9.02203H26.2501C27.6289 9.02203 28.7501 7.90078 28.7501 6.52203V0.897034C28.7501 0.552034 28.4701 0.272034 28.1251 0.272034C27.7801 0.272034 27.5001 0.552034 27.5001 0.897034V6.52203C27.5001 6.65953 27.4626 6.78703 27.4214 6.91078C24.6239 2.75203 20.0501 0.272034 15.0001 0.272034C6.93387 0.272034 0.343868 6.57453 0.00011795 14.6208C-0.014882 14.9658 0.253868 15.257 0.598868 15.272C0.608868 15.272 0.617618 15.272 0.625118 15.272C0.958868 15.272 1.23512 15.0095 1.25012 14.6733C1.56512 7.29953 7.60512 1.52203 15.0001 1.52203ZM11.0289 25.8008C12.2964 26.2795 13.6326 26.522 15.0001 26.522C21.2039 26.522 26.2501 21.4745 26.2501 15.272C26.2501 14.1445 26.0839 13.032 25.7551 11.9633C25.6551 11.6333 25.3101 11.447 24.9739 11.5495C24.6439 11.652 24.4589 12.0008 24.5614 12.3308C24.8526 13.2795 25.0014 14.2695 25.0014 15.272C25.0014 20.7858 20.5151 25.272 15.0014 25.272C13.7851 25.272 12.5976 25.057 11.4726 24.632C11.1464 24.5095 10.7876 24.6733 10.6664 24.9958C10.5439 25.3183 10.7076 25.6795 11.0301 25.802L11.0289 25.8008ZM15.0001 5.27203C16.2164 5.27203 17.4039 5.48703 18.5289 5.91203C18.8539 6.03453 19.2139 5.87078 19.3351 5.54828C19.4576 5.22578 19.2939 4.86453 18.9714 4.74203C17.7039 4.26328 16.3676 4.02078 15.0001 4.02078C8.79637 4.02203 3.75012 9.06953 3.75012 15.272C3.75012 16.3995 3.91637 17.512 4.24512 18.5808C4.32637 18.8495 4.57512 19.022 4.84262 19.022C4.90387 19.022 4.96512 19.0133 5.02637 18.9945C5.35637 18.892 5.54137 18.5433 5.43887 18.2133C5.14762 17.2645 4.99887 16.2745 4.99887 15.272C4.99887 9.75828 9.48512 5.27203 14.9989 5.27203H15.0001ZM13.9476 11.522H16.0526C16.7726 11.522 17.5001 11.9083 17.5001 12.772C17.5001 13.117 17.7801 13.397 18.1251 13.397C18.4701 13.397 18.7501 13.117 18.7501 12.772C18.7501 11.3233 17.6164 10.272 16.0526 10.272H15.6251V9.64703C15.6251 9.30203 15.3451 9.02203 15.0001 9.02203C14.6551 9.02203 14.3751 9.30203 14.3751 9.64703V10.272H13.9476C12.4601 10.272 11.2501 11.482 11.2501 12.9695C11.2501 14.2933 12.1989 15.412 13.4939 15.6283L16.2901 16.147C16.9914 16.2645 17.5001 16.8645 17.5001 17.5745C17.5001 18.3733 16.8501 19.022 16.0526 19.022H13.9476C13.2276 19.022 12.5001 18.6358 12.5001 17.772C12.5001 17.427 12.2201 17.147 11.8751 17.147C11.5301 17.147 11.2501 17.427 11.2501 17.772C11.2501 19.2208 12.3839 20.272 13.9476 20.272H14.3751V20.897C14.3751 21.242 14.6551 21.522 15.0001 21.522C15.3451 21.522 15.6251 21.242 15.6251 20.897V20.272H16.0526C17.5401 20.272 18.7501 19.062 18.7501 17.5745C18.7501 16.2508 17.8014 15.132 16.5064 14.9158L13.7101 14.397C13.0089 14.2795 12.5001 13.6795 12.5001 12.9695C12.5001 12.1708 13.1501 11.522 13.9476 11.522Z" fill="#DBDBDB"/>
</g>
<defs>
<clipPath id="clip0_10079_3104">
<rect width="30" height="30" fill="white" transform="translate(0 0.272034)"/>
</clipPath>
</defs>
</svg>
