<svg width="26" height="25" viewBox="0 0 26 25" fill="none" xmlns="http://www.w3.org/2000/svg">
<path fill-rule="evenodd" clip-rule="evenodd" d="M8.46711 16.9783C8.61921 17.1272 8.62245 17.3699 8.47683 17.522L5.39883 20.6971C5.24427 20.8576 4.98213 20.8511 4.83567 20.6841L3.24651 18.8651C3.10731 18.7033 3.12351 18.4606 3.28533 18.3214C3.44391 18.1822 3.68667 18.1984 3.82587 18.3602L5.13993 19.862L7.92339 16.9879C8.07225 16.8358 8.31501 16.8326 8.46711 16.9783ZM15.6524 8.9418C15.6524 9.1554 15.4808 9.32694 15.2705 9.32694H6.91035C6.85973 9.32709 6.80958 9.31723 6.76279 9.29793C6.71599 9.27862 6.67348 9.25026 6.63768 9.21447C6.60189 9.17867 6.57353 9.13616 6.55422 9.08936C6.53492 9.04257 6.52506 8.99242 6.52521 8.9418C6.52521 8.73144 6.69675 8.5599 6.91035 8.5599H15.2705C15.4808 8.55984 15.6524 8.73138 15.6524 8.9418ZM15.6524 6.54672C15.6524 6.75708 15.4808 6.92862 15.2705 6.92862H6.91035C6.69675 6.92862 6.52521 6.75708 6.52521 6.54672C6.52506 6.4961 6.53492 6.44595 6.55422 6.39915C6.57353 6.35236 6.60189 6.30984 6.63768 6.27405C6.67348 6.23825 6.71599 6.20989 6.76279 6.19059C6.80958 6.17129 6.85973 6.16143 6.91035 6.16158H15.2705C15.4808 6.16152 15.6524 6.33306 15.6524 6.54672ZM15.6524 11.3401C15.6524 11.5505 15.4808 11.722 15.2705 11.722H6.91035C6.69675 11.722 6.52521 11.5505 6.52521 11.3401C6.52506 11.2895 6.53492 11.2393 6.55422 11.1926C6.57353 11.1458 6.60189 11.1032 6.63768 11.0674C6.67348 11.0317 6.71599 11.0033 6.76279 10.984C6.80958 10.9647 6.85973 10.9548 6.91035 10.955H15.2705C15.4808 10.9549 15.6524 11.1265 15.6524 11.3401ZM24.909 16.0882C24.909 16.4636 24.6015 16.7711 24.2229 16.7711H21.8181V10.5827C21.8181 9.26214 22.5657 8.14878 23.4494 8.14878C24.2391 8.14878 24.909 9.1521 24.909 10.3367V16.0882ZM21.0478 10.5827C21.0478 9.65286 21.333 8.79024 21.8828 8.14884H17.9568V18.6322C17.9568 19.9495 18.7045 21.0628 19.5913 21.0628C20.381 21.0628 21.0477 20.0627 21.0477 18.8781V10.5827H21.0478ZM10.9464 21.0628H18.0248C17.4818 20.4626 17.1898 19.5242 17.1898 18.6322V1.86336C17.1898 1.4847 16.8823 1.1772 16.5036 1.1772H8.34411V3.08034C8.34411 3.88302 7.69353 4.53354 6.89091 4.53354H4.99101V13.3694C8.36913 12.8321 11.4125 15.4438 11.4125 18.8425C11.4125 19.6322 11.2474 20.3831 10.9464 21.0628ZM5.86815 23.6197C8.50275 23.6197 10.6454 21.4771 10.6454 18.8425C10.6454 16.2112 8.50275 14.0686 5.86815 14.0686C3.23679 14.0686 1.09419 16.2112 1.09419 18.8425C1.09419 21.4771 3.23679 23.6197 5.86815 23.6197ZM7.57707 1.72092V3.08028C7.57707 3.45894 7.26963 3.76644 6.89091 3.76644H5.53155L7.57707 1.72092ZM25.0644 8.29446C24.6437 7.70538 24.0708 7.38174 23.4494 7.38174H17.9568V1.86336C17.9568 1.06068 17.3063 0.410156 16.5036 0.410156H7.96221C7.85865 0.410156 7.76151 0.448976 7.69035 0.523436L4.33401 3.87654C4.26279 3.951 4.22073 4.04808 4.22073 4.1484V13.5475C1.96485 14.2531 0.323853 16.3601 0.323853 18.8425C0.323853 21.9011 2.81277 24.3868 5.86815 24.3868C7.82631 24.3868 9.54819 23.3673 10.5353 21.8332H19.5913C20.2095 21.8332 20.7824 21.5063 21.2064 20.9172C21.6012 20.367 21.8181 19.642 21.8181 18.8782V17.5414H24.2229C25.0256 17.5414 25.6761 16.8876 25.6761 16.0882V10.3368C25.6761 9.5697 25.4593 8.84466 25.0644 8.29446Z" fill="#333333"/>
</svg>
