<svg width="30" height="20" viewBox="0 0 30 20" fill="none" xmlns="http://www.w3.org/2000/svg">
<path d="M25.9458 8.42054C26.8243 7.80321 27.406 6.7763 27.406 5.6188C27.406 3.72525 25.8746 2.19379 23.981 2.19379C22.0875 2.19379 20.556 3.72525 20.556 5.6188C20.556 6.7763 21.1318 7.80321 22.0162 8.42054C21.2624 8.68172 20.5738 9.08536 19.9921 9.60772C19.1907 8.92509 18.2469 8.40273 17.2141 8.09407C18.4666 7.33427 19.3095 5.95121 19.3095 4.3782C19.3095 1.9801 17.3684 0.0390625 14.9703 0.0390625C12.5722 0.0390625 10.6312 1.98604 10.6312 4.3782C10.6312 5.95121 11.4681 7.33427 12.7266 8.09407C11.7056 8.40273 10.7736 8.91916 9.97824 9.58991C9.39652 9.07943 8.71983 8.68172 7.97784 8.42648C8.85635 7.80915 9.43807 6.78224 9.43807 5.62474C9.43807 3.73119 7.90661 2.19973 6.01306 2.19973C4.11951 2.19973 2.58805 3.73119 2.58805 5.62474C2.58805 6.78224 3.16383 7.80915 4.04828 8.42648C1.69173 9.2397 0 11.4775 0 14.1071V14.4989C0 14.5108 0.0118718 14.5226 0.0237436 14.5226H7.28334C7.24179 14.8491 7.21805 15.1875 7.21805 15.5258V15.9294C7.21805 17.6746 8.63079 19.0873 10.3759 19.0873H19.5766C21.3217 19.0873 22.7345 17.6746 22.7345 15.9294V15.5258C22.7345 15.1875 22.7107 14.8491 22.6692 14.5226H29.9763C29.9881 14.5226 30 14.5108 30 14.4989V14.1071C29.9881 11.4716 28.3023 9.23376 25.9458 8.42054ZM21.5057 5.61286C21.5057 4.24761 22.6157 3.1376 23.981 3.1376C25.3463 3.1376 26.4563 4.24761 26.4563 5.61286C26.4563 6.96031 25.37 8.05845 24.0285 8.08813H23.9335C22.5861 8.06439 21.5057 6.96625 21.5057 5.61286ZM11.5691 4.3782C11.5691 2.50839 13.0886 0.988805 14.9584 0.988805C16.8283 0.988805 18.3478 2.50839 18.3478 4.3782C18.3478 6.18271 16.9292 7.66075 15.1543 7.76166H14.7626C12.9877 7.66075 11.5691 6.18271 11.5691 4.3782ZM3.51998 5.61286C3.51998 4.24761 4.63 3.1376 5.99525 3.1376C7.36051 3.1376 8.47052 4.24761 8.47052 5.61286C8.47052 6.96031 7.38425 8.05845 6.04274 8.08813H5.94776C4.60625 8.06439 3.51998 6.96625 3.51998 5.61286ZM7.44954 13.567H0.961615C1.22873 11.0383 3.36565 9.05568 5.95964 9.03788H6.03087C7.26553 9.04381 8.39335 9.50087 9.26593 10.2429C8.41116 11.1689 7.77602 12.3086 7.44954 13.567ZM21.7729 15.9294C21.7729 17.1463 20.7816 18.1376 19.5647 18.1376H10.3641C9.14721 18.1376 8.15592 17.1463 8.15592 15.9294V15.5258C8.15592 11.8396 11.1001 8.82418 14.7626 8.71734C14.8279 8.72327 14.8991 8.72327 14.9644 8.72327C15.0297 8.72327 15.1009 8.72327 15.1662 8.71734C18.8287 8.82418 21.7729 11.8396 21.7729 15.5258V15.9294ZM22.4792 13.567C22.1528 12.3145 21.5295 11.1926 20.6806 10.2666C21.5592 9.50681 22.6989 9.04975 23.9454 9.03788H24.0166C26.6106 9.05568 28.7475 11.0383 29.0146 13.567H22.4792Z" fill="#DBDBDB"/>
</svg>
