<svg width="18" height="18" viewBox="0 0 18 18" fill="none" xmlns="http://www.w3.org/2000/svg">
<path d="M12.6788 15.8295C10.4024 18.106 6.22001 17.5765 3.30824 14.6912C0.422947 11.7795 -0.0799938 7.57066 2.19648 5.32066L2.91118 4.60596L13.42 15.0883L12.6788 15.8295Z" fill="#CC104A"/>
<path d="M13.3674 15.1412C11.0909 17.4177 6.90855 16.8883 3.99679 14.003C1.08502 11.0912 0.582082 6.90887 2.85855 4.6324C5.13502 2.35593 9.31738 2.88534 12.2027 5.77063C13.0762 6.64416 13.738 7.65004 14.1615 8.65593C14.2938 9.00004 14.4262 9.31769 14.5056 9.66181C15.088 11.7265 14.7174 13.7912 13.3674 15.1412Z" fill="#F34B58"/>
<path d="M11.5161 6.48528C13.7661 8.73528 14.1631 11.9912 12.4161 13.7647C10.669 15.5382 7.38664 15.1147 5.13664 12.8647C2.88664 10.6147 2.48958 7.35881 4.23664 5.58528C5.9837 3.81175 9.26605 4.23528 11.5161 6.48528Z" fill="white"/>
<path d="M10.8265 7.1736C12.4676 8.81477 12.7588 11.1971 11.4882 12.4677C10.2176 13.7383 7.83528 13.4736 6.1941 11.8059C4.55293 10.1648 4.26175 7.78242 5.53234 6.51183C6.80293 5.24124 9.18528 5.53242 10.8265 7.1736Z" fill="#F34B58"/>
<path d="M10.0833 7.9147C11.1421 8.97352 11.3274 10.4823 10.5068 11.3029C9.68621 12.1235 8.17738 11.9382 7.11856 10.8794C6.05973 9.82058 5.87444 8.31176 6.69503 7.49117C7.51562 6.67058 9.05091 6.85588 10.0833 7.9147Z" fill="white"/>
<path d="M9.39798 8.60295C9.90093 9.10589 10.0068 9.84707 9.60975 10.2706C9.18622 10.6677 8.44504 10.5882 7.9421 10.0588C7.43916 9.55589 7.33328 8.81472 7.73034 8.41766C8.1274 8.0206 8.86857 8.10001 9.39798 8.60295Z" fill="#F34B58"/>
<path d="M14.5317 9.68826L8.78755 9.71473C8.12578 9.71473 8.09931 8.70884 8.78755 8.70884L14.1875 8.68237C14.3199 9.02649 14.4258 9.34414 14.5317 9.68826Z" fill="#1D2943" fill-opacity="0.12549"/>
<path d="M4.60356 13.3941C3.91533 12.8912 3.35944 12.2029 2.96238 11.4618C2.56533 10.6941 2.32709 9.84706 2.35356 9C2.5918 9.82059 2.88297 10.5882 3.28003 11.3029C3.65062 12.0176 4.10062 12.7059 4.60356 13.3941Z" fill="white"/>
<path d="M15.9075 2.0912C16.1193 2.30296 16.1193 2.62061 15.9075 2.8059L9.13102 9.5559C8.94573 9.7412 8.62808 9.7412 8.41631 9.5559C8.23102 9.37061 8.23102 9.05296 8.41631 8.8412L15.1928 2.0912C15.4046 1.87943 15.7222 1.87943 15.9075 2.0912Z" fill="#1D2943"/>
<path d="M15.8035 2.88527L16.9946 3.22938C17.2064 3.28233 17.2858 3.54703 17.127 3.70585L16.8093 4.0235C16.677 4.15585 16.4652 4.2088 16.2799 4.15585L15.8829 4.04997L15.9623 4.12938C16.1741 4.34115 16.1741 4.68527 15.9623 4.89703L15.3005 5.5588C15.1682 5.69115 14.9564 5.74409 14.7711 5.69115L13.3946 5.29409L15.8035 2.88527ZM15.1152 2.17056L14.7711 0.979384C14.7182 0.767619 14.4535 0.688208 14.2946 0.847031L13.3417 1.79997C13.2094 1.93233 13.1564 2.14409 13.2094 2.32938L13.3152 2.72644L13.0505 2.46174C12.9446 2.35585 12.7593 2.35585 12.6535 2.46174L12.4417 2.69997C12.3093 2.83232 12.2564 3.04409 12.3093 3.22938L12.7064 4.57938L15.1152 2.17056Z" fill="#FFD06C"/>
<path d="M13.2891 4.44701C13.5273 4.12936 13.8185 3.81172 14.1097 3.52054C14.2685 3.38819 14.7449 2.91172 14.5597 3.09701L15.0361 2.69995L14.6391 3.17642C14.5067 3.33525 14.3479 3.4676 14.2155 3.62642C13.9244 3.9176 13.6332 4.1823 13.2891 4.44701Z" fill="white"/>
</svg>
