<svg width="18" height="18" viewBox="0 0 18 18" fill="none" xmlns="http://www.w3.org/2000/svg">
<g clip-path="url(#clip0_10073_2297)">
<path d="M15.6008 0.300049H2.40078C1.24098 0.300049 0.300781 1.24025 0.300781 2.40005V15.6C0.300781 16.7598 1.24098 17.7 2.40078 17.7H15.6008C16.7606 17.7 17.7008 16.7598 17.7008 15.6V2.40005C17.7008 1.24025 16.7606 0.300049 15.6008 0.300049Z" fill="#6BB577"/>
<path d="M7.31397 14.1001C7.18084 14.1 7.04904 14.0736 6.92618 14.0223C6.80332 13.971 6.69184 13.8959 6.59817 13.8013L3.89817 11.0812C3.70815 10.8893 3.60156 10.6301 3.60156 10.36C3.60156 10.0899 3.70815 9.83074 3.89817 9.6388C3.9918 9.54414 4.10327 9.46899 4.22614 9.41771C4.34901 9.36642 4.48083 9.34001 4.61397 9.34001C4.74711 9.34001 4.87893 9.36642 5.0018 9.41771C5.12467 9.46899 5.23614 9.54414 5.32977 9.6388L7.20417 11.527L12.5787 4.3078C12.658 4.20086 12.7577 4.11068 12.872 4.04248C12.9864 3.97427 13.1131 3.9294 13.2449 3.91043C13.3767 3.89146 13.5109 3.89879 13.6399 3.93197C13.7688 3.96516 13.8899 4.02356 13.9962 4.1038C14.2113 4.26707 14.3533 4.50867 14.3913 4.77608C14.4293 5.04349 14.3602 5.31508 14.199 5.5318L8.12397 13.6918C8.03018 13.8183 7.90811 13.921 7.76752 13.9918C7.62692 14.0627 7.47171 14.0997 7.31427 14.0998L7.31397 14.1001Z" fill="white"/>
</g>
<defs>
<clipPath id="clip0_10073_2297">
<rect width="18" height="18" fill="white"/>
</clipPath>
</defs>
</svg>
