<svg width="24" height="24" viewBox="0 0 24 24" fill="none" xmlns="http://www.w3.org/2000/svg">
<path d="M21 12C21.552 12 22.005 11.551 21.95 11.002C21.7195 8.70618 20.7021 6.56071 19.0703 4.92933C17.4386 3.29795 15.2929 2.28105 12.997 2.05101C12.447 1.99601 11.999 2.44901 11.999 3.00101V11.001C11.999 11.2662 12.1044 11.5206 12.2919 11.7081C12.4795 11.8957 12.7338 12.001 12.999 12.001L21 12Z" stroke="#929292" stroke-width="1.5" stroke-linecap="round" stroke-linejoin="round"/>
<path d="M21.21 15.89C20.5739 17.3945 19.5788 18.7202 18.3119 19.7513C17.045 20.7824 15.5448 21.4874 13.9425 21.8048C12.3401 22.1221 10.6845 22.0421 9.12018 21.5718C7.55591 21.1014 6.13066 20.2551 4.96906 19.1066C3.80745 17.9582 2.94485 16.5427 2.45667 14.9839C1.96849 13.4251 1.8696 11.7705 2.16863 10.1646C2.46767 8.55877 3.15553 7.05061 4.17208 5.77202C5.18863 4.49342 6.50292 3.4833 8.00004 2.82999" stroke="#929292" stroke-width="1.5" stroke-linecap="round" stroke-linejoin="round"/>
</svg>
