<svg width="20" height="20" viewBox="0 0 20 20" fill="none" xmlns="http://www.w3.org/2000/svg">
<path fill-rule="evenodd" clip-rule="evenodd" d="M7.66724 1.5C5.71671 1.5 4.1355 3.08121 4.1355 5.03174C4.1355 6.98226 5.71671 8.5635 7.66724 8.5635C9.61778 8.5635 11.199 6.98226 11.199 5.03174C11.199 3.08121 9.61778 1.5 7.66724 1.5ZM2.6355 5.03174C2.6355 2.25279 4.88829 0 7.66724 0C10.4462 0 12.699 2.25279 12.699 5.03174C12.699 7.81069 10.4462 10.0635 7.66724 10.0635C4.88829 10.0635 2.6355 7.81069 2.6355 5.03174ZM13.4355 2.46753C13.4355 2.05332 13.7713 1.71753 14.1855 1.71753C16.4668 1.71753 18.3161 3.56687 18.3161 5.84816C18.3161 8.1294 16.4668 9.9788 14.1855 9.9788C13.9024 9.9788 13.6251 9.9502 13.3568 9.8955C12.9509 9.8127 12.689 9.4166 12.7717 9.0108C12.8545 8.6049 13.2506 8.343 13.6564 8.4257C13.8267 8.4604 14.0036 8.4788 14.1855 8.4788C15.6384 8.4788 16.8161 7.30101 16.8161 5.84816C16.8161 4.3953 15.6384 3.21753 14.1855 3.21753C13.7713 3.21753 13.4355 2.88174 13.4355 2.46753ZM14.4373 11.8081C14.4373 11.3939 14.7731 11.0581 15.1873 11.0581C17.8106 11.0581 19.9373 13.1848 19.9373 15.8081V16.5326C19.9373 17.4991 19.1538 18.2826 18.1873 18.2826H17.3097C16.8954 18.2826 16.5597 17.9469 16.5597 17.5326C16.5597 17.1184 16.8954 16.7826 17.3097 16.7826H18.1873C18.3253 16.7826 18.4373 16.6707 18.4373 16.5326V15.8081C18.4373 14.0132 16.9822 12.5581 15.1873 12.5581C14.7731 12.5581 14.4373 12.2223 14.4373 11.8081ZM0.0622559 16.9996C0.0622559 13.824 2.63662 11.2496 5.81226 11.2496H9.52518C12.7008 11.2496 15.2752 13.824 15.2752 16.9996V17.25C15.2752 18.7688 14.044 20.0001 12.5252 20.0001H2.81226C1.29348 20.0001 0.0622559 18.7688 0.0622559 17.2501V16.9996ZM5.81226 12.7496C3.46505 12.7496 1.56226 14.6524 1.56226 16.9996V17.2501C1.56226 17.9404 2.1219 18.5001 2.81226 18.5001H12.5252C13.2155 18.5001 13.7752 17.9404 13.7752 17.25V16.9996C13.7752 14.6524 11.8724 12.7496 9.52518 12.7496H5.81226Z" fill="#929292"/>
</svg>
