<svg width="24" height="24" viewBox="0 0 24 24" fill="none" xmlns="http://www.w3.org/2000/svg">
<path d="M5.09769 16.2804C5.16874 16.2728 5.23963 16.2645 5.31038 16.2555C5.31071 16.256 5.31103 16.2565 5.31135 16.257C5.24017 16.2651 5.16895 16.2728 5.09769 16.2804ZM5.09769 16.2804C5.0315 16.2874 4.96517 16.2938 4.89873 16.2995L4.99828 16.2909L5.09769 16.2804Z" fill="#929292" stroke="#929292" stroke-width="21.3333"/>
<mask id="path-2-inside-1_1225_6601" fill="white">
<path d="M11.5001 14.2499C11.3164 14.2502 11.1391 14.1828 11.0021 14.0605L8.7521 12.0605C8.60411 11.9282 8.5146 11.7426 8.50319 11.5445C8.49179 11.3463 8.55942 11.1517 8.69125 11.0033C8.82309 10.855 9.00838 10.7649 9.2065 10.7529C9.40463 10.7409 9.59943 10.808 9.7482 10.9394L11.4523 12.454L14.7033 8.98675C14.7704 8.91362 14.8513 8.85453 14.9413 8.81289C15.0314 8.77126 15.1288 8.7479 15.2279 8.74418C15.3271 8.74046 15.426 8.75645 15.5189 8.79122C15.6118 8.82599 15.6969 8.87885 15.7693 8.94674C15.8416 9.01463 15.8998 9.0962 15.9404 9.18673C15.981 9.27726 16.0032 9.37494 16.0058 9.47412C16.0084 9.57331 15.9913 9.67202 15.9554 9.76453C15.9196 9.85705 15.8658 9.94154 15.797 10.0131L12.047 14.0131C11.977 14.088 11.8923 14.1477 11.7982 14.1884C11.7041 14.2292 11.6026 14.2501 11.5001 14.2499Z"/>
</mask>
<path d="M11.5001 14.2499C11.3164 14.2502 11.1391 14.1828 11.0021 14.0605L8.7521 12.0605C8.60411 11.9282 8.5146 11.7426 8.50319 11.5445C8.49179 11.3463 8.55942 11.1517 8.69125 11.0033C8.82309 10.855 9.00838 10.7649 9.2065 10.7529C9.40463 10.7409 9.59943 10.808 9.7482 10.9394L11.4523 12.454L14.7033 8.98675C14.7704 8.91362 14.8513 8.85453 14.9413 8.81289C15.0314 8.77126 15.1288 8.7479 15.2279 8.74418C15.3271 8.74046 15.426 8.75645 15.5189 8.79122C15.6118 8.82599 15.6969 8.87885 15.7693 8.94674C15.8416 9.01463 15.8998 9.0962 15.9404 9.18673C15.981 9.27726 16.0032 9.37494 16.0058 9.47412C16.0084 9.57331 15.9913 9.67202 15.9554 9.76453C15.9196 9.85705 15.8658 9.94154 15.797 10.0131L12.047 14.0131C11.977 14.088 11.8923 14.1477 11.7982 14.1884C11.7041 14.2292 11.6026 14.2501 11.5001 14.2499Z" fill="#929292"/>
<path d="M11.5001 14.2499L11.5343 -7.08338L11.4998 -7.08344L11.4653 -7.08338L11.5001 14.2499ZM11.0021 14.0605L25.2074 -1.85557L25.1913 -1.86993L25.1752 -1.88426L11.0021 14.0605ZM8.7521 12.0605L-5.46465 27.9663L-5.44285 27.9858L-5.421 28.0052L8.7521 12.0605ZM9.7482 10.9394L23.9207 -5.00585L23.8957 -5.02809L23.8706 -5.05025L9.7482 10.9394ZM11.4523 12.454L-2.72025 28.3993L12.8062 42.1996L27.0148 27.0458L11.4523 12.454ZM14.7033 8.98675L30.2658 23.5785L30.3465 23.4924L30.4263 23.4054L14.7033 8.98675ZM15.797 10.0131L0.408955 -4.76247L0.32072 -4.67058L0.233588 -4.57764L15.797 10.0131ZM12.047 14.0131L-3.51641 -0.57764L-3.52505 -0.568423L-3.53368 -0.559197L12.047 14.0131ZM11.4653 -7.08338C16.5333 -7.09166 21.4263 -5.23024 25.2074 -1.85557L-3.2032 29.9765C0.851919 33.5958 6.09956 35.5921 11.5349 35.5832L11.4653 -7.08338ZM25.1752 -1.88426L22.9252 -3.88426L-5.421 28.0052L-3.171 30.0052L25.1752 -1.88426ZM22.9688 -3.84534C27.0312 -0.214392 29.4882 4.8791 29.8013 10.3186L-12.7949 12.7703C-12.459 18.6062 -9.82298 24.0708 -5.46465 27.9663L22.9688 -3.84534ZM29.8013 10.3186C30.1144 15.7582 28.258 21.0999 24.639 25.173L-7.25654 -3.16631C-11.1391 1.20351 -13.1308 6.93446 -12.7949 12.7703L29.8013 10.3186ZM24.639 25.173C21.0201 29.2461 15.9339 31.7181 10.4953 32.0473L7.91768 -10.5414C2.08284 -10.1883 -3.37394 -7.53613 -7.25654 -3.16631L24.639 25.173ZM10.4953 32.0473C5.05674 32.3765 -0.290483 30.5359 -4.37423 26.929L23.8706 -5.05025C19.4893 -8.91991 13.7525 -10.8946 7.91768 -10.5414L10.4953 32.0473ZM-4.42435 26.8846L-2.72025 28.3993L25.6248 -3.4912L23.9207 -5.00585L-4.42435 26.8846ZM27.0148 27.0458L30.2658 23.5785L-0.859207 -5.60502L-4.11021 -2.13774L27.0148 27.0458ZM30.4263 23.4054C28.586 25.4122 26.3658 27.0339 23.8942 28.1767L5.98842 -10.5509C3.33667 -9.32487 0.954664 -7.58491 -1.01972 -5.43192L30.4263 23.4054ZM23.8942 28.1767C21.4226 29.3195 18.7489 29.9604 16.028 30.0625L14.4279 -12.5741C11.5087 -12.4646 8.64015 -11.7769 5.98842 -10.5509L23.8942 28.1767ZM16.028 30.0625C13.307 30.1646 10.5928 29.7259 8.04255 28.7716L22.9953 -11.1892C20.2591 -12.213 17.3471 -12.6837 14.4279 -12.5741L16.028 30.0625ZM8.04255 28.7716C5.49233 27.8173 3.15679 26.3666 1.17119 24.5033L30.3674 -6.60984C28.2371 -8.60888 25.7313 -10.1654 22.9953 -11.1892L8.04255 28.7716ZM1.17119 24.5033C-0.814404 22.6401 -2.41056 20.4014 -3.52485 17.9169L35.4056 0.456558C34.2101 -2.20896 32.4977 -4.6108 30.3674 -6.60984L1.17119 24.5033ZM-3.52485 17.9169C-4.63909 15.4325 -5.2494 12.7517 -5.3203 10.0296L37.3319 8.91868C37.2558 5.9982 36.6011 3.12198 35.4056 0.456558L-3.52485 17.9169ZM-5.3203 10.0296C-5.39119 7.30746 -4.92126 4.59847 -3.93786 2.05947L35.8487 17.4696C36.9038 14.7456 37.408 11.8391 37.3319 8.91868L-5.3203 10.0296ZM-3.93786 2.05947C-2.95443 -0.479598 -1.47698 -2.79836 0.408955 -4.76247L31.1851 24.7887C33.2085 22.6814 34.7936 20.1937 35.8487 17.4696L-3.93786 2.05947ZM0.233588 -4.57764L-3.51641 -0.57764L27.6105 28.6039L31.3605 24.6039L0.233588 -4.57764ZM-3.53368 -0.559197C-1.60412 -2.62229 0.729412 -4.2662 3.32169 -5.38861L20.2747 33.7654C23.0552 32.5615 25.5581 30.7983 27.6278 28.5854L-3.53368 -0.559197ZM3.32169 -5.38861C5.91398 -6.51103 8.70952 -7.08791 11.5343 -7.08338L11.4659 35.5832C14.4958 35.5881 17.4942 34.9693 20.2747 33.7654L3.32169 -5.38861Z" fill="#929292" mask="url(#path-2-inside-1_1225_6601)"/>
</svg>
