<svg width="24" height="24" viewBox="0 0 24 24" fill="none" xmlns="http://www.w3.org/2000/svg">
<g clip-path="url(#clip0_1225_7350)">
<path d="M23.1999 10.472V8.4C23.1999 7.73726 22.6626 7.2 21.9999 7.2H21.4479L20.1799 4.664C19.9764 4.25634 19.5595 3.99911 19.1039 4H12.8959C12.4403 3.99911 12.0234 4.25634 11.8199 4.664L10.5519 7.2H8.3999C7.73716 7.2 7.1999 7.73726 7.1999 8.4V10.472C6.72161 10.6411 6.40133 11.0927 6.3999 11.6C6.3999 12.2627 6.93716 12.8 7.5999 12.8H8.8839C9.15297 13.7456 10.0168 14.3979 10.9999 14.3979C11.983 14.3979 12.8468 13.7456 13.1159 12.8H17.6839C17.953 13.7456 18.8168 14.3979 19.7999 14.3979C20.783 14.3979 21.6468 13.7456 21.9159 12.8H22.7999C23.4626 12.8 23.9999 12.2627 23.9999 11.6C23.9985 11.0927 23.6782 10.6411 23.1999 10.472ZM22.3999 8.4V10.4H21.0599C20.3046 9.86652 19.2952 9.86652 18.5399 10.4H16.3999V9.2C16.3999 8.97909 16.2208 8.8 15.9999 8.8C15.779 8.8 15.5999 8.97909 15.5999 9.2V10.4H12.2599C11.5046 9.86652 10.4952 9.86652 9.7399 10.4H7.9999V9.6H8.7999C9.46264 9.6 9.9999 9.06274 9.9999 8.4V8H21.9999C22.2208 8 22.3999 8.17909 22.3999 8.4ZM12.9559 11.2H17.8439C17.7093 11.4474 17.6263 11.7196 17.5999 12H13.1999C13.1735 11.7196 13.0905 11.4474 12.9559 11.2ZM19.4639 5.02L20.5519 7.2H16.3999V4.79999L19.1039 4.8C19.256 4.79894 19.3955 4.8842 19.4639 5.02ZM12.5359 5.02C12.6043 4.8842 12.7438 4.79894 12.8959 4.8L15.5999 4.79999V7.2H11.4479L12.5359 5.02ZM8.3999 8H9.1999V8.4C9.1999 8.62092 9.02082 8.8 8.7999 8.8H7.9999V8.4C7.9999 8.17909 8.17899 8 8.3999 8ZM7.1999 11.6C7.2014 11.4925 7.24609 11.3902 7.3239 11.316C7.3956 11.2404 7.49572 11.1983 7.5999 11.2H9.0439C8.90934 11.4474 8.82634 11.7196 8.7999 12H7.5999C7.37899 12 7.1999 11.8209 7.1999 11.6ZM10.9999 13.6C10.4337 13.6 9.92316 13.2589 9.70647 12.7358C9.48978 12.2126 9.60956 11.6104 10.01 11.2101C10.4103 10.8097 11.0125 10.6899 11.5357 10.9066C12.0588 11.1233 12.3999 11.6338 12.3999 12.2C12.3999 12.9732 11.7731 13.6 10.9999 13.6ZM19.7999 13.6C19.0267 13.6 18.3999 12.9732 18.3999 12.2C18.3999 11.4268 19.0267 10.8 19.7999 10.8C20.5731 10.8 21.1999 11.4268 21.1999 12.2C21.1999 12.9732 20.5731 13.6 19.7999 13.6ZM23.0759 11.884C23.0042 11.9596 22.9041 12.0017 22.7999 12H21.9999C21.9772 11.7204 21.8983 11.4483 21.7679 11.2H22.7999C23.0208 11.2 23.1999 11.3791 23.1999 11.6C23.1984 11.7075 23.1537 11.8098 23.0759 11.884Z" fill="#929292"/>
<path d="M13.2 9.59999H14C14.221 9.59999 14.4 9.4209 14.4 9.19999C14.4 8.97907 14.221 8.79999 14 8.79999H13.2C12.9791 8.79999 12.8 8.97907 12.8 9.19999C12.8 9.4209 12.9791 9.59999 13.2 9.59999Z" fill="#929292"/>
<path d="M17.6 9.59999H18.4C18.6209 9.59999 18.8 9.4209 18.8 9.19999C18.8 8.97907 18.6209 8.79999 18.4 8.79999H17.6C17.379 8.79999 17.2 8.97907 17.2 9.19999C17.2 9.4209 17.379 9.59999 17.6 9.59999Z" fill="#929292"/>
<path d="M22.028 15.872L14.624 18.34C14.495 18.3825 14.3598 18.4028 14.224 18.4H14C14.1901 17.8791 14.1358 17.3004 13.852 16.824L13.816 16.764C13.3845 16.0458 12.6098 15.6046 11.772 15.6H9.68C8.94163 15.5993 8.2253 15.3484 7.648 14.888C6.93026 14.3142 6.03893 14.0011 5.12 14H4.32C4.1519 13.5245 3.70436 13.2048 3.2 13.2H1.2C0.537258 13.2 0 13.7373 0 14.4V22.8C0 23.4628 0.537258 24 1.2 24H3.2C3.53923 23.9982 3.86185 23.8529 4.088 23.6H14.12C14.7073 23.6013 15.2834 23.4392 15.784 23.132L23.28 18.568C23.6404 18.3499 23.8917 17.9895 23.972 17.576C24.0736 17.0535 23.8899 16.5163 23.4896 16.1654C23.0893 15.8146 22.5327 15.7028 22.028 15.872ZM3.2 23.2H1.2C0.979086 23.2 0.8 23.0209 0.8 22.8V14.4C0.8 14.1791 0.979086 14 1.2 14H3.2C3.42091 14 3.6 14.1791 3.6 14.4V22.8C3.6 23.0209 3.42091 23.2 3.2 23.2ZM23.2 17.424C23.1631 17.6178 23.0452 17.7866 22.876 17.888L15.368 22.452C14.9918 22.6802 14.56 22.8006 14.12 22.8L4.4 22.8V14.8H5.12C5.85837 14.8007 6.5747 15.0517 7.152 15.512C7.86974 16.0858 8.76107 16.3989 9.68 16.4H11.772C12.3339 16.3998 12.8546 16.6944 13.144 17.176L13.18 17.236C13.3986 17.6001 13.3749 18.0603 13.12 18.4H10.692C9.90187 18.3998 9.12939 18.6337 8.472 19.072L8.18 19.268C8.01915 19.3976 7.98339 19.6283 8.09748 19.8005C8.21157 19.9726 8.43799 20.0296 8.62 19.932L8.916 19.736C9.44209 19.3859 10.0601 19.1994 10.692 19.2H14.244C14.4589 19.1995 14.6723 19.1644 14.876 19.096L22.284 16.628C22.5691 16.5348 22.8818 16.6348 23.06 16.876C23.1835 17.0299 23.2346 17.2297 23.2 17.424Z" fill="#929292"/>
<path d="M6.0001 5.516V4.476C6.7419 4.04772 7.19922 3.25656 7.2001 2.4V1.2C7.2001 0.537258 6.66284 0 6.0001 0H2.8001C2.13736 0 1.6001 0.537258 1.6001 1.2V2.4C1.60098 3.25656 2.0583 4.04772 2.8001 4.476V9.732C2.8001 9.9051 2.85624 10.0735 2.9601 10.212L3.7601 11.28C3.91118 11.4814 4.14829 11.6 4.4001 11.6C4.6519 11.6 4.88901 11.4814 5.0401 11.28L5.8401 10.212C5.94396 10.0735 6.0001 9.9051 6.0001 9.732V8.884C5.99996 8.72492 5.93665 8.57241 5.8241 8.46L5.3641 8L5.7401 7.624C5.85345 7.51203 5.91724 7.35933 5.91724 7.2C5.91724 7.04067 5.85345 6.88797 5.7401 6.776L5.3641 6.4L5.8241 5.94C5.93665 5.82759 5.99996 5.67508 6.0001 5.516ZM2.4001 1.2C2.4001 0.979086 2.57918 0.8 2.8001 0.8H6.0001C6.22101 0.8 6.4001 0.979086 6.4001 1.2V2.4C6.4001 3.28366 5.68375 4 4.8001 4H4.0001C3.11644 4 2.4001 3.28366 2.4001 2.4V1.2ZM4.6601 6.824L5.0361 7.2L4.6601 7.576C4.54675 7.68797 4.48295 7.84067 4.48295 8C4.48295 8.15933 4.54675 8.31203 4.6601 8.424L5.2001 8.964V9.732L4.4001 10.8L3.6001 9.732V4.764C3.73233 4.78608 3.86605 4.79811 4.0001 4.8H4.8001C4.93415 4.79811 5.06786 4.78608 5.2001 4.764V5.436L4.6601 5.976C4.54675 6.08797 4.48295 6.24067 4.48295 6.4C4.48295 6.55933 4.54675 6.71203 4.6601 6.824Z" fill="#929292"/>
<path d="M4.0001 2.39998H4.8001C5.02101 2.39998 5.2001 2.22089 5.2001 1.99998C5.2001 1.77906 5.02101 1.59998 4.8001 1.59998H4.0001C3.77918 1.59998 3.6001 1.77906 3.6001 1.99998C3.6001 2.22089 3.77918 2.39998 4.0001 2.39998Z" fill="#929292"/>
</g>
<defs>
<clipPath id="clip0_1225_7350">
<rect width="24" height="24" fill="white"/>
</clipPath>
</defs>
</svg>
