<svg width="24" height="24" viewBox="0 0 24 24" fill="none" xmlns="http://www.w3.org/2000/svg">
<g clip-path="url(#clip0_15586_3330)">
<path d="M23.2125 22.9608L22.1344 17.52C21.9736 16.7081 21.4013 16.0917 20.6035 15.8714L16.1953 14.6522L15.2086 13.5019V12.3455C15.7121 11.6466 16.05 10.8483 16.0917 10.0908L16.4536 10.1198C16.4803 10.1222 16.5066 10.1231 16.5328 10.1231C16.9594 10.1231 17.3053 9.83625 17.4886 9.32438C17.7656 8.55188 17.6353 7.38234 17.0471 6.97359C17.0353 6.96563 17.0231 6.95766 17.01 6.94922L17.1544 6.02156C17.1736 5.89781 17.2106 5.76094 17.25 5.61516C17.3972 5.07188 17.5805 4.39594 17.0977 3.59719C16.9411 3.33797 16.7306 3.09469 16.5267 2.85984C16.3224 2.62359 16.1292 2.40094 16.02 2.19609C15.2855 0.818437 13.651 0.703125 12.0403 0.703125H11.9602C10.3491 0.703125 8.71502 0.818438 7.98002 2.19656C7.8708 2.40141 7.67768 2.62453 7.4733 2.86031C7.2694 3.09562 7.05893 3.33891 6.90237 3.59766C6.41955 4.39641 6.60284 5.07234 6.75002 5.61563C6.7894 5.76094 6.82643 5.89828 6.84565 6.02203L6.99002 6.94969C6.97784 6.95719 6.96565 6.96516 6.95487 6.97266C6.36612 7.37953 6.23487 8.54906 6.51096 9.3225C6.69424 9.83578 7.03971 10.1236 7.46721 10.1236C7.49346 10.1236 7.51971 10.1227 7.54643 10.1203L7.91815 10.0903C7.9594 10.8431 8.29362 11.6367 8.7919 12.3323V13.5019L7.80518 14.6522L3.39705 15.8714C2.59971 16.0922 2.02737 16.7086 1.86659 17.52L0.788461 22.9608C0.772055 23.0433 0.793617 23.1291 0.847055 23.1937C0.900492 23.2584 0.98018 23.2964 1.06455 23.2964H22.9383C23.0227 23.2964 23.1024 23.2589 23.1558 23.1937C23.2092 23.1286 23.2289 23.0433 23.2125 22.9608ZM16.981 17.8823L15.7364 18.4575C15.6989 18.475 15.6656 18.5005 15.639 18.5323C15.6125 18.5641 15.5932 18.6013 15.5827 18.6414C15.5722 18.6814 15.5707 18.7233 15.5782 18.7641C15.5857 18.8048 15.6021 18.8434 15.6263 18.877L16.4963 20.0887L14.7099 22.7344H13.5474L13.538 22.6439L15.0971 14.235L15.7955 15.0492L16.981 17.8823ZM11.0297 22.6214L11.4305 18.7678H12.57L12.9703 22.6214L12.9492 22.7344H11.0508L11.0297 22.6214ZM12 16.6261L13.0683 17.5898L12.8475 18.0483C12.7988 18.1495 12.7102 18.2053 12.5977 18.2053H11.4024C11.2899 18.2053 11.2013 18.1495 11.1525 18.0483L10.9317 17.5898L12 16.6261ZM13.3542 18.2925L13.5038 17.9827L13.7836 18.2353L13.3327 20.6672L13.1166 18.5892C13.215 18.5114 13.2971 18.4111 13.3542 18.2925ZM13.9036 17.5861L12.4196 16.2473L14.4994 14.3709L13.9036 17.5861ZM10.0964 17.5861L9.50018 14.3709L11.58 16.2473L10.0964 17.5861ZM10.4967 17.9827L10.6463 18.2925C10.7035 18.4111 10.7855 18.5114 10.8839 18.5887L10.6678 20.6667L10.2169 18.2348L10.4967 17.9827ZM16.9594 9.13547C16.853 9.43312 16.6988 9.57609 16.4996 9.56016L16.0969 9.52781V8.17828L16.231 7.54594C16.4396 7.38937 16.606 7.35281 16.7264 7.43672C17.0475 7.65937 17.1694 8.54859 16.9594 9.13547ZM7.38284 3.88922C7.51455 3.67125 7.70908 3.44625 7.89752 3.22922C8.11315 2.98031 8.33627 2.7225 8.47549 2.46187C9.06471 1.35703 10.4602 1.26562 11.9597 1.26562H12.0399C13.5399 1.26562 14.9349 1.35703 15.5241 2.46141C15.6633 2.72203 15.8864 2.97984 16.1021 3.22875C16.2905 3.44625 16.485 3.67078 16.6167 3.88875C16.9753 4.48172 16.8389 4.98328 16.7077 5.46844C16.6641 5.62922 16.6228 5.78109 16.5989 5.93531L16.4588 6.83766C16.2694 6.86625 16.0472 6.96094 15.796 7.17281C15.7481 7.21307 15.7151 7.26818 15.7022 7.32938L15.6005 7.80844C15.4538 7.72078 15.3689 7.54453 15.3469 7.36875L15.2217 6.37172C15.1514 5.80969 14.8285 5.37891 14.3996 5.27344C14.1005 5.19984 13.7747 5.21391 13.4297 5.22844C12.7416 5.25797 11.8852 5.29453 10.7569 4.66828C10.373 4.45547 9.87612 4.45406 9.2808 4.665L9.24658 4.67719C8.88799 4.80422 8.65643 5.13141 8.65643 5.51203V7.40344C8.65643 7.58203 8.55471 7.73672 8.40612 7.81359L8.3044 7.33359C8.29127 7.27266 8.25893 7.21781 8.21112 7.1775C7.95705 6.96187 7.73252 6.86578 7.54174 6.83672L7.40159 5.93391C7.37768 5.77969 7.33643 5.62781 7.29284 5.46703C7.16065 4.98375 7.02471 4.48219 7.38284 3.88922ZM7.50049 9.55969C7.30127 9.57609 7.14659 9.43266 7.04018 9.13359C6.83065 8.54625 6.95299 7.6575 7.27409 7.43578C7.39549 7.35188 7.56377 7.38984 7.77471 7.54969L7.91299 8.20031V9.52688L7.50049 9.55969ZM8.47502 8.39016C8.90393 8.26781 9.21846 7.87219 9.21846 7.40438V5.51297C9.21846 5.37234 9.30096 5.25563 9.43408 5.20828L9.4683 5.19609C9.90518 5.04141 10.2469 5.02969 10.4836 5.16094C11.7506 5.86359 12.7346 5.82141 13.4531 5.79094C13.77 5.77734 14.0433 5.76562 14.2646 5.82C14.4619 5.86875 14.6222 6.11859 14.6625 6.44203L14.7877 7.43906C14.8477 7.91578 15.1397 8.27484 15.5339 8.38969V9.93375C15.5339 10.7419 15.0886 11.7066 14.3433 12.5138C13.605 13.313 12.7308 13.7902 12.0042 13.7902C11.2777 13.7902 10.4039 13.313 9.66518 12.5138C8.9194 11.7066 8.47455 10.7423 8.47455 9.93375V8.39016H8.47502ZM12.0047 14.3531C12.9 14.3531 13.8736 13.8066 14.6466 13.0148V13.4813L12 15.8686L9.35346 13.4813V13.0055C10.1278 13.8019 11.1061 14.3531 12.0047 14.3531ZM8.90299 14.2355L10.4621 22.6444L10.4527 22.7348H9.29018L7.50424 20.0887L8.37424 18.877C8.42299 18.8091 8.43893 18.7223 8.41784 18.6413C8.39674 18.5602 8.34002 18.4927 8.26409 18.4575L7.01955 17.8823L8.20455 15.0502L8.90299 14.2355ZM2.41737 17.6297C2.53784 17.0222 2.9494 16.5788 3.54612 16.4137L7.47893 15.3258L6.39565 17.9152C6.3675 17.9823 6.36653 18.0578 6.39294 18.1256C6.41935 18.1935 6.47107 18.2484 6.53721 18.2789L7.71893 18.825L6.9333 19.9195C6.89988 19.9663 6.88153 20.0221 6.88069 20.0796C6.87985 20.137 6.89657 20.1934 6.92862 20.2411L8.61143 22.7344H1.4058L2.41737 17.6297ZM15.3886 22.7344L17.0719 20.2411C17.1042 20.1935 17.121 20.1371 17.1202 20.0796C17.1193 20.0221 17.1009 19.9662 17.0672 19.9195L16.2816 18.825L17.4633 18.2789C17.6006 18.2156 17.663 18.0548 17.6049 17.9152L16.5216 15.3258L20.4544 16.4137C21.0516 16.5788 21.4627 17.0222 21.5831 17.6297L22.5942 22.7344H15.3886Z" fill="black"/>
</g>
<defs>
<clipPath id="clip0_15586_3330">
<rect width="24" height="24" fill="white"/>
</clipPath>
</defs>
</svg>
