<svg width="64" height="64" viewBox="0 0 64 64" fill="none" xmlns="http://www.w3.org/2000/svg">
<path d="M63.2328 49.4112V4.95611C63.2328 2.36203 61.1224 0.251465 58.5283 0.251465H5.47169C2.87761 0.251465 0.767212 2.36186 0.767212 4.95611V49.4112C0.767212 52.0052 2.87761 54.1158 5.47169 54.1158H12.0821C11.1792 55.4217 10.6519 56.9814 10.6519 58.6566C10.6519 58.7913 10.656 58.9251 10.6626 59.0583C10.6696 59.2 10.7056 59.3388 10.7682 59.466C10.8309 59.5933 10.9189 59.7064 11.0269 59.7983C13.2863 61.7228 16.2055 62.7828 19.2469 62.7828C20.9522 62.7828 22.5978 62.4552 24.1455 61.8164C26.5463 63.0753 29.2602 63.7484 32.0525 63.7484C34.7879 63.7484 37.4269 63.111 39.7765 61.9132C41.2559 62.4881 42.8213 62.7828 44.4362 62.7828C47.657 62.7828 50.7026 61.6104 53.0114 59.4814C53.1151 59.3856 53.1982 59.2697 53.2558 59.1408C53.3134 59.0119 53.3442 58.8726 53.3464 58.7315C53.3474 58.7067 53.348 58.6819 53.348 58.6566C53.348 56.9814 52.8208 55.4217 51.9179 54.1158H58.5283C61.1224 54.1158 63.2328 52.0054 63.2328 49.4112ZM5.47169 2.33147H58.5283C59.9755 2.33147 61.1528 3.5089 61.1528 4.95611V10.8023H2.84721V4.95595C2.84721 3.50891 4.02449 2.33147 5.47169 2.33147ZM19.2469 60.703C16.8581 60.703 14.5635 59.9259 12.7338 58.5062C12.8197 55.1433 15.7795 52.4323 19.4055 52.4323C20.4082 52.4316 21.3996 52.6447 22.3136 53.0572C21.3264 54.6646 20.7578 56.5297 20.7578 58.5193C20.7578 58.6846 20.7624 58.8569 20.7717 59.0459C20.7787 59.1876 20.8147 59.3263 20.8774 59.4536C20.9401 59.5809 21.0281 59.694 21.1362 59.786C21.3788 59.9912 21.6275 60.1893 21.8818 60.3798C21.02 60.5951 20.1351 60.7036 19.2469 60.703ZM22.8378 58.4935C22.8528 53.6419 27.0771 49.699 32.2677 49.699C37.3312 49.699 41.4755 53.4516 41.6888 58.1414C39.0527 60.4193 35.6493 61.6684 32.0525 61.6684C28.6634 61.6684 25.4098 60.5441 22.8378 58.4935ZM44.4362 60.703C43.6493 60.703 42.8773 60.6179 42.1255 60.455C42.5825 60.115 43.0215 59.7513 43.4405 59.3654C43.5455 59.2678 43.6294 59.1497 43.6871 59.0185C43.7448 58.8872 43.775 58.7456 43.7759 58.6022C43.777 58.5747 43.7776 58.5471 43.7776 58.5193C43.7776 56.4563 43.1693 54.5257 42.1136 52.879C42.9074 52.5835 43.7476 52.4322 44.5946 52.4323C48.1328 52.4323 51.037 55.0142 51.2551 58.2574C49.3773 59.8377 46.9741 60.703 44.4362 60.703ZM58.5283 52.0358H49.8707C48.4027 50.9801 46.5747 50.3523 44.5946 50.3523C43.2682 50.3523 41.9584 50.6387 40.7738 51.1838C38.6671 48.995 35.6339 47.619 32.2677 47.619C28.8104 47.619 25.7067 49.0721 23.5951 51.3649C22.3147 50.702 20.8755 50.3523 19.4055 50.3523C17.4253 50.3523 15.5975 50.9801 14.1291 52.0358H5.47169C4.02449 52.0358 2.84721 50.8584 2.84721 49.4112V12.8823H61.1528V49.4112C61.1528 50.8584 59.9755 52.0358 58.5283 52.0358Z" fill="#757575"/>
<path d="M7.59765 7.6298H8.00373C8.27956 7.6298 8.54408 7.52023 8.73912 7.3252C8.93416 7.13016 9.04373 6.86563 9.04373 6.5898C9.04373 6.31398 8.93416 6.04945 8.73912 5.85441C8.54408 5.65938 8.27956 5.5498 8.00373 5.5498H7.59765C7.32183 5.5498 7.0573 5.65938 6.86226 5.85441C6.66722 6.04945 6.55765 6.31398 6.55765 6.5898C6.55765 6.86563 6.66722 7.13016 6.86226 7.3252C7.0573 7.52023 7.32183 7.6298 7.59765 7.6298ZM16.3266 7.6298H16.7325C17.0084 7.6298 17.2729 7.52023 17.4679 7.3252C17.663 7.13016 17.7725 6.86563 17.7725 6.5898C17.7725 6.31398 17.663 6.04945 17.4679 5.85441C17.2729 5.65938 17.0084 5.5498 16.7325 5.5498H16.3266C16.0508 5.5498 15.7863 5.65938 15.5912 5.85441C15.3962 6.04945 15.2866 6.31398 15.2866 6.5898C15.2866 6.86563 15.3962 7.13016 15.5912 7.3252C15.7863 7.52023 16.0508 7.6298 16.3266 7.6298ZM11.9621 7.6298H12.3682C12.644 7.6298 12.9086 7.52023 13.1036 7.3252C13.2986 7.13016 13.4082 6.86563 13.4082 6.5898C13.4082 6.31398 13.2986 6.04945 13.1036 5.85441C12.9086 5.65938 12.644 5.5498 12.3682 5.5498H11.9621C11.6863 5.5498 11.4218 5.65938 11.2267 5.85441C11.0317 6.04945 10.9221 6.31398 10.9221 6.5898C10.9221 6.86563 11.0317 7.13016 11.2267 7.3252C11.4218 7.52023 11.6863 7.6298 11.9621 7.6298ZM32.7041 7.6298H55.0778C55.3536 7.6298 55.6182 7.52023 55.8132 7.3252C56.0082 7.13016 56.1178 6.86563 56.1178 6.5898C56.1178 6.31398 56.0082 6.04945 55.8132 5.85441C55.6182 5.65938 55.3536 5.5498 55.0778 5.5498H32.7041C32.4282 5.5498 32.1637 5.65938 31.9687 5.85441C31.7736 6.04945 31.6641 6.31398 31.6641 6.5898C31.6641 6.86563 31.7736 7.13016 31.9687 7.3252C32.1637 7.52023 32.4282 7.6298 32.7041 7.6298ZM32.0525 32.3495C28.1677 32.3495 25.0076 35.51 25.0076 39.3946C25.0076 43.2792 28.1679 46.4396 32.0525 46.4396C35.9372 46.4396 39.0977 43.2792 39.0977 39.3946C39.0977 35.51 35.9372 32.3495 32.0525 32.3495ZM32.0525 44.3596C29.3149 44.3596 27.0876 42.1324 27.0876 39.3946C27.0876 36.6568 29.3148 34.4295 32.0525 34.4295C34.7903 34.4295 37.0177 36.6567 37.0177 39.3946C37.0177 42.1322 34.7905 44.3596 32.0525 44.3596ZM44.4362 38.8538C41.4231 38.8538 38.9722 41.305 38.9722 44.3178C38.9722 47.3306 41.4231 49.7821 44.4362 49.7821C47.4493 49.7821 49.9002 47.3309 49.9002 44.3178C49.9002 41.3047 47.449 38.8538 44.4362 38.8538ZM44.4362 47.7021C42.5701 47.7021 41.0522 46.1839 41.0522 44.3178C41.0522 42.4519 42.5701 40.9338 44.4362 40.9338C46.3023 40.9338 47.8202 42.4519 47.8202 44.3178C47.8202 46.1839 46.3021 47.7021 44.4362 47.7021ZM19.2469 38.8538C16.234 38.8538 13.7829 41.305 13.7829 44.3178C13.7829 47.3306 16.234 49.7821 19.2469 49.7821C22.2599 49.7821 24.7111 47.3309 24.7111 44.3178C24.7111 41.3047 22.2599 38.8538 19.2469 38.8538ZM19.2469 47.7021C17.381 47.7021 15.8629 46.1839 15.8629 44.3178C15.8629 42.4519 17.381 40.9338 19.2469 40.9338C21.113 40.9338 22.6311 42.4519 22.6311 44.3178C22.6311 46.1839 21.113 47.7021 19.2469 47.7021ZM10.4514 19.3776H17.0999C17.3757 19.3776 17.6402 19.2681 17.8353 19.073C18.0303 18.878 18.1399 18.6135 18.1399 18.3376C18.1399 18.0618 18.0303 17.7973 17.8353 17.6023C17.6402 17.4072 17.3757 17.2976 17.0999 17.2976H10.4514C10.1756 17.2976 9.91106 17.4072 9.71602 17.6023C9.52098 17.7973 9.41141 18.0618 9.41141 18.3376C9.41141 18.6135 9.52098 18.878 9.71602 19.073C9.91106 19.2681 10.1756 19.3776 10.4514 19.3776ZM52.6756 22.7452H10.4516C10.1757 22.7452 9.91122 22.8547 9.71618 23.0498C9.52114 23.2448 9.41157 23.5093 9.41157 23.7852C9.41157 24.061 9.52114 24.3255 9.71618 24.5206C9.91122 24.7156 10.1757 24.8252 10.4516 24.8252H52.6756C52.9514 24.8252 53.2159 24.7156 53.411 24.5206C53.606 24.3255 53.7156 24.061 53.7156 23.7852C53.7156 23.5093 53.606 23.2448 53.411 23.0498C53.2159 22.8547 52.9514 22.7452 52.6756 22.7452ZM52.6756 28.1927H47.9428C47.667 28.1927 47.4024 28.3023 47.2074 28.4973C47.0123 28.6923 46.9028 28.9569 46.9028 29.2327C46.9028 29.5085 47.0123 29.773 47.2074 29.9681C47.4024 30.1631 47.667 30.2727 47.9428 30.2727H52.6756C52.9514 30.2727 53.2159 30.1631 53.411 29.9681C53.606 29.773 53.7156 29.5085 53.7156 29.2327C53.7156 28.9569 53.606 28.6923 53.411 28.4973C53.2159 28.3023 52.9514 28.1927 52.6756 28.1927ZM39.417 30.2727C39.6928 30.2727 39.9574 30.1631 40.1524 29.9681C40.3474 29.773 40.457 29.5085 40.457 29.2327C40.457 28.9569 40.3474 28.6923 40.1524 28.4973C39.9574 28.3023 39.6928 28.1927 39.417 28.1927H10.4513C10.1754 28.1927 9.9109 28.3023 9.71586 28.4973C9.52082 28.6923 9.41125 28.9569 9.41125 29.2327C9.41125 29.5085 9.52082 29.773 9.71586 29.9681C9.9109 30.1631 10.1754 30.2727 10.4513 30.2727H39.417ZM52.6756 17.2976H49.4652C49.1894 17.2976 48.9248 17.4072 48.7298 17.6023C48.5347 17.7973 48.4252 18.0618 48.4252 18.3376C48.4252 18.6135 48.5347 18.878 48.7298 19.073C48.9248 19.2681 49.1894 19.3776 49.4652 19.3776H52.6756C52.9514 19.3776 53.2159 19.2681 53.411 19.073C53.606 18.878 53.7156 18.6135 53.7156 18.3376C53.7156 18.0618 53.606 17.7973 53.411 17.6023C53.2159 17.4072 52.9514 17.2976 52.6756 17.2976ZM10.4514 44.8384H7.24117C6.96535 44.8384 6.70082 44.948 6.50578 45.1431C6.31074 45.3381 6.20117 45.6026 6.20117 45.8784C6.20117 46.1543 6.31074 46.4188 6.50578 46.6138C6.70082 46.8089 6.96535 46.9184 7.24117 46.9184H10.4514C10.7272 46.9184 10.9918 46.8089 11.1868 46.6138C11.3818 46.4188 11.4914 46.1543 11.4914 45.8784C11.4914 45.6026 11.3818 45.3381 11.1868 45.1431C10.9918 44.948 10.7272 44.8384 10.4514 44.8384Z" fill="#757575"/>
</svg>
