<svg width="80" height="80" viewBox="0 0 80 80" fill="none" xmlns="http://www.w3.org/2000/svg">
<g clip-path="url(#clip0_15716_2283)">
<path d="M77.3333 50.6668H66.0253C63.9707 42.2253 59.0492 34.7589 52.1013 29.5428C52.5728 29.0929 52.9266 28.534 53.1315 27.9153C53.3365 27.2966 53.3863 26.6371 53.2766 25.9946C53.1669 25.3522 52.9011 24.7465 52.5025 24.2309C52.1039 23.7152 51.5847 23.3054 50.9906 23.0374L54.4573 10.7961C54.6847 10.0038 54.7251 9.16948 54.5753 8.35888C54.4255 7.54829 54.0896 6.78352 53.5941 6.12476C53.0986 5.46601 52.4569 4.93124 51.7197 4.56256C50.9824 4.19388 50.1696 4.00135 49.3453 4.00011H46.9333C46.2318 2.78155 45.2216 1.76938 44.0044 1.06558C42.7872 0.361778 41.406 -0.00878906 39.9999 -0.00878906C38.5939 -0.00878906 37.2127 0.361778 35.9955 1.06558C34.7783 1.76938 33.7681 2.78155 33.0666 4.00011H30.6533C29.8298 4.00178 29.018 4.19438 28.2816 4.56278C27.5451 4.93118 26.9042 5.46534 26.409 6.12328C25.9139 6.78123 25.5781 7.54503 25.428 8.35467C25.2779 9.16431 25.3176 9.99773 25.5439 10.7894L29.0106 23.0374C28.4162 23.3055 27.8968 23.7156 27.4981 24.2316C27.0994 24.7476 26.8337 25.3537 26.7242 25.9965C26.6148 26.6393 26.665 27.2992 26.8705 27.918C27.076 28.5369 27.4304 29.0958 27.9026 29.5454C20.9713 34.7769 16.0525 42.2354 13.9733 50.6668H3.99994C3.22631 50.6634 2.46843 50.8853 1.81888 51.3056C1.16934 51.7258 0.656251 52.3262 0.342308 53.0333C0.0283654 53.7403 -0.0728431 54.5235 0.0510467 55.2872C0.174937 56.0508 0.518561 56.7619 1.03994 57.3335C0.371109 58.0605 -0.000108561 59.0123 -0.000108561 60.0001C-0.000108561 60.988 0.371109 61.9398 1.03994 62.6668C0.646869 63.0958 0.353131 63.6061 0.179609 64.1615C0.00608703 64.7169 -0.0429588 65.3037 0.0359584 65.8801C0.114876 66.4566 0.319818 67.0086 0.636216 67.4969C0.952614 67.9853 1.3727 68.3979 1.86661 68.7055C1.51674 69.2999 1.33225 69.9771 1.33225 70.6668C1.33225 71.3565 1.51674 72.0337 1.86661 72.6281C1.13271 73.0893 0.568861 73.7768 0.260253 74.5868C-0.0483553 75.3968 -0.0849519 76.2852 0.155993 77.1178C0.396937 77.9504 0.902331 78.682 1.59581 79.202C2.28929 79.722 3.13317 80.0021 3.99994 80.0001H25.3333C26.0693 79.9976 26.7903 79.7915 27.4165 79.4047C28.0427 79.0178 28.5497 78.4652 28.8813 77.8081C32.4102 79.2532 36.1866 79.9977 39.9999 80.0001H77.3333C78.0405 80.0001 78.7188 79.7192 79.2189 79.2191C79.719 78.719 79.9999 78.0407 79.9999 77.3335V53.3335C79.9999 52.6262 79.719 51.9479 79.2189 51.4478C78.7188 50.9477 78.0405 50.6668 77.3333 50.6668ZM77.3333 57.1441C76.4164 56.9057 75.5798 56.4268 74.9099 55.7568C74.24 55.0869 73.7611 54.2503 73.5226 53.3335H77.3333V57.1441ZM30.6666 28.0001C30.313 28.0001 29.9739 27.8596 29.7238 27.6096C29.4738 27.3595 29.3333 27.0204 29.3333 26.6668C29.3333 26.3132 29.4738 25.974 29.7238 25.724C29.9739 25.4739 30.313 25.3334 30.6666 25.3334H49.3333C49.6869 25.3334 50.026 25.4739 50.2761 25.724C50.5261 25.974 50.6666 26.3132 50.6666 26.6668C50.6666 27.0204 50.5261 27.3595 50.2761 27.6096C50.026 27.8596 49.6869 28.0001 49.3333 28.0001H30.6666ZM28.5413 7.72544C28.786 7.39641 29.1043 7.12927 29.4709 6.94542C29.8374 6.76158 30.2419 6.66615 30.6519 6.66678H32.1186C32.0421 7.10715 32.0024 7.55314 31.9999 8.00011V13.3334C31.9999 13.6871 32.1404 14.0262 32.3905 14.2763C32.6405 14.5263 32.9797 14.6668 33.3333 14.6668C33.6869 14.6668 34.026 14.5263 34.2761 14.2763C34.5261 14.0262 34.6666 13.6871 34.6666 13.3334V8.00011C34.6643 7.26597 34.8151 6.5394 35.1093 5.86678C35.524 4.91494 36.2076 4.10485 37.0761 3.53591C37.9446 2.96697 38.9603 2.6639 39.9986 2.6639C41.0369 2.6639 42.0526 2.96697 42.9211 3.53591C43.7896 4.10485 44.4732 4.91494 44.8879 5.86678C45.1831 6.53921 45.3347 7.26578 45.3333 8.00011V13.3334C45.3333 13.6871 45.4738 14.0262 45.7238 14.2763C45.9738 14.5263 46.313 14.6668 46.6666 14.6668C47.0202 14.6668 47.3594 14.5263 47.6094 14.2763C47.8595 14.0262 47.9999 13.6871 47.9999 13.3334V8.00011C47.9971 7.5531 47.9569 7.10712 47.8799 6.66678H49.3466C49.7574 6.66995 50.162 6.76801 50.5287 6.9533C50.8954 7.13859 51.2143 7.40611 51.4606 7.73497C51.7068 8.06384 51.8738 8.44516 51.9484 8.84918C52.023 9.2532 52.0032 9.66899 51.8906 10.0641L48.3253 22.6668H31.6746L28.1079 10.0574C27.9929 9.66191 27.9722 9.24493 28.0475 8.83995C28.1228 8.43497 28.2919 8.05326 28.5413 7.72544ZM3.99994 53.3335H25.3333C25.6869 53.3335 26.026 53.4739 26.2761 53.724C26.5261 53.974 26.6666 54.3132 26.6666 54.6668C26.6666 55.0204 26.5261 55.3595 26.2761 55.6096C26.026 55.8596 25.6869 56.0001 25.3333 56.0001H3.99994C3.64632 56.0001 3.30718 55.8596 3.05713 55.6096C2.80708 55.3595 2.66661 55.0204 2.66661 54.6668C2.66661 54.3132 2.80708 53.974 3.05713 53.724C3.30718 53.4739 3.64632 53.3335 3.99994 53.3335ZM3.99994 70.6668C3.99994 70.3132 4.14042 69.974 4.39047 69.724C4.64051 69.4739 4.97965 69.3335 5.33327 69.3335H26.6666C27.0202 69.3335 27.3594 69.4739 27.6094 69.724C27.8595 69.974 27.9999 70.3132 27.9999 70.6668C27.9999 71.0204 27.8595 71.3595 27.6094 71.6096C27.3594 71.8596 27.0202 72.0001 26.6666 72.0001H5.33327C4.97965 72.0001 4.64051 71.8596 4.39047 71.6096C4.14042 71.3595 3.99994 71.0204 3.99994 70.6668ZM3.99994 66.6668C3.64632 66.6668 3.30718 66.5263 3.05713 66.2763C2.80708 66.0262 2.66661 65.6871 2.66661 65.3335C2.66661 64.9798 2.80708 64.6407 3.05713 64.3906C3.30718 64.1406 3.64632 64.0001 3.99994 64.0001H25.3333C25.6869 64.0001 26.026 64.1406 26.2761 64.3906C26.5261 64.6407 26.6666 64.9798 26.6666 65.3335C26.6666 65.6871 26.5261 66.0262 26.2761 66.2763C26.026 66.5263 25.6869 66.6668 25.3333 66.6668H3.99994ZM2.66661 60.0001C2.66661 59.6465 2.80708 59.3074 3.05713 59.0573C3.30718 58.8073 3.64632 58.6668 3.99994 58.6668H25.3333C25.6869 58.6668 26.026 58.8073 26.2761 59.0573C26.5261 59.3074 26.6666 59.6465 26.6666 60.0001C26.6666 60.3537 26.5261 60.6929 26.2761 60.9429C26.026 61.193 25.6869 61.3335 25.3333 61.3335H3.99994C3.64632 61.3335 3.30718 61.193 3.05713 60.9429C2.80708 60.6929 2.66661 60.3537 2.66661 60.0001ZM25.3333 77.3335H3.99994C3.64632 77.3335 3.30718 77.193 3.05713 76.9429C2.80708 76.6929 2.66661 76.3537 2.66661 76.0001C2.66661 75.6465 2.80708 75.3074 3.05713 75.0573C3.30718 74.8073 3.64632 74.6668 3.99994 74.6668H25.3333C25.6869 74.6668 26.026 74.8073 26.2761 75.0573C26.5261 75.3074 26.6666 75.6465 26.6666 76.0001C26.6666 76.3537 26.5261 76.6929 26.2761 76.9429C26.026 77.193 25.6869 77.3335 25.3333 77.3335ZM29.1999 75.0348C29.112 74.6863 28.9774 74.3513 28.7999 74.0388C29.3716 73.6812 29.843 73.1841 30.1698 72.5942C30.4966 72.0044 30.6681 71.3411 30.6681 70.6668C30.6681 69.9925 30.4966 69.3292 30.1698 68.7393C29.843 68.1495 29.3716 67.6524 28.7999 67.2948C29.2231 66.5711 29.4022 65.7305 29.311 64.8971C29.2198 64.0637 28.863 63.2818 28.2933 62.6668C28.9621 61.9398 29.3333 60.988 29.3333 60.0001C29.3333 59.0123 28.9621 58.0605 28.2933 57.3335C28.8147 56.7619 29.1583 56.0508 29.2822 55.2872C29.4061 54.5235 29.3049 53.7403 28.9909 53.0333C28.677 52.3262 28.1639 51.7258 27.5143 51.3056C26.8648 50.8853 26.1069 50.6634 25.3333 50.6668H16.7026C18.6733 42.8161 24.5973 34.4974 31.0466 30.6668H48.9519C57.1359 35.5174 63.9999 47.0268 63.9999 56.0001C63.9999 67.7628 53.2333 77.3335 39.9999 77.3335C36.2789 77.3296 32.6 76.5466 29.1999 75.0348ZM66.6666 56.0001C66.6585 55.1084 66.5975 54.2179 66.4839 53.3335H70.7866C71.066 54.9681 71.8458 56.4757 73.0184 57.6483C74.191 58.821 75.6987 59.6007 77.3333 59.8801V70.7868C75.6987 71.0662 74.191 71.846 73.0184 73.0186C71.8458 74.1912 71.066 75.6988 70.7866 77.3335H52.1613C60.7613 73.3455 66.6666 65.2895 66.6666 56.0001ZM73.5226 77.3335C73.7611 76.4166 74.24 75.58 74.9099 74.9101C75.5798 74.2402 76.4164 73.7612 77.3333 73.5228V77.3335H73.5226Z" fill="#757575"/>
<path d="M71.9999 69.3333C72.791 69.3333 73.5644 69.0987 74.2222 68.6592C74.88 68.2197 75.3927 67.595 75.6954 66.8641C75.9982 66.1332 76.0774 65.3289 75.923 64.553C75.7687 63.7771 75.3877 63.0643 74.8283 62.5049C74.2689 61.9455 73.5562 61.5645 72.7803 61.4102C72.0043 61.2559 71.2001 61.3351 70.4692 61.6378C69.7383 61.9406 69.1135 62.4533 68.674 63.1111C68.2345 63.7689 67.9999 64.5422 67.9999 65.3333C67.9999 66.3942 68.4213 67.4116 69.1715 68.1618C69.9216 68.9119 70.939 69.3333 71.9999 69.3333ZM71.9999 64C72.2636 64 72.5214 64.0782 72.7407 64.2247C72.9599 64.3712 73.1308 64.5795 73.2317 64.8231C73.3326 65.0667 73.3591 65.3348 73.3076 65.5935C73.2562 65.8521 73.1292 66.0897 72.9427 66.2761C72.7562 66.4626 72.5187 66.5896 72.26 66.641C72.0014 66.6925 71.7333 66.6661 71.4896 66.5652C71.246 66.4643 71.0378 66.2934 70.8913 66.0741C70.7448 65.8548 70.6666 65.597 70.6666 65.3333C70.6666 64.9797 70.807 64.6406 71.0571 64.3905C71.3071 64.1405 71.6463 64 71.9999 64ZM43.9999 48C43.9999 48.3536 44.1404 48.6928 44.3904 48.9428C44.6405 49.1929 44.9796 49.3333 45.3332 49.3333C45.6868 49.3333 46.026 49.1929 46.276 48.9428C46.5261 48.6928 46.6666 48.3536 46.6666 48C46.6646 46.4637 46.1331 44.9751 45.1616 43.785C44.1901 42.5949 42.838 41.7761 41.3332 41.4667V41.3333C41.3332 40.9797 41.1927 40.6406 40.9427 40.3905C40.6927 40.1405 40.3535 40 39.9999 40C39.6463 40 39.3071 40.1405 39.0571 40.3905C38.807 40.6406 38.6666 40.9797 38.6666 41.3333V41.4667C37.1595 41.7727 35.8046 42.5903 34.8314 43.781C33.8582 44.9717 33.3265 46.4622 33.3265 48C33.3265 49.5378 33.8582 51.0283 34.8314 52.219C35.8046 53.4097 37.1595 54.2273 38.6666 54.5333V62.4227C37.8891 62.1478 37.2156 61.6394 36.7383 60.9671C36.2609 60.2947 36.003 59.4912 35.9999 58.6667C35.9999 58.313 35.8594 57.9739 35.6094 57.7239C35.3593 57.4738 35.0202 57.3333 34.6666 57.3333C34.3129 57.3333 33.9738 57.4738 33.7237 57.7239C33.4737 57.9739 33.3332 58.313 33.3332 58.6667C33.3352 60.2029 33.8667 61.6916 34.8382 62.8817C35.8097 64.0718 37.1618 64.8905 38.6666 65.2V65.3333C38.6666 65.687 38.807 66.0261 39.0571 66.2761C39.3071 66.5262 39.6463 66.6667 39.9999 66.6667C40.3535 66.6667 40.6927 66.5262 40.9427 66.2761C41.1927 66.0261 41.3332 65.687 41.3332 65.3333V65.2C42.8403 64.894 44.1952 64.0764 45.1684 62.8857C46.1416 61.695 46.6732 60.2045 46.6732 58.6667C46.6732 57.1289 46.1416 55.6383 45.1684 54.4477C44.1952 53.257 42.8403 52.4394 41.3332 52.1333V44.2453C42.1104 44.5201 42.7838 45.0283 43.2611 45.7004C43.7384 46.3725 43.9965 47.1757 43.9999 48ZM35.9999 48C36.0033 47.1757 36.2613 46.3725 36.7387 45.7004C37.216 45.0283 37.8893 44.5201 38.6666 44.2453V51.7547C37.8893 51.4799 37.216 50.9717 36.7387 50.2996C36.2613 49.6275 36.0033 48.8243 35.9999 48ZM43.9999 58.6667C43.9965 59.491 43.7384 60.2942 43.2611 60.9663C42.7838 61.6384 42.1104 62.1466 41.3332 62.4213V54.912C42.1104 55.1868 42.7838 55.695 43.2611 56.3671C43.7384 57.0392 43.9965 57.8423 43.9999 58.6667Z" fill="#757575"/>
</g>
<defs>
<clipPath id="clip0_15716_2283">
<rect width="80" height="80" fill="white"/>
</clipPath>
</defs>
</svg>
