<svg width="80" height="60" viewBox="0 0 80 60" fill="none" xmlns="http://www.w3.org/2000/svg">
<path d="M70.5813 27.0718C67.8591 25.7108 62.7552 25.6951 62.5392 25.6951C62.2284 25.6951 61.9304 25.8185 61.7106 26.0383C61.4908 26.2581 61.3674 26.5561 61.3674 26.8669C61.3674 27.1777 61.4908 27.4758 61.7106 27.6956C61.9304 27.9154 62.2284 28.0388 62.5392 28.0388C63.8563 28.039 67.6802 28.2418 69.5331 29.1682C69.8102 29.2992 70.1275 29.3166 70.4172 29.2165C70.7068 29.1164 70.9458 28.9069 71.0828 28.6328C71.2199 28.3586 71.2441 28.0418 71.1504 27.75C71.0566 27.4582 70.8523 27.2148 70.5813 27.0718Z" fill="#757575"/>
<path d="M76.4237 43.7563L71.5839 42.3735C71.4819 42.344 71.3921 42.2822 71.3281 42.1974C71.2642 42.1126 71.2294 42.0093 71.2291 41.9031V40.2876C71.6272 40.0126 72.0019 39.7052 72.3495 39.3687C74.0511 37.7174 74.9881 35.5026 74.9881 33.132V30.9028L75.4561 29.967C75.971 28.9338 76.2397 27.7954 76.2411 26.641V20.602C76.2411 20.2912 76.1176 19.9931 75.8979 19.7733C75.6781 19.5536 75.38 19.4301 75.0692 19.4301H63.7922C59.6916 19.4301 56.3553 22.7663 56.3553 26.867V26.9368C56.3565 27.8967 56.5799 28.8432 57.0081 29.7023L57.6083 30.9026V32.8167C57.6083 35.8501 59.1031 38.5718 61.3673 40.2096L61.3677 41.9028C61.3677 42.1638 61.3677 42.272 60.4 42.5485L58.0384 43.2232L51.207 40.7392C51.2196 40.5756 51.1977 40.4112 51.1427 40.2566C51.0877 40.1021 51.0008 39.9608 50.8877 39.842L48.7047 37.5485V33.6985C48.9372 33.5085 49.1635 33.311 49.3834 33.1065C52.1373 30.5253 53.7167 26.8809 53.7167 23.1079V20.0332C54.5483 18.2237 54.9697 16.3088 54.9697 14.3368V1.80713C54.9697 1.49633 54.8462 1.19826 54.6265 0.978488C54.4067 0.758719 54.1086 0.635254 53.7978 0.635254H36.2558C30.0823 0.635254 25.06 5.65775 25.06 11.831V14.3371C25.06 16.3092 25.4814 18.224 26.313 20.0335V22.679C26.313 27.0596 28.2608 31.0062 31.325 33.6081V37.5487L29.142 39.8421C29.0289 39.9609 28.942 40.1022 28.887 40.2568C28.832 40.4113 28.81 40.5757 28.8227 40.7393L21.6125 43.361C21.0979 43.5484 20.6107 43.8037 20.1638 44.1201L19.0316 43.554C22.4019 42.087 23.4695 40.0237 23.5208 39.9212C23.6022 39.7585 23.6445 39.5791 23.6445 39.3971C23.6445 39.2152 23.6022 39.0358 23.5208 38.8731C22.6759 37.1834 22.5736 34.0863 22.4914 31.5979C22.4641 30.7695 22.4381 29.9868 22.3886 29.2899C21.9891 23.669 17.7159 19.4301 12.4487 19.4301C7.18156 19.4301 2.90828 23.6688 2.50891 29.2899C2.45937 29.987 2.43344 30.7696 2.40609 31.5982C2.32391 34.0865 2.22141 37.1832 1.37672 38.8729C1.29534 39.0356 1.25297 39.215 1.25297 39.397C1.25297 39.5789 1.29534 39.7583 1.37672 39.921C1.42797 40.0235 2.49344 42.0826 5.87047 43.5513L2.72563 45.1237C1.04438 45.9649 0 47.6548 0 49.5343V58.192C0 58.5028 0.123465 58.8008 0.343234 59.0206C0.563003 59.2404 0.861074 59.3638 1.17188 59.3638C1.48268 59.3638 1.78075 59.2404 2.00052 59.0206C2.22028 58.8008 2.34375 58.5028 2.34375 58.192V49.5343C2.34375 48.5481 2.89172 47.6613 3.77375 47.2203L7.68984 45.2623L9.05203 46.5568C9.96753 47.4293 11.1841 47.9155 12.4487 47.9143C13.7134 47.9154 14.9299 47.4292 15.8455 46.5568L17.2075 45.2624L18.4844 45.9009C17.8831 46.8629 17.5419 47.991 17.5419 49.1728V58.1923C17.5419 58.5031 17.6653 58.8012 17.8851 59.0209C18.1049 59.2407 18.4029 59.3642 18.7137 59.3642C19.0246 59.3642 19.3226 59.2407 19.5424 59.0209C19.7622 58.8012 19.8856 58.5031 19.8856 58.1923V49.1728C19.8856 47.564 20.9014 46.1137 22.4134 45.5638L30.0153 42.7996L33.1798 47.5467C33.3784 47.8456 33.641 48.0965 33.9487 48.2813C34.2563 48.466 34.6013 48.5799 34.9584 48.6146C35.3155 48.6507 35.6762 48.6067 36.0141 48.4859C36.3521 48.3651 36.6589 48.1705 36.9122 47.9162L38.8428 45.9856V58.1924C38.8428 58.5032 38.9663 58.8013 39.186 59.0211C39.4058 59.2408 39.7039 59.3643 40.0147 59.3643C40.3255 59.3643 40.6236 59.2408 40.8433 59.0211C41.0631 58.8013 41.1866 58.5032 41.1866 58.1924V45.9856L43.1172 47.9162C43.3417 48.1416 43.6085 48.3203 43.9023 48.4423C44.1961 48.5642 44.5111 48.6269 44.8292 48.6267C44.9094 48.6267 44.99 48.6228 45.0708 48.6148C45.428 48.5801 45.7729 48.4662 46.0806 48.2815C46.3883 48.0967 46.651 47.8458 46.8495 47.5468L50.0142 42.7999L57.6159 45.5642C59.1278 46.114 60.1438 47.5643 60.1438 49.1731V58.1926C60.1438 58.5034 60.2672 58.8015 60.487 59.0212C60.7068 59.241 61.0048 59.3645 61.3156 59.3645C61.6264 59.3645 61.9245 59.241 62.1443 59.0212C62.364 58.8015 62.4875 58.5034 62.4875 58.1926V49.1731C62.4875 47.5437 61.8402 46.0156 60.7542 44.8854L61.0437 44.8028C61.3358 44.7193 61.7342 44.6051 62.1342 44.409L65.1263 47.401V58.1926C65.1263 58.5034 65.2497 58.8015 65.4695 59.0212C65.6893 59.241 65.9873 59.3645 66.2981 59.3645C66.6089 59.3645 66.907 59.241 67.1268 59.0212C67.3465 58.8015 67.47 58.5034 67.47 58.1926V47.401L70.4413 44.4298C70.5992 44.5101 70.7652 44.5779 70.9398 44.6278L75.7798 46.0106C76.8845 46.3262 77.6562 47.3492 77.6562 48.4982V58.1926C77.6562 58.5034 77.7797 58.8015 77.9995 59.0212C78.2193 59.241 78.5173 59.3645 78.8281 59.3645C79.1389 59.3645 79.437 59.241 79.6568 59.0212C79.8765 58.8015 80 58.5034 80 58.1926V48.4982C80 46.3079 78.5294 44.3581 76.4237 43.7563ZM7.51797 41.6865C5.32594 40.8978 4.22641 39.8462 3.75703 39.272C4.07703 38.4354 4.28453 37.4773 4.425 36.4659C5.07125 38.0154 6.15359 39.3382 7.51797 40.282V41.6865ZM14.2313 44.8581C13.2317 45.8078 11.6659 45.8076 10.6667 44.8579L9.57687 43.8223C9.76461 43.4701 9.8625 43.077 9.86188 42.6779V41.4288C10.6994 41.6902 11.5717 41.8228 12.4491 41.8221C13.3486 41.8221 14.2172 41.6837 15.0361 41.4296L15.0359 42.6778C15.0359 43.0871 15.1369 43.4779 15.3209 43.8226L14.2313 44.8581ZM12.4494 39.4784C8.95 39.4784 6.10328 36.6315 6.10328 33.1323C6.10328 32.8215 5.97982 32.5234 5.76005 32.3036C5.54028 32.0839 5.24221 31.9604 4.93141 31.9604C4.86578 31.9604 4.80172 31.9671 4.73906 31.9776L4.74922 31.676C4.77531 30.8703 4.80047 30.1092 4.84688 29.4563C4.99656 27.3507 5.83797 25.4104 7.21609 23.9926C8.60656 22.562 10.465 21.7742 12.4491 21.7742C14.4331 21.7742 16.2914 22.562 17.682 23.9926C19.0602 25.4104 19.9016 27.3507 20.0513 29.4563C20.0975 30.109 20.1228 30.8699 20.1494 31.6756L20.1564 31.8846C18.8814 29.9203 16.9123 28.4726 14.3681 27.6551C12.0177 26.8999 9.99609 26.9467 9.91078 26.9488C9.60397 26.9574 9.31274 27.0859 9.09969 27.3068L6.98531 29.4996C6.87849 29.6104 6.79453 29.7411 6.73824 29.8844C6.68194 30.0276 6.65441 30.1805 6.65721 30.3344C6.66001 30.4883 6.69309 30.6401 6.75456 30.7812C6.81603 30.9222 6.90469 31.0498 7.01547 31.1567C7.12625 31.2635 7.25699 31.3474 7.40022 31.4037C7.54345 31.46 7.69636 31.4876 7.85023 31.4848C8.0041 31.482 8.15591 31.4489 8.297 31.3874C8.43808 31.3259 8.56568 31.2373 8.6725 31.1265L10.4319 29.302C11.947 29.376 16.8216 29.9429 18.7173 34.1174C18.2403 37.1937 15.5963 39.4784 12.4494 39.4784ZM17.3795 41.6904L17.3797 40.2928C18.758 39.3446 19.8325 38.0179 20.4736 36.4726C20.6141 37.4817 20.8214 38.4376 21.1408 39.2723C20.6741 39.841 19.5694 40.902 17.3795 41.6904ZM28.6567 22.6788V19.7713C28.6567 19.5949 28.6169 19.4207 28.5402 19.2618C27.7861 17.7003 27.4038 16.0434 27.4038 14.3371V11.8312C27.4038 6.9501 31.3748 2.97916 36.2558 2.97916H52.6259V14.3373C52.6259 16.0435 52.2436 17.7004 51.4895 19.262C51.4128 19.4209 51.373 19.5951 51.373 19.7715V23.1082C51.373 26.2818 50.0972 29.2254 47.7806 31.3968C47.4938 31.6657 47.1935 31.92 46.8809 32.1585C46.8741 32.1632 46.8675 32.1684 46.8608 32.1732C44.6906 33.8209 42.0325 34.6217 39.2566 34.4418C33.3127 34.057 28.6567 28.8901 28.6567 22.6788ZM35.255 46.2587C35.2469 46.2668 35.228 46.286 35.1897 46.282C35.1776 46.2813 35.1659 46.2777 35.1555 46.2714C35.1451 46.2652 35.1364 46.2565 35.1302 46.2462L31.4856 40.7793L32.6584 39.547L38.1873 43.3262L35.255 46.2587ZM40.0148 41.7363L33.6687 37.3985V35.211C35.3108 36.0987 37.1494 36.6538 39.1048 36.7804C39.4137 36.8004 39.7208 36.8103 40.0269 36.8103C42.2677 36.8103 44.4242 36.2746 46.3609 35.2579V37.3985L40.0148 41.7363ZM44.8995 46.2465C44.8933 46.2569 44.8846 46.2655 44.8742 46.2718C44.8638 46.278 44.8521 46.2816 44.84 46.2823C44.8017 46.2871 44.783 46.267 44.7747 46.259L41.8423 43.3267L47.3712 39.5473L48.5442 40.7796L44.8995 46.2465ZM66.2981 45.2578L63.6387 42.5985C63.6852 42.3878 63.7114 42.157 63.7113 41.9024L63.7111 41.4079C64.5468 41.6838 65.4215 41.8236 66.3016 41.822C67.1776 41.8225 68.0486 41.6907 68.8853 41.4312V41.9031C68.8853 42.1368 68.9147 42.3659 68.97 42.586L66.2981 45.2578ZM70.7173 37.6868C69.4753 38.8921 67.8345 39.5287 66.1022 39.4753C62.7109 39.3735 59.952 36.3865 59.952 32.817V30.6262C59.9521 30.4443 59.9097 30.2648 59.8283 30.1021L59.1044 28.6543C58.8385 28.1208 58.6998 27.533 58.6991 26.937V26.8671C58.6991 24.0587 60.9839 21.774 63.7922 21.774H73.8973V26.6412C73.8964 27.4318 73.7124 28.2114 73.3597 28.919L72.7681 30.1021C72.6867 30.2648 72.6444 30.4443 72.6444 30.6262V33.1321C72.6444 34.8634 71.96 36.4809 70.7173 37.6868Z" fill="#757575"/>
<path d="M73.8161 49.502C73.5053 49.502 73.2072 49.6255 72.9874 49.8453C72.7677 50.065 72.6442 50.3631 72.6442 50.6739V58.1919C72.6442 58.5027 72.7677 58.8007 72.9874 59.0205C73.2072 59.2403 73.5053 59.3637 73.8161 59.3637C74.1269 59.3637 74.425 59.2403 74.6447 59.0205C74.8645 58.8007 74.988 58.5027 74.988 58.1919V50.6739C74.988 50.3631 74.8645 50.065 74.6447 49.8453C74.425 49.6255 74.1269 49.502 73.8161 49.502ZM6.1839 51.0511C5.8731 51.0511 5.57503 51.1746 5.35526 51.3943C5.13549 51.6141 5.01202 51.9122 5.01202 52.223V58.1919C5.01202 58.5027 5.13549 58.8007 5.35526 59.0205C5.57503 59.2403 5.8731 59.3637 6.1839 59.3637C6.4947 59.3637 6.79277 59.2403 7.01254 59.0205C7.23231 58.8007 7.35577 58.5027 7.35577 58.1919V52.223C7.35577 51.9122 7.23231 51.6141 7.01254 51.3943C6.79277 51.1746 6.4947 51.0511 6.1839 51.0511ZM49.6144 14.7616C45.1822 10.3294 35.9089 11.1767 32.1273 11.7467C30.9362 11.9262 30.0719 12.9342 30.0719 14.1434V16.8431C30.0719 17.1539 30.1953 17.452 30.4151 17.6718C30.6349 17.8915 30.9329 18.015 31.2437 18.015C31.5545 18.015 31.8526 17.8915 32.0724 17.6718C32.2922 17.452 32.4156 17.1539 32.4156 16.8431V14.1433C32.4156 14.1034 32.4419 14.0694 32.4769 14.0641C33.9873 13.8364 36.9847 13.4852 40.0901 13.6922C43.7445 13.9355 46.3914 14.8528 47.9572 16.4187C48.1769 16.6385 48.475 16.7619 48.7858 16.7619C49.0966 16.7619 49.3946 16.6385 49.6144 16.4187C49.8341 16.199 49.9576 15.9009 49.9576 15.5902C49.9576 15.2794 49.8341 14.9813 49.6144 14.7616ZM26.2319 52.0081C25.9211 52.0081 25.623 52.1316 25.4032 52.3514C25.1835 52.5711 25.06 52.8692 25.06 53.18V58.192C25.06 58.5028 25.1835 58.8009 25.4032 59.0207C25.623 59.2404 25.9211 59.3639 26.2319 59.3639C26.5427 59.3639 26.8407 59.2404 27.0605 59.0207C27.2803 58.8009 27.4037 58.5028 27.4037 58.192V53.18C27.4037 52.8692 27.2803 52.5711 27.0605 52.3514C26.8407 52.1316 26.5427 52.0081 26.2319 52.0081ZM53.7978 52.0081C53.487 52.0081 53.1889 52.1316 52.9692 52.3514C52.7494 52.5711 52.6259 52.8692 52.6259 53.18V58.192C52.6259 58.5028 52.7494 58.8009 52.9692 59.0207C53.1889 59.2404 53.487 59.3639 53.7978 59.3639C54.1086 59.3639 54.4067 59.2404 54.6264 59.0207C54.8462 58.8009 54.9697 58.5028 54.9697 58.192V53.18C54.9697 52.8692 54.8462 52.5711 54.6264 52.3514C54.4067 52.1316 54.1086 52.0081 53.7978 52.0081Z" fill="#757575"/>
</svg>
