<svg width="70" height="70" viewBox="0 0 70 70" fill="none" xmlns="http://www.w3.org/2000/svg">
<path d="M18.9662 26.1212C22.4292 26.1179 25.7494 24.7409 28.1983 22.2925C30.6472 19.8441 32.0248 16.5241 32.0287 13.0612C31.3087 -4.2663 6.62 -4.26255 5.905 13.0625C5.90897 16.525 7.2862 19.8445 9.73457 22.2929C12.1829 24.7412 15.5025 26.1185 18.965 26.1225L18.9662 26.1212ZM18.9662 2.49995C21.7668 2.5026 24.4519 3.61628 26.4321 5.59656C28.4124 7.57684 29.5261 10.2619 29.5287 13.0625C28.9962 27.0512 8.935 27.0487 8.40625 13.0625C8.4089 10.2623 9.52223 7.57765 11.502 5.59744C13.4817 3.61723 16.1661 2.50326 18.9662 2.49995Z" fill="#3395FF"/>
<path d="M18.9662 17.545C17.3825 17.545 16.2787 16.6925 16.2787 15.9275C16.2787 15.596 16.1471 15.2781 15.9126 15.0436C15.6782 14.8092 15.3603 14.6775 15.0287 14.6775C14.6972 14.6775 14.3793 14.8092 14.1449 15.0436C13.9104 15.2781 13.7787 15.596 13.7787 15.9275C13.8639 16.9483 14.3048 17.9068 15.0244 18.6358C15.744 19.3647 16.6967 19.8179 17.7162 19.9163V20.935C17.7162 21.2665 17.8479 21.5845 18.0824 21.8189C18.3168 22.0533 18.6347 22.185 18.9662 22.185C19.2978 22.185 19.6157 22.0533 19.8501 21.8189C20.0846 21.5845 20.2162 21.2665 20.2162 20.935V19.9163C21.2356 19.8177 22.188 19.3646 22.9075 18.636C23.627 17.9073 24.0681 16.9492 24.1537 15.9288C24.1537 13.6188 21.875 11.8113 18.9662 11.8113C17.3825 11.8113 16.2787 10.96 16.2787 10.1938C16.4113 8.08128 21.5225 8.07878 21.6537 10.1938C21.6537 10.5253 21.7854 10.8432 22.0199 11.0777C22.2543 11.3121 22.5722 11.4438 22.9037 11.4438C23.2353 11.4438 23.5532 11.3121 23.7876 11.0777C24.0221 10.8432 24.1537 10.5253 24.1537 10.1938C24.0681 9.17331 23.627 8.21527 22.9075 7.48659C22.188 6.75792 21.2356 6.30483 20.2162 6.20628V5.18628C20.2162 4.85476 20.0846 4.53682 19.8501 4.3024C19.6157 4.06797 19.2978 3.93628 18.9662 3.93628C18.6347 3.93628 18.3168 4.06797 18.0824 4.3024C17.8479 4.53682 17.7162 4.85476 17.7162 5.18628V6.20503C11.7687 7.41753 12.9487 14.32 18.9662 14.3113C22.4937 14.4038 22.4912 17.4525 18.9662 17.545ZM7.965 41.6475L6.60625 42.3138C6.30854 42.4596 6.08098 42.7178 5.97361 43.0315C5.86625 43.3451 5.88788 43.6886 6.03375 43.9863C6.17962 44.284 6.43778 44.5116 6.75143 44.6189C7.06508 44.7263 7.40854 44.7046 7.70625 44.5588C24.4152 36.6226 39.3118 25.3321 51.4688 11.39V13.0613C51.4688 13.3928 51.6004 13.7107 51.8349 13.9452C52.0693 14.1796 52.3872 14.3113 52.7188 14.3113C53.0503 14.3113 53.3682 14.1796 53.6026 13.9452C53.8371 13.7107 53.9688 13.3928 53.9688 13.0613V8.00003C53.9549 7.67294 53.8188 7.36295 53.5873 7.13146C53.3558 6.89996 53.0458 6.76383 52.7188 6.75003H47.6575C47.326 6.75003 47.008 6.88172 46.7736 7.11615C46.5392 7.35057 46.4075 7.66851 46.4075 8.00003C46.4075 8.33155 46.5392 8.64949 46.7736 8.88391C47.008 9.11833 47.326 9.25003 47.6575 9.25003H50.0112C38.3354 22.7868 24.0306 33.8099 7.965 41.65V41.6475ZM67.9075 67.5H64.095V23.1863C64.095 22.8548 63.9633 22.5368 63.7289 22.3024C63.4945 22.068 63.1765 21.9363 62.845 21.9363H52.72C52.3885 21.9363 52.0705 22.068 51.8361 22.3024C51.6017 22.5368 51.47 22.8548 51.47 23.1863V67.5H48.9062V33.3125C48.9062 32.981 48.7746 32.6631 48.5401 32.4286C48.3057 32.1942 47.9878 32.0625 47.6562 32.0625H37.5312C37.1997 32.0625 36.8818 32.1942 36.6474 32.4286C36.4129 32.6631 36.2812 32.981 36.2812 33.3125V67.5H33.7188V43.4363C33.7188 43.1048 33.5871 42.7868 33.3526 42.5524C33.1182 42.318 32.8003 42.1863 32.4688 42.1863H22.3438C22.0122 42.1863 21.6943 42.318 21.4599 42.5524C21.2254 42.7868 21.0938 43.1048 21.0938 43.4363V67.5H18.5312V53.5625C18.5312 53.231 18.3996 52.9131 18.1651 52.6786C17.9307 52.4442 17.6128 52.3125 17.2812 52.3125H7.15625C6.82473 52.3125 6.50679 52.4442 6.27237 52.6786C6.03794 52.9131 5.90625 53.231 5.90625 53.5625V67.5H2.0925C1.76098 67.5 1.44304 67.6317 1.20862 67.8661C0.974195 68.1006 0.842499 68.4185 0.842499 68.75C0.842499 69.0815 0.974195 69.3995 1.20862 69.6339C1.44304 69.8683 1.76098 70 2.0925 70H67.9075C68.239 70 68.557 69.8683 68.7914 69.6339C69.0258 69.3995 69.1575 69.0815 69.1575 68.75C69.1575 68.4185 69.0258 68.1006 68.7914 67.8661C68.557 67.6317 68.239 67.5 67.9075 67.5ZM8.40625 67.5V54.8125H16.0312V67.5H8.40625ZM23.5938 67.5V44.6863H31.2188V67.5H23.5938ZM38.7812 67.5V34.5625H46.4062V67.5H38.7812ZM53.9712 67.5V24.4363H61.5962V67.5H53.9712Z" fill="#3395FF"/>
</svg>
