<svg width="25" height="24" viewBox="0 0 25 24" fill="none" xmlns="http://www.w3.org/2000/svg">
<path d="M21.3596 9.99999V7.99999C21.3593 7.64927 21.2667 7.3048 21.0912 7.00116C20.9156 6.69751 20.6634 6.44536 20.3596 6.26999L13.3596 2.26999C13.0556 2.09446 12.7107 2.00204 12.3596 2.00204C12.0085 2.00204 11.6637 2.09446 11.3596 2.26999L4.35962 6.26999C4.05588 6.44536 3.8036 6.69751 3.62808 7.00116C3.45256 7.3048 3.35998 7.64927 3.35962 7.99999V16C3.35998 16.3507 3.45256 16.6952 3.62808 16.9988C3.8036 17.3025 4.05588 17.5546 4.35962 17.73L11.3596 21.73C11.6637 21.9055 12.0085 21.9979 12.3596 21.9979C12.7107 21.9979 13.0556 21.9055 13.3596 21.73L15.3596 20.59" stroke="#4D8630" stroke-width="2" stroke-linecap="round" stroke-linejoin="round"/>
<path d="M7.85962 4.26999L16.8596 9.41999" stroke="#4D8630" stroke-width="2" stroke-linecap="round" stroke-linejoin="round"/>
<path d="M3.64966 7L12.3597 12L21.0697 7" stroke="#4D8630" stroke-width="2" stroke-linecap="round" stroke-linejoin="round"/>
<path d="M12.3596 22V12" stroke="#4D8630" stroke-width="2" stroke-linecap="round" stroke-linejoin="round"/>
<path d="M18.8596 18C20.2403 18 21.3596 16.8807 21.3596 15.5C21.3596 14.1193 20.2403 13 18.8596 13C17.4789 13 16.3596 14.1193 16.3596 15.5C16.3596 16.8807 17.4789 18 18.8596 18Z" stroke="#4D8630" stroke-width="2" stroke-linecap="round" stroke-linejoin="round"/>
<path d="M20.6296 17.27L22.3596 19" stroke="#4D8630" stroke-width="2" stroke-linecap="round" stroke-linejoin="round"/>
</svg>
