<svg width="78" height="78" viewBox="0 0 78 78" fill="none" xmlns="http://www.w3.org/2000/svg">
<path d="M28.0503 33.7217C28.0503 34.0118 28.1655 34.29 28.3707 34.4951C28.5758 34.7002 28.854 34.8155 29.1441 34.8155H36.2294C36.5195 34.8155 36.7977 34.7002 37.0028 34.4951C37.2079 34.29 37.3231 34.0118 37.3231 33.7217V27.5556C37.3231 27.2655 37.2079 26.9873 37.0028 26.7822C36.7977 26.5771 36.5195 26.4619 36.2294 26.4619H29.1441C28.854 26.4619 28.5758 26.5771 28.3707 26.7822C28.1655 26.9873 28.0503 27.2655 28.0503 27.5556V33.7217ZM30.2378 28.6494H35.1356V32.628H30.2378V28.6494ZM49.9497 27.5556C49.9497 27.2655 49.8345 26.9873 49.6293 26.7822C49.4242 26.5771 49.146 26.4619 48.8559 26.4619H41.7706C41.4805 26.4619 41.2023 26.5771 40.9972 26.7822C40.7921 26.9873 40.6769 27.2655 40.6769 27.5556V33.7217C40.6769 34.0118 40.7921 34.29 40.9972 34.4951C41.2023 34.7002 41.4805 34.8155 41.7706 34.8155H48.8559C49.146 34.8155 49.4242 34.7002 49.6293 34.4951C49.8345 34.29 49.9497 34.0118 49.9497 33.7217V27.5556ZM47.7622 32.628H42.8644V28.6494H47.7622V32.628ZM76.9137 32.7956L54.6552 23.6983V13.0894C54.6552 12.7993 54.5399 12.5211 54.3348 12.316C54.1297 12.1109 53.8515 11.9956 53.5614 11.9956H46.6759V7.58078C46.6759 7.2907 46.5607 7.0125 46.3556 6.80738C46.1505 6.60226 45.8723 6.48703 45.5822 6.48703H40.0938V1.5C40.0938 1.20992 39.9785 0.93172 39.7734 0.726602C39.5683 0.521484 39.2901 0.40625 39 0.40625C38.7099 0.40625 38.4317 0.521484 38.2266 0.726602C38.0215 0.93172 37.9062 1.20992 37.9062 1.5V6.48703H32.3395C32.0495 6.48703 31.7712 6.60226 31.5661 6.80738C31.361 7.0125 31.2458 7.2907 31.2458 7.58078V11.9956H24.4386C24.1485 11.9956 23.8703 12.1109 23.6652 12.316C23.4601 12.5211 23.3448 12.7993 23.3448 13.0894V23.6983L1.08625 32.7956C0.88519 32.8778 0.713148 33.018 0.592046 33.1983C0.470944 33.3786 0.406265 33.5909 0.40625 33.8081V72.6834C0.40625 72.9735 0.521484 73.2517 0.726602 73.4568C0.93172 73.6619 1.20992 73.7772 1.5 73.7772C1.79008 73.7772 2.06828 73.6619 2.2734 73.4568C2.47852 73.2517 2.59375 72.9735 2.59375 72.6834V34.5427L23.3448 26.0614V60.8683C23.3448 61.1584 23.4601 61.4366 23.6652 61.6417C23.8703 61.8468 24.1485 61.962 24.4386 61.962C24.7287 61.962 25.0069 61.8468 25.212 61.6417C25.4171 61.4366 25.5323 61.1584 25.5323 60.8683V14.1831H52.4678V60.7758C52.4678 61.0659 52.583 61.3441 52.7882 61.5492C52.9933 61.7543 53.2715 61.8695 53.5616 61.8695C53.8516 61.8695 54.1298 61.7543 54.335 61.5492C54.5401 61.3441 54.6553 61.0659 54.6553 60.7758V26.0614L75.4062 34.5427V72.6834C75.4062 72.9735 75.5215 73.2517 75.7266 73.4568C75.9317 73.6619 76.2099 73.7772 76.5 73.7772C76.7901 73.7772 77.0683 73.6619 77.2734 73.4568C77.4785 73.2517 77.5938 72.9735 77.5938 72.6834V33.8081C77.5937 33.5909 77.5291 33.3786 77.408 33.1983C77.2868 33.018 77.1148 32.8778 76.9137 32.7956ZM33.4333 8.67453H44.4884V11.9956H33.4333V8.67453ZM71.2575 42.2828C71.4236 42.3505 71.6037 42.3763 71.7821 42.3579C71.9605 42.3396 72.1316 42.2776 72.2804 42.1776C72.4292 42.0775 72.5512 41.9424 72.6355 41.7841C72.7198 41.6259 72.7639 41.4493 72.7639 41.27V36.9334C72.7639 36.716 72.6991 36.5036 72.5778 36.3231C72.4565 36.1427 72.2841 36.0025 72.0828 35.9205L58.8041 30.5123C58.638 30.4448 58.4578 30.419 58.2795 30.4374C58.1011 30.4558 57.93 30.5178 57.7812 30.6178C57.6324 30.7179 57.5105 30.853 57.4262 31.0112C57.3419 31.1695 57.2977 31.346 57.2977 31.5253V35.8619C57.2977 36.0793 57.3625 36.2918 57.4838 36.4722C57.6051 36.6526 57.7774 36.7928 57.9787 36.8748L71.2575 42.2828ZM59.485 33.1516L70.5762 37.6688V39.6434L59.485 35.1261V33.1516ZM20.2191 30.6175C20.0702 30.5175 19.8991 30.4555 19.7207 30.4372C19.5423 30.4188 19.3622 30.4446 19.1961 30.5122L5.91734 35.9203C5.71599 36.0023 5.54366 36.1425 5.42234 36.3229C5.30103 36.5034 5.23624 36.7159 5.23625 36.9333V41.2698C5.23634 41.4491 5.2805 41.6257 5.36483 41.7839C5.44916 41.9421 5.57109 42.0772 5.71988 42.1772C5.86867 42.2772 6.03976 42.3392 6.21811 42.3576C6.39645 42.376 6.57659 42.3502 6.74266 42.2827L20.0214 36.8745C20.2228 36.7925 20.3951 36.6523 20.5164 36.4719C20.6377 36.2915 20.7025 36.079 20.7025 35.8616V31.525C20.7025 31.3457 20.6584 31.1692 20.5741 31.0109C20.4898 30.8527 20.3678 30.7176 20.2191 30.6175ZM18.515 35.1262L7.42375 39.6436V37.6688L18.515 33.1516V35.1262ZM28.0503 44.2766C28.0503 44.5666 28.1655 44.8448 28.3707 45.05C28.5758 45.2551 28.854 45.3703 29.1441 45.3703H36.2294C36.5195 45.3703 36.7977 45.2551 37.0028 45.05C37.2079 44.8448 37.3231 44.5666 37.3231 44.2766V38.1105C37.3231 37.8204 37.2079 37.5422 37.0028 37.3371C36.7977 37.132 36.5195 37.0167 36.2294 37.0167H29.1441C28.854 37.0167 28.5758 37.132 28.3707 37.3371C28.1655 37.5422 28.0503 37.8204 28.0503 38.1105V44.2766ZM30.2378 39.2042H35.1356V43.1828H30.2378V39.2042ZM49.9497 44.2766V38.1105C49.9497 37.8204 49.8345 37.5422 49.6293 37.3371C49.4242 37.132 49.146 37.0167 48.8559 37.0167H41.7706C41.4805 37.0167 41.2023 37.132 40.9972 37.3371C40.7921 37.5422 40.6769 37.8204 40.6769 38.1105V44.2766C40.6769 44.5666 40.7921 44.8448 40.9972 45.05C41.2023 45.2551 41.4805 45.3703 41.7706 45.3703H48.8559C49.146 45.3703 49.4242 45.2551 49.6293 45.05C49.8345 44.8448 49.9497 44.5666 49.9497 44.2766ZM47.7622 43.1828H42.8644V39.2042H47.7622V43.1828ZM15.7425 49.2898C12.5842 49.2898 10.0148 51.8589 10.0148 55.0169C10.0148 58.1752 12.5842 60.7445 15.7425 60.7445C18.9008 60.7445 21.4702 58.1752 21.4702 55.0169C21.4703 51.8591 18.9008 49.2898 15.7425 49.2898ZM15.7425 58.5572C13.7905 58.5572 12.2023 56.9691 12.2023 55.017C12.2023 53.0653 13.7905 51.4775 15.7425 51.4775C17.6945 51.4775 19.2827 53.0653 19.2827 55.017C19.2828 56.9691 17.6947 58.5572 15.7425 58.5572ZM62.2583 60.6517C65.4166 60.6517 67.9859 58.0823 67.9859 54.9241C67.9859 51.7663 65.4166 49.1972 62.2583 49.1972C59.0998 49.1972 56.5305 51.7663 56.5305 54.9241C56.5303 58.0823 59.0998 60.6517 62.2583 60.6517ZM62.2583 51.3847C64.2103 51.3847 65.7984 52.9725 65.7984 54.9241C65.7984 56.8761 64.2103 58.4642 62.2583 58.4642C60.3061 58.4642 58.718 56.8761 58.718 54.9241C58.7178 52.9725 60.3059 51.3847 62.2583 51.3847ZM62.2583 61.1347C56.1266 61.1347 51.138 66.123 51.138 72.2544C51.138 73.497 51.8056 75.2242 54.987 76.3955C56.9234 77.1083 59.5056 77.5009 62.2578 77.5009C65.0102 77.5009 67.5925 77.1083 69.5287 76.3955C72.71 75.2242 73.3778 73.497 73.3778 72.2544C73.3778 66.123 68.3895 61.1347 62.2583 61.1347ZM62.2578 75.3134C57.3327 75.3134 53.3255 73.9413 53.3255 72.2544C53.3255 67.3292 57.3327 63.3222 62.2583 63.3222C67.1834 63.3222 71.1903 67.3292 71.1903 72.2544C71.1903 73.9413 67.1831 75.3134 62.2578 75.3134ZM33.2727 55.017C33.2727 58.1753 35.842 60.7447 39.0003 60.7447C42.1586 60.7447 44.728 58.1753 44.728 55.017C44.728 51.8591 42.1586 49.29 39.0003 49.29C35.842 49.29 33.2727 51.8591 33.2727 55.017ZM42.5405 55.017C42.5405 56.9691 40.9523 58.5572 39.0003 58.5572C37.0483 58.5572 35.4602 56.9691 35.4602 55.017C35.4602 53.0653 37.0483 51.4775 39.0003 51.4775C40.9523 51.4775 42.5405 53.0653 42.5405 55.017ZM39.0003 61.2277C32.8686 61.2277 27.88 66.2159 27.88 72.3472C27.88 73.5898 28.5477 75.317 31.7291 76.4883C33.6653 77.2011 36.2477 77.5938 39 77.5938C41.7522 77.5938 44.3345 77.2011 46.2708 76.4883C49.452 75.317 50.1198 73.5898 50.1198 72.3472C50.1198 66.2159 45.1316 61.2277 39.0003 61.2277ZM39 75.4062C34.0747 75.4062 30.0675 74.0341 30.0675 72.3472C30.0675 67.422 34.0747 63.4152 39.0003 63.4152C43.9255 63.4152 47.9323 67.4222 47.9323 72.3472C47.9323 74.0341 43.9252 75.4062 39 75.4062ZM15.7425 61.2277C9.61078 61.2277 4.62219 66.2159 4.62219 72.3472C4.62219 73.5898 5.28984 75.317 8.47125 76.4883C10.4077 77.2011 12.9898 77.5938 15.7422 77.5938C18.4944 77.5938 21.0767 77.2011 23.013 76.4883C26.1942 75.317 26.862 73.5898 26.862 72.3472C26.862 66.2159 21.8739 61.2277 15.7425 61.2277ZM15.7422 75.4062C10.8169 75.4062 6.80969 74.0341 6.80969 72.3472C6.80969 67.422 10.8169 63.4152 15.7425 63.4152C20.6677 63.4152 24.6745 67.4222 24.6745 72.3472C24.6745 74.0341 20.6675 75.4062 15.7422 75.4062ZM49.9497 17.743C49.9497 17.4529 49.8345 17.1747 49.6293 16.9696C49.4242 16.7645 49.146 16.6492 48.8559 16.6492H29.1441C28.854 16.6492 28.5758 16.7645 28.3707 16.9696C28.1655 17.1747 28.0503 17.4529 28.0503 17.743V22.0795C28.0503 22.3696 28.1655 22.6478 28.3707 22.8529C28.5758 23.058 28.854 23.1733 29.1441 23.1733H48.8559C49.146 23.1733 49.4242 23.058 49.6293 22.8529C49.8345 22.6478 49.9497 22.3696 49.9497 22.0795V17.743ZM47.7622 20.9858H30.2378V18.8367H47.7622V20.9858Z" fill="#3395FF"/>
</svg>
