<svg width="80" height="52" viewBox="0 0 80 52" fill="none" xmlns="http://www.w3.org/2000/svg">
<path d="M69.1888 22.9529C71.5315 21.3067 73.0827 18.5683 73.0827 15.4816C73.0827 10.4321 68.9988 6.34824 63.9493 6.34824C58.8999 6.34824 54.816 10.4321 54.816 15.4816C54.816 18.5683 56.3514 21.3067 58.7099 22.9529C56.6996 23.6494 54.8635 24.7258 53.3122 26.1187C51.1753 24.2984 48.6585 22.9054 45.9042 22.0823C49.2442 20.0562 51.4919 16.368 51.4919 12.1733C51.4919 5.77839 46.3158 0.602295 39.9209 0.602295C33.5259 0.602295 28.3498 5.79422 28.3498 12.1733C28.3498 16.368 30.5817 20.0562 33.9375 22.0823C31.2149 22.9054 28.7297 24.2825 26.6086 26.0712C25.0574 24.7099 23.2529 23.6494 21.2742 22.9687C23.6169 21.3225 25.1682 18.5841 25.1682 15.4974C25.1682 10.448 21.0843 6.36407 16.0348 6.36407C10.9854 6.36407 6.90146 10.448 6.90146 15.4974C6.90146 18.5841 8.43688 21.3225 10.7954 22.9687C4.51128 25.1373 0 31.1049 0 38.1171V39.1619C0 39.1935 0.0316581 39.2252 0.0633162 39.2252H19.4222C19.3114 40.0958 19.2481 40.998 19.2481 41.9003V42.9767C19.2481 47.6304 23.0154 51.3977 27.6692 51.3977H52.2042C56.8579 51.3977 60.6252 47.6304 60.6252 42.9767V41.9003C60.6252 40.998 60.5619 40.0958 60.4511 39.2252H79.9367C79.9683 39.2252 80 39.1935 80 39.1619V38.1171C79.9683 31.089 75.4729 25.1215 69.1888 22.9529ZM57.3486 15.4658C57.3486 11.8251 60.3087 8.86506 63.9493 8.86506C67.59 8.86506 70.5501 11.8251 70.5501 15.4658C70.5501 19.059 67.6533 21.9873 64.076 22.0665H63.8227C60.2295 22.0032 57.3486 19.0748 57.3486 15.4658ZM30.8508 12.1733C30.8508 7.18718 34.903 3.13494 39.8892 3.13494C44.8753 3.13494 48.9276 7.18718 48.9276 12.1733C48.9276 16.9854 45.1444 20.9268 40.4116 21.1959H39.3668C34.634 20.9268 30.8508 16.9854 30.8508 12.1733ZM9.38662 15.4658C9.38662 11.8251 12.3467 8.86506 15.9873 8.86506C19.628 8.86506 22.588 11.8251 22.588 15.4658C22.588 19.059 19.6913 21.9873 16.114 22.0665H15.8607C12.2833 22.0032 9.38662 19.0748 9.38662 15.4658ZM19.8655 36.6767H2.56431C3.27661 29.9335 8.97507 24.6466 15.8924 24.5991H16.0823C19.3748 24.615 22.3823 25.8338 24.7091 27.8124C22.4298 30.2818 20.736 33.3209 19.8655 36.6767ZM58.0609 42.9767C58.0609 46.2216 55.4175 48.8651 52.1725 48.8651H27.6375C24.3926 48.8651 21.7491 46.2216 21.7491 42.9767V41.9003C21.7491 32.0704 29.6003 24.0293 39.3668 23.7444C39.541 23.7602 39.7309 23.7602 39.905 23.7602C40.0791 23.7602 40.2691 23.7602 40.4432 23.7444C50.2097 24.0293 58.0609 32.0704 58.0609 41.9003V42.9767ZM59.9446 36.6767C59.074 33.3368 57.4119 30.3451 55.1484 27.8757C57.4911 25.8496 60.5303 24.6308 63.8544 24.5991H64.0443C70.9616 24.6466 76.6601 29.9335 77.3724 36.6767H59.9446Z" fill="#757575"/>
</svg>
