<svg width="24" height="25" viewBox="0 0 24 25" fill="none" xmlns="http://www.w3.org/2000/svg">
<path d="M23.7123 19.0926V2.42195C23.7123 1.44917 22.9209 0.657715 21.9481 0.657715H2.05188C1.0791 0.657715 0.287697 1.44911 0.287697 2.42195V19.0926C0.287697 20.0654 1.0791 20.8568 2.05188 20.8568H4.53078C4.1922 21.3466 3.99444 21.9314 3.99444 22.5596C3.99444 22.6102 3.996 22.6603 3.99846 22.7103C4.0011 22.7634 4.01458 22.8154 4.03808 22.8632C4.06157 22.9109 4.09458 22.9533 4.13508 22.9878C4.98234 23.7095 6.07704 24.107 7.21758 24.107C7.85706 24.107 8.47416 23.9841 9.05454 23.7446C9.95484 24.2167 10.9726 24.4691 12.0197 24.4691C13.0454 24.4691 14.0351 24.23 14.9162 23.7809C15.4709 23.9965 16.058 24.107 16.6636 24.107C17.8714 24.107 19.0135 23.6673 19.8793 22.8689C19.9181 22.833 19.9493 22.7896 19.9709 22.7412C19.9925 22.6929 20.0041 22.6407 20.0049 22.5877C20.0053 22.5784 20.0055 22.5691 20.0055 22.5596C20.0055 21.9314 19.8078 21.3466 19.4692 20.8568H21.9481C22.9209 20.8568 23.7123 20.0654 23.7123 19.0926ZM2.05188 1.43771H21.9481C22.4908 1.43771 22.9323 1.87925 22.9323 2.42195V4.6143H1.0677V2.42189C1.0677 1.87925 1.50918 1.43771 2.05188 1.43771ZM7.21758 23.327C6.32178 23.327 5.46132 23.0356 4.77516 22.5032C4.80738 21.2422 5.91732 20.2255 7.27704 20.2255C7.65308 20.2253 8.02485 20.3052 8.3676 20.4599C7.9974 21.0626 7.78416 21.7621 7.78416 22.5082C7.78416 22.5701 7.7859 22.6348 7.78938 22.7056C7.79202 22.7588 7.80551 22.8108 7.82902 22.8585C7.85252 22.9063 7.88555 22.9487 7.92606 22.9832C8.01705 23.0601 8.11029 23.1344 8.20566 23.2058C7.88251 23.2866 7.55066 23.3273 7.21758 23.327ZM8.56416 22.4985C8.5698 20.6791 10.1539 19.2005 12.1004 19.2005C13.9992 19.2005 15.5533 20.6078 15.6333 22.3664C14.6447 23.2207 13.3685 23.6891 12.0197 23.6891C10.7488 23.6891 9.52866 23.2675 8.56416 22.4985ZM16.6636 23.327C16.3685 23.327 16.079 23.2951 15.797 23.234C15.9684 23.1065 16.133 22.9701 16.2902 22.8254C16.3296 22.7888 16.361 22.7446 16.3827 22.6953C16.4043 22.6461 16.4156 22.593 16.4159 22.5392C16.4164 22.5289 16.4166 22.5186 16.4166 22.5082C16.4166 21.7345 16.1885 21.0106 15.7926 20.393C16.0903 20.2822 16.4053 20.2255 16.723 20.2255C18.0498 20.2255 19.1389 21.1937 19.2206 22.4099C18.5165 23.0026 17.6153 23.327 16.6636 23.327ZM21.9481 20.0768H18.7015C18.151 19.681 17.4655 19.4455 16.723 19.4455C16.2256 19.4455 15.7344 19.5529 15.2902 19.7573C14.5001 18.9365 13.3627 18.4205 12.1004 18.4205C10.8039 18.4205 9.64002 18.9655 8.84814 19.8253C8.36802 19.5767 7.82832 19.4455 7.27704 19.4455C6.53448 19.4455 5.84904 19.681 5.29842 20.0768H2.05188C1.50918 20.0768 1.0677 19.6353 1.0677 19.0926V5.3943H22.9323V19.0926C22.9323 19.6353 22.4908 20.0768 21.9481 20.0768Z" fill="black"/>
<path d="M2.8491 3.42453H3.00138C3.10481 3.42453 3.20401 3.38344 3.27715 3.3103C3.35029 3.23716 3.39138 3.13797 3.39138 3.03453C3.39138 2.9311 3.35029 2.8319 3.27715 2.75876C3.20401 2.68562 3.10481 2.64453 3.00138 2.64453H2.8491C2.74566 2.64453 2.64646 2.68562 2.57332 2.75876C2.50019 2.8319 2.4591 2.9311 2.4591 3.03453C2.4591 3.13797 2.50019 3.23716 2.57332 3.3103C2.64646 3.38344 2.74566 3.42453 2.8491 3.42453ZM6.12246 3.42453H6.27468C6.37811 3.42453 6.47731 3.38344 6.55045 3.3103C6.62359 3.23716 6.66468 3.13797 6.66468 3.03453C6.66468 2.9311 6.62359 2.8319 6.55045 2.75876C6.47731 2.68562 6.37811 2.64453 6.27468 2.64453H6.12246C6.01902 2.64453 5.91982 2.68562 5.84669 2.75876C5.77355 2.8319 5.73246 2.9311 5.73246 3.03453C5.73246 3.13797 5.77355 3.23716 5.84669 3.3103C5.91982 3.38344 6.01902 3.42453 6.12246 3.42453ZM4.48578 3.42453H4.63806C4.74149 3.42453 4.84069 3.38344 4.91383 3.3103C4.98697 3.23716 5.02806 3.13797 5.02806 3.03453C5.02806 2.9311 4.98697 2.8319 4.91383 2.75876C4.84069 2.68562 4.74149 2.64453 4.63806 2.64453H4.48578C4.38234 2.64453 4.28314 2.68562 4.21001 2.75876C4.13687 2.8319 4.09578 2.9311 4.09578 3.03453C4.09578 3.13797 4.13687 3.23716 4.21001 3.3103C4.28314 3.38344 4.38234 3.42453 4.48578 3.42453ZM12.264 3.42453H20.6542C20.7576 3.42453 20.8568 3.38344 20.9299 3.3103C21.0031 3.23716 21.0442 3.13797 21.0442 3.03453C21.0442 2.9311 21.0031 2.8319 20.9299 2.75876C20.8568 2.68562 20.7576 2.64453 20.6542 2.64453H12.264C12.1606 2.64453 12.0614 2.68562 11.9882 2.75876C11.9151 2.8319 11.874 2.9311 11.874 3.03453C11.874 3.13797 11.9151 3.23716 11.9882 3.3103C12.0614 3.38344 12.1606 3.42453 12.264 3.42453ZM12.0197 12.6944C10.5629 12.6944 9.37782 13.8796 9.37782 15.3363C9.37782 16.7931 10.5629 17.9782 12.0197 17.9782C13.4764 17.9782 14.6616 16.7931 14.6616 15.3363C14.6616 13.8796 13.4764 12.6944 12.0197 12.6944ZM12.0197 17.1982C10.9931 17.1982 10.1578 16.363 10.1578 15.3363C10.1578 14.3097 10.993 13.4744 12.0197 13.4744C13.0463 13.4744 13.8816 14.3096 13.8816 15.3363C13.8816 16.3629 13.0464 17.1982 12.0197 17.1982ZM16.6636 15.1335C15.5336 15.1335 14.6146 16.0527 14.6146 17.1825C14.6146 18.3123 15.5336 19.2317 16.6636 19.2317C17.7935 19.2317 18.7126 18.3125 18.7126 17.1825C18.7126 16.0526 17.7934 15.1335 16.6636 15.1335ZM16.6636 18.4517C15.9638 18.4517 15.3946 17.8823 15.3946 17.1825C15.3946 16.4828 15.9638 15.9135 16.6636 15.9135C17.3633 15.9135 17.9326 16.4828 17.9326 17.1825C17.9326 17.8823 17.3633 18.4517 16.6636 18.4517ZM7.21758 15.1335C6.08772 15.1335 5.16858 16.0527 5.16858 17.1825C5.16858 18.3123 6.08772 19.2317 7.21758 19.2317C8.34744 19.2317 9.26664 18.3125 9.26664 17.1825C9.26664 16.0526 8.34744 15.1335 7.21758 15.1335ZM7.21758 18.4517C6.51786 18.4517 5.94858 17.8823 5.94858 17.1825C5.94858 16.4828 6.51786 15.9135 7.21758 15.9135C7.91736 15.9135 8.48664 16.4828 8.48664 17.1825C8.48664 17.8823 7.91736 18.4517 7.21758 18.4517ZM3.91926 7.82997H6.41244C6.51587 7.82997 6.61507 7.78888 6.68821 7.71574C6.76135 7.6426 6.80244 7.54341 6.80244 7.43997C6.80244 7.33654 6.76135 7.23734 6.68821 7.1642C6.61507 7.09106 6.51587 7.04997 6.41244 7.04997H3.91926C3.81582 7.04997 3.71662 7.09106 3.64348 7.1642C3.57035 7.23734 3.52926 7.33654 3.52926 7.43997C3.52926 7.54341 3.57035 7.6426 3.64348 7.71574C3.71662 7.78888 3.81582 7.82997 3.91926 7.82997ZM19.7533 9.09279H3.91932C3.81588 9.09279 3.71668 9.13388 3.64354 9.20702C3.57041 9.28016 3.52932 9.37936 3.52932 9.48279C3.52932 9.58623 3.57041 9.68542 3.64354 9.75856C3.71668 9.8317 3.81588 9.87279 3.91932 9.87279H19.7533C19.8568 9.87279 19.956 9.8317 20.0291 9.75856C20.1022 9.68542 20.1433 9.58623 20.1433 9.48279C20.1433 9.37936 20.1022 9.28016 20.0291 9.20702C19.956 9.13388 19.8568 9.09279 19.7533 9.09279ZM19.7533 11.1356H17.9785C17.8751 11.1356 17.7759 11.1767 17.7027 11.2498C17.6296 11.323 17.5885 11.4222 17.5885 11.5256C17.5885 11.629 17.6296 11.7282 17.7027 11.8014C17.7759 11.8745 17.8751 11.9156 17.9785 11.9156H19.7533C19.8568 11.9156 19.956 11.8745 20.0291 11.8014C20.1022 11.7282 20.1433 11.629 20.1433 11.5256C20.1433 11.4222 20.1022 11.323 20.0291 11.2498C19.956 11.1767 19.8568 11.1356 19.7533 11.1356ZM14.7814 11.9156C14.8848 11.9156 14.984 11.8745 15.0571 11.8014C15.1303 11.7282 15.1714 11.629 15.1714 11.5256C15.1714 11.4222 15.1303 11.323 15.0571 11.2498C14.984 11.1767 14.8848 11.1356 14.7814 11.1356H3.9192C3.81576 11.1356 3.71656 11.1767 3.64342 11.2498C3.57029 11.323 3.5292 11.4222 3.5292 11.5256C3.5292 11.629 3.57029 11.7282 3.64342 11.8014C3.71656 11.8745 3.81576 11.9156 3.9192 11.9156H14.7814ZM19.7533 7.04997H18.5494C18.446 7.04997 18.3468 7.09106 18.2736 7.1642C18.2005 7.23734 18.1594 7.33654 18.1594 7.43997C18.1594 7.54341 18.2005 7.6426 18.2736 7.71574C18.3468 7.78888 18.446 7.82997 18.5494 7.82997H19.7533C19.8568 7.82997 19.956 7.78888 20.0291 7.71574C20.1022 7.6426 20.1433 7.54341 20.1433 7.43997C20.1433 7.33654 20.1022 7.23734 20.0291 7.1642C19.956 7.09106 19.8568 7.04997 19.7533 7.04997ZM3.91926 17.3778H2.71542C2.61198 17.3778 2.51278 17.4189 2.43964 17.492C2.36651 17.5651 2.32542 17.6643 2.32542 17.7678C2.32542 17.8712 2.36651 17.9704 2.43964 18.0435C2.51278 18.1167 2.61198 18.1578 2.71542 18.1578H3.91926C4.02269 18.1578 4.12189 18.1167 4.19503 18.0435C4.26817 17.9704 4.30926 17.8712 4.30926 17.7678C4.30926 17.6643 4.26817 17.5651 4.19503 17.492C4.12189 17.4189 4.02269 17.3778 3.91926 17.3778Z" fill="black"/>
</svg>
