<svg width="520" height="388" viewBox="0 0 520 388" fill="none" xmlns="http://www.w3.org/2000/svg">
<g clip-path="url(#clip0_7185_3035)">
<path d="M520 340.791H0V341.051H520V340.791Z" fill="#EBEBEB"/>
<path d="M328.297 347.873H301.818V348.133H328.297V347.873Z" fill="#EBEBEB"/>
<path d="M473.658 353.5H410.915V353.76H473.658V353.5Z" fill="#EBEBEB"/>
<path d="M296.182 347.998H231.358V348.258H296.182V347.998Z" fill="#EBEBEB"/>
<path d="M189.321 355.777H175.76V356.037H189.321V355.777Z" fill="#EBEBEB"/>
<path d="M264.254 355.777H202.499V356.037H264.254V355.777Z" fill="#EBEBEB"/>
<path d="M94.5466 351.388H54.5586V351.648H94.5466V351.388Z" fill="#EBEBEB"/>
<path d="M246.48 294.407H45.6663C44.0931 294.404 42.5853 293.777 41.4739 292.664C40.3625 291.55 39.7383 290.042 39.7383 288.468V6.1812C39.752 4.61707 40.3822 3.1215 41.4922 2.01935C42.6021 0.917196 44.1021 0.297479 45.6663 0.2948H246.48C248.055 0.2948 249.565 0.920451 250.679 2.03412C251.793 3.14778 252.418 4.65824 252.418 6.2332V288.468C252.418 290.043 251.793 291.554 250.679 292.667C249.565 293.781 248.055 294.407 246.48 294.407ZM45.6663 0.502801C44.1621 0.505556 42.7204 1.10503 41.6578 2.16964C40.5951 3.23424 39.9983 4.67699 39.9983 6.1812V288.468C39.9983 289.973 40.5951 291.415 41.6578 292.48C42.7204 293.545 44.1621 294.144 45.6663 294.147H246.48C247.985 294.144 249.428 293.545 250.492 292.481C251.556 291.416 252.156 289.974 252.158 288.468V6.1812C252.156 4.67604 251.556 3.23331 250.492 2.169C249.428 1.10469 247.985 0.50555 246.48 0.502801H45.6663Z" fill="#EBEBEB"/>
<path d="M471.443 294.407H270.619C269.044 294.404 267.536 293.777 266.423 292.664C265.309 291.551 264.683 290.043 264.68 288.468V6.1812C264.697 4.61612 265.329 3.12056 266.441 2.0187C267.552 0.916833 269.053 0.29745 270.619 0.2948H471.443C473.005 0.300212 474.502 0.921139 475.61 2.023C476.718 3.12485 477.346 4.61886 477.36 6.1812V288.468C477.36 290.04 476.737 291.547 475.628 292.66C474.519 293.773 473.014 294.401 471.443 294.407ZM270.619 0.502801C269.113 0.50555 267.671 1.10469 266.606 2.169C265.542 3.23331 264.943 4.67604 264.94 6.1812V288.468C264.943 289.974 265.542 291.416 266.606 292.481C267.671 293.545 269.113 294.144 270.619 294.147H471.443C472.948 294.144 474.39 293.545 475.455 292.481C476.519 291.416 477.118 289.974 477.121 288.468V6.1812C477.118 4.67604 476.519 3.23331 475.455 2.169C474.39 1.10469 472.948 0.50555 471.443 0.502801H270.619Z" fill="#EBEBEB"/>
<path d="M203.798 250.581H134.742L130.551 202.221H199.607L203.798 250.581Z" fill="#E6E6E6"/>
<path d="M207.376 250.581H138.32L134.129 202.221H203.185L207.376 250.581Z" fill="#F0F0F0"/>
<path d="M147.763 240.202L145.455 212.611H193.742L196.051 240.202H147.763Z" fill="white"/>
<path d="M219.326 250.581H211.224V340.78H219.326V250.581Z" fill="#E6E6E6"/>
<path d="M221.884 250.581H216.258V340.78H221.884V250.581Z" fill="#F0F0F0"/>
<path d="M143.457 260.534H221.884V250.581H143.457V260.534Z" fill="#F0F0F0"/>
<path d="M146.224 260.544H138.123V340.791H146.224V260.544Z" fill="#E6E6E6"/>
<path d="M148.782 260.544H143.156V340.791H148.782V260.544Z" fill="#F0F0F0"/>
<path d="M88.5562 260.544H80.4546V340.791H88.5562V260.544Z" fill="#E6E6E6"/>
<path d="M91.1142 260.544H85.4878V340.791H91.1142V260.544Z" fill="#F0F0F0"/>
<path d="M168.054 260.544H159.952V340.791H168.054V260.544Z" fill="#E6E6E6"/>
<path d="M170.601 260.544H164.975V340.791H170.601V260.544Z" fill="#F0F0F0"/>
<path d="M143.458 250.581H80.4546V260.534H143.458V250.581Z" fill="#E6E6E6"/>
<path d="M378.394 25.6812H134.69V161.36H378.394V25.6812Z" fill="#E0E0E0"/>
<path d="M391.778 25.6812H135.917V161.36H391.778V25.6812Z" fill="#F5F5F5"/>
<path d="M387.598 157.179V29.8621L140.098 29.8621V157.179H387.598Z" fill="white"/>
<path d="M240.313 157.179L287.04 29.8621H209.924L163.197 157.179H240.313Z" fill="#F5F5F5"/>
<path d="M314.537 157.179L361.265 29.8621H303.087L256.36 157.179H314.537Z" fill="#F5F5F5"/>
<path d="M455.634 211.207H434.917V340.791H455.634V211.207Z" fill="#E6E6E6"/>
<path d="M450.185 340.791H455.634V330.807H444.475L450.185 340.791Z" fill="#FAFAFA"/>
<path d="M264.628 211.207H243.911V340.791H264.628V211.207Z" fill="#E6E6E6"/>
<path d="M455.634 211.207H259.875V338.097H455.634V211.207Z" fill="#FAFAFA"/>
<path d="M451.932 252.152H263.588V216.313H451.932V252.152ZM264.628 251.112H450.892V217.353H264.628V251.112Z" fill="#E6E6E6"/>
<path d="M418.777 233.712H300.394C294.902 233.712 289.609 229.282 285.834 221.544L285.48 220.806H433.68L433.326 221.544C429.52 229.282 424.32 233.712 418.777 233.712ZM287.186 221.815C290.701 228.71 295.506 232.641 300.394 232.641H418.777C423.686 232.641 428.47 228.71 431.985 221.815H287.186Z" fill="#E6E6E6"/>
<path d="M265.325 340.791H259.875V330.807H271.034L265.325 340.791Z" fill="#FAFAFA"/>
<path d="M451.932 292.535H263.588V256.738H451.932V292.535ZM264.628 291.495H450.892V257.778H264.628V291.495Z" fill="#E6E6E6"/>
<path d="M418.777 274.137H300.394C294.902 274.137 289.609 269.696 285.834 261.969L285.48 261.22H433.68L433.326 261.969C429.52 269.655 424.32 274.137 418.777 274.137ZM287.186 262.26C290.701 269.156 295.506 273.097 300.394 273.097H418.777C423.686 273.097 428.47 269.156 431.985 262.26H287.186Z" fill="#E6E6E6"/>
<path d="M451.932 332.991H263.588V297.152H451.932V332.991ZM264.628 331.951H450.892V298.192H264.628V331.951Z" fill="#E6E6E6"/>
<path d="M418.777 314.552H300.394C294.902 314.552 289.609 310.121 285.834 302.394L285.48 301.645H433.68L433.326 302.394C429.52 310.121 424.32 314.552 418.777 314.552ZM287.186 302.685C290.701 309.58 295.506 313.512 300.394 313.512H418.777C423.686 313.512 428.47 309.58 431.985 302.685H287.186Z" fill="#E6E6E6"/>
<path d="M125.819 228.346V230.863H124.217L122.886 250.581H103.293L101.972 230.863H100.36V228.346H125.819Z" fill="#E6E6E6"/>
<path d="M119.371 179.393C117.77 167.641 101.91 164.292 81.7858 163.856C62.6394 163.45 56.5034 156.68 56.5034 156.68C56.5034 156.68 56.5658 184.104 84.157 194.047C110.355 203.469 120.983 191.166 119.371 179.393Z" fill="#E6E6E6"/>
<path d="M109.595 206.028C109.928 201.202 117.645 192.32 136.209 196.356C149.625 199.278 154.617 192.32 154.617 192.32C154.617 192.32 153.369 211.956 133.193 217.852C114.025 223.458 109.002 214.535 109.595 206.028Z" fill="#E6E6E6"/>
<path d="M113.828 235.751C113.933 235.752 114.036 235.73 114.131 235.687C114.227 235.644 114.311 235.58 114.379 235.501C115.721 233.91 114.619 230.104 113.1 224.831C111.145 218.071 108.711 209.647 110.771 203.542C111.912 200.317 113.246 197.164 114.764 194.099C117.676 187.942 120.193 182.659 118.092 177.064C118.059 176.975 118.009 176.893 117.945 176.823C117.88 176.754 117.803 176.698 117.716 176.659C117.63 176.619 117.537 176.597 117.442 176.594C117.347 176.591 117.253 176.607 117.164 176.641C117.075 176.674 116.994 176.725 116.925 176.791C116.856 176.856 116.801 176.934 116.763 177.021C116.724 177.107 116.703 177.201 116.701 177.296C116.699 177.391 116.716 177.485 116.751 177.573C118.633 182.555 116.355 187.38 113.464 193.496C111.926 196.61 110.572 199.812 109.408 203.084C107.214 209.616 109.71 218.279 111.717 225.226C112.903 229.386 114.13 233.546 113.287 234.586C113.22 234.658 113.169 234.743 113.137 234.835C113.105 234.928 113.092 235.027 113.1 235.124C113.108 235.222 113.136 235.317 113.182 235.404C113.229 235.49 113.293 235.566 113.371 235.626C113.503 235.721 113.666 235.765 113.828 235.751Z" fill="#E6E6E6"/>
<path d="M260 387.757C371.366 387.757 461.646 382.486 461.646 375.984C461.646 369.483 371.366 364.212 260 364.212C148.634 364.212 58.3545 369.483 58.3545 375.984C58.3545 382.486 148.634 387.757 260 387.757Z" fill="#F5F5F5"/>
<path d="M259.959 318.587H112.279L104.198 81.082H251.878L259.959 318.587Z" fill="#3395FF"/>
<path d="M267.332 311.213H119.652L111.561 73.7085H259.241L267.332 311.213Z" fill="#3395FF"/>
<path opacity="0.3" d="M267.332 311.213H119.652L111.561 73.7085H259.241L267.332 311.213Z" fill="white"/>
<path d="M217.852 171.431C233.664 155.346 232.991 129.044 216.349 112.684C199.707 96.3239 173.397 96.1012 157.585 112.186C141.773 128.271 142.445 154.573 159.087 170.933C175.73 187.293 202.039 187.516 217.852 171.431Z" fill="#3395FF"/>
<path d="M222.009 141.828C222.222 147.488 220.987 153.108 218.421 158.156C215.652 163.597 211.421 168.159 206.204 171.33C200.987 174.5 194.99 176.155 188.885 176.107C182.637 176.073 176.507 174.397 171.111 171.246C165.715 168.096 161.243 163.581 158.142 158.156C155.252 153.185 153.637 147.576 153.442 141.828C153.25 137.372 153.966 132.923 155.547 128.752C157.127 124.581 159.539 120.775 162.636 117.565C165.734 114.355 169.451 111.809 173.563 110.08C177.675 108.351 182.095 107.476 186.555 107.508C195.744 107.573 204.554 111.176 211.157 117.567C217.759 123.958 221.645 132.647 222.009 141.828Z" fill="white"/>
<path opacity="0.6" d="M218.4 158.156C215.631 163.597 211.4 168.159 206.183 171.33C200.966 174.5 194.969 176.155 188.864 176.107C182.616 176.073 176.486 174.397 171.09 171.246C165.694 168.096 161.222 163.581 158.122 158.156C166.917 152.16 177.325 148.972 187.97 149.015C198.786 149.038 209.361 152.215 218.4 158.156Z" fill="#3395FF"/>
<path opacity="0.6" d="M198.403 140.973C204.217 135.059 203.97 125.387 197.85 119.371C191.731 113.356 182.057 113.274 176.242 119.188C170.428 125.103 170.675 134.775 176.795 140.79C182.914 146.806 192.588 146.888 198.403 140.973Z" fill="#3395FF"/>
<path d="M237.661 225.205H143.458L142.823 206.485H237.026L237.661 225.205Z" fill="white"/>
<path d="M238.805 258.662H144.591L143.957 239.942H238.171L238.805 258.662Z" fill="white"/>
<path d="M202.447 242.521L179.744 245.641C179.527 245.666 179.318 245.735 179.129 245.845C178.941 245.954 178.777 246.101 178.648 246.277C178.519 246.453 178.428 246.653 178.38 246.866C178.332 247.079 178.329 247.299 178.371 247.513L181.356 262.728C181.453 263.175 181.714 263.569 182.088 263.832C182.461 264.096 182.92 264.211 183.373 264.153L206.076 261.033C206.293 261.006 206.501 260.935 206.688 260.823C206.876 260.712 207.038 260.564 207.166 260.388C207.294 260.211 207.384 260.01 207.431 259.798C207.478 259.585 207.48 259.365 207.439 259.151L204.464 243.936C204.367 243.49 204.105 243.097 203.731 242.835C203.358 242.573 202.899 242.461 202.447 242.521ZM195.926 257.934L191.766 258.485L191.36 253.576C190.932 253.391 190.554 253.105 190.259 252.743C189.964 252.381 189.76 251.954 189.665 251.496C189.589 251.142 189.588 250.776 189.662 250.421C189.736 250.067 189.883 249.731 190.095 249.437C190.307 249.143 190.578 248.897 190.891 248.714C191.204 248.531 191.551 248.416 191.912 248.376C192.65 248.281 193.398 248.467 194.006 248.896C194.615 249.326 195.04 249.968 195.198 250.696C195.288 251.135 195.261 251.591 195.118 252.016C194.976 252.442 194.723 252.822 194.387 253.119L195.926 257.934Z" fill="#3395FF"/>
<path d="M200.2 241.7C199.799 241.751 199.393 241.65 199.062 241.417C198.731 241.184 198.499 240.836 198.411 240.441L198.12 238.954C197.704 236.925 196.567 235.115 194.918 233.86C193.27 232.605 191.222 231.991 189.155 232.132C188.112 232.191 187.094 232.474 186.17 232.962C185.247 233.45 184.438 234.131 183.801 234.958C183.164 235.786 182.712 236.741 182.477 237.759C182.241 238.777 182.228 239.834 182.437 240.857L182.77 242.573C182.808 242.763 182.807 242.96 182.766 243.149C182.724 243.339 182.644 243.518 182.529 243.674C182.414 243.831 182.268 243.962 182.1 244.059C181.932 244.156 181.746 244.217 181.553 244.237C181.151 244.293 180.742 244.195 180.41 243.961C180.078 243.727 179.847 243.376 179.764 242.979L179.483 241.533C179.198 240.182 179.188 238.787 179.455 237.433C179.723 236.078 180.261 234.791 181.038 233.65C181.815 232.508 182.815 231.536 183.978 230.79C185.14 230.045 186.441 229.543 187.803 229.313C190.756 228.817 193.786 229.478 196.264 231.156C198.743 232.835 200.48 235.404 201.115 238.33L201.448 240.036C201.487 240.228 201.484 240.427 201.441 240.618C201.398 240.81 201.315 240.99 201.197 241.147C201.079 241.304 200.929 241.435 200.757 241.53C200.586 241.625 200.396 241.683 200.2 241.7Z" fill="#3395FF"/>
<path d="M223.257 284.88H161.928L161.522 272.692H222.841L223.257 284.88Z" fill="#3395FF"/>
<path d="M193.669 215.845C193.687 216.29 193.615 216.734 193.457 217.149C193.299 217.565 193.057 217.945 192.748 218.265C192.439 218.584 192.068 218.838 191.658 219.011C191.248 219.183 190.807 219.27 190.362 219.267C189.445 219.26 188.565 218.901 187.905 218.264C187.245 217.627 186.855 216.761 186.815 215.845C186.797 215.401 186.869 214.957 187.027 214.541C187.186 214.125 187.427 213.746 187.736 213.426C188.045 213.106 188.416 212.852 188.826 212.68C189.237 212.508 189.678 212.42 190.122 212.424C191.04 212.428 191.921 212.786 192.581 213.424C193.242 214.061 193.631 214.928 193.669 215.845Z" fill="#263238"/>
<path d="M178.88 215.845C178.9 216.29 178.829 216.735 178.671 217.151C178.513 217.568 178.272 217.948 177.963 218.268C177.653 218.588 177.282 218.842 176.871 219.014C176.46 219.185 176.018 219.272 175.573 219.267C174.657 219.26 173.779 218.9 173.121 218.263C172.462 217.626 172.074 216.761 172.037 215.845C172.019 215.401 172.091 214.957 172.249 214.541C172.407 214.125 172.648 213.746 172.958 213.426C173.267 213.106 173.638 212.852 174.048 212.68C174.458 212.508 174.899 212.42 175.344 212.424C176.261 212.428 177.14 212.787 177.799 213.424C178.458 214.062 178.845 214.929 178.88 215.845Z" fill="#263238"/>
<path d="M164.185 215.845C164.203 216.29 164.131 216.734 163.973 217.149C163.815 217.565 163.573 217.945 163.264 218.265C162.955 218.584 162.584 218.838 162.174 219.011C161.764 219.183 161.323 219.27 160.878 219.267C159.961 219.262 159.081 218.904 158.423 218.266C157.764 217.629 157.376 216.761 157.342 215.845C157.323 215.401 157.395 214.957 157.554 214.541C157.712 214.125 157.953 213.746 158.262 213.426C158.572 213.106 158.942 212.852 159.353 212.68C159.763 212.508 160.204 212.42 160.649 212.424C161.566 212.428 162.445 212.787 163.104 213.424C163.763 214.062 164.15 214.929 164.185 215.845Z" fill="#263238"/>
<path d="M208.406 215.845C208.424 216.29 208.352 216.734 208.194 217.149C208.035 217.565 207.794 217.945 207.485 218.265C207.176 218.585 206.805 218.838 206.395 219.011C205.984 219.183 205.544 219.27 205.099 219.267C204.182 219.262 203.302 218.904 202.643 218.266C201.985 217.629 201.597 216.761 201.563 215.845C201.547 215.402 201.622 214.96 201.782 214.547C201.942 214.133 202.185 213.756 202.495 213.439C202.805 213.122 203.177 212.872 203.587 212.702C203.997 212.533 204.437 212.449 204.88 212.455C205.79 212.462 206.662 212.817 207.318 213.448C207.974 214.079 208.363 214.936 208.406 215.845Z" fill="#263238"/>
<path d="M223.142 215.845C223.162 216.29 223.091 216.735 222.933 217.151C222.776 217.568 222.535 217.948 222.225 218.268C221.916 218.588 221.544 218.842 221.133 219.014C220.722 219.185 220.281 219.272 219.835 219.267C218.919 219.26 218.041 218.9 217.383 218.263C216.725 217.626 216.337 216.761 216.299 215.845C216.281 215.401 216.353 214.957 216.511 214.541C216.67 214.125 216.911 213.746 217.22 213.426C217.529 213.106 217.9 212.852 218.31 212.68C218.72 212.508 219.161 212.42 219.606 212.424C220.523 212.428 221.403 212.787 222.061 213.424C222.72 214.062 223.108 214.929 223.142 215.845Z" fill="#263238"/>
<path d="M347.266 124.346C348.649 126.572 349.804 128.693 350.989 130.908C352.175 133.124 353.246 135.349 354.297 137.627C356.44 142.239 358.213 147.013 359.601 151.906C359.788 152.52 359.923 153.175 360.079 153.809L360.308 154.776L360.422 155.255L360.557 156.045C360.792 157.838 360.683 159.659 360.235 161.412C359.517 164.132 358.425 166.739 356.99 169.16C354.424 173.558 351.322 177.62 347.755 181.255L343.377 177.948C345.574 173.907 347.53 169.74 349.232 165.468C349.99 163.585 350.524 161.62 350.823 159.612C350.919 158.999 350.89 158.373 350.74 157.772L350.324 156.503C350.157 155.983 350.001 155.463 349.804 154.932C348.222 150.642 346.392 146.447 344.323 142.369C342.243 138.209 340.007 134.049 337.771 130.076L347.266 124.346Z" fill="#FF8B7B"/>
<path d="M344.49 176.502L339.706 179.029L345.197 185.456C345.197 185.456 348.629 183.137 348.785 179.601L344.49 176.502Z" fill="#FF8B7B"/>
<path d="M333.289 182.992L339.165 187.661L345.197 185.456L339.705 179.029L333.289 182.992Z" fill="#FF8B7B"/>
<path d="M313.196 90.3172C313.081 90.8996 312.676 91.3052 312.301 91.2324C311.927 91.1596 311.709 90.6188 311.823 90.0468C311.937 89.4748 312.343 89.0068 312.728 89.1316C313.113 89.2564 313.31 89.7348 313.196 90.3172Z" fill="#263238"/>
<path d="M312.728 91.3157C311.681 92.9447 310.414 94.4215 308.963 95.7045C309.306 96.0595 309.721 96.3363 310.181 96.5158C310.64 96.6953 311.133 96.7733 311.626 96.7445L312.728 91.3157Z" fill="#FF5652"/>
<path d="M310.856 111.72V104.898L319.883 105.938C319.883 105.938 319.738 111.804 314.683 113.53L310.856 111.72Z" fill="#FF8B7B"/>
<path d="M313.456 99.9893L319.81 101.82L319.925 105.99L310.897 104.898L313.456 99.9893Z" fill="#FF8B7B"/>
<path opacity="0.2" d="M319.81 101.82L313.456 99.9893L312.218 102.36C312.286 104.229 312.87 106.042 313.905 107.599C314.94 109.156 316.387 110.395 318.084 111.18C319.176 109.655 319.814 107.852 319.925 105.98L319.81 101.82Z" fill="black"/>
<path d="M315.963 87.5403C316.029 87.5385 316.094 87.5179 316.149 87.4809C316.205 87.4439 316.249 87.3919 316.276 87.331C316.303 87.2701 316.313 87.2028 316.303 87.1368C316.294 87.0707 316.266 87.0088 316.223 86.9579C315.857 86.5454 315.398 86.2263 314.885 86.0273C314.371 85.8282 313.817 85.7551 313.269 85.8139C313.179 85.8292 313.099 85.8794 313.047 85.9535C312.994 86.0276 312.973 86.1195 312.988 86.2091C313.004 86.2994 313.053 86.3802 313.127 86.4345C313.201 86.4888 313.293 86.5124 313.383 86.5003C313.817 86.4577 314.255 86.5195 314.66 86.6805C315.066 86.8415 315.427 87.0971 315.713 87.4259C315.745 87.4607 315.783 87.4887 315.826 87.5084C315.869 87.528 315.915 87.5389 315.963 87.5403Z" fill="#263238"/>
<path d="M329.253 100.842C328.213 106.198 327.569 113.613 331.333 117.18C331.333 117.18 329.877 122.609 319.893 122.609C308.963 122.609 314.641 117.846 314.641 117.846C319.186 116.432 319.145 111.263 318.105 107.103L329.253 100.842Z" fill="#FF8B7B"/>
<path d="M333.361 120.758C334.339 119.385 334.297 115.028 333.257 114.258C331.583 113.02 324.397 112.729 314.725 114.955C315.765 119.177 313.539 121.382 313.539 121.382L333.361 120.758Z" fill="#3395FF"/>
<path d="M365.872 367.664C365.575 367.769 365.26 367.813 364.946 367.796C364.632 367.778 364.325 367.698 364.041 367.56C363.934 367.461 363.861 367.33 363.831 367.186C363.801 367.043 363.816 366.894 363.875 366.76C363.908 366.647 363.965 366.543 364.042 366.455C364.119 366.367 364.215 366.297 364.322 366.25C365.31 365.772 367.577 366.697 367.681 366.739C367.712 366.751 367.739 366.773 367.757 366.801C367.776 366.829 367.786 366.861 367.785 366.895C367.785 366.928 367.776 366.961 367.76 366.99C367.744 367.019 367.72 367.044 367.692 367.061C367.105 367.319 366.496 367.521 365.872 367.664ZM364.676 366.489C364.607 366.505 364.541 366.53 364.478 366.562C364.413 366.586 364.355 366.624 364.308 366.675C364.261 366.726 364.227 366.787 364.208 366.853C364.114 367.165 364.208 367.269 364.27 367.3C364.665 367.633 366.121 367.3 367.151 366.916C366.368 366.591 365.522 366.446 364.676 366.489Z" fill="#3395FF"/>
<path d="M367.65 367.072H367.567C366.735 366.832 364.967 365.574 364.946 364.752C364.946 364.622 364.989 364.495 365.071 364.393C365.152 364.29 365.266 364.219 365.393 364.191C365.517 364.145 365.649 364.126 365.78 364.137C365.911 364.148 366.039 364.187 366.153 364.253C367.13 364.752 367.754 366.77 367.775 366.864C367.79 366.889 367.797 366.917 367.797 366.947C367.797 366.976 367.79 367.005 367.775 367.03C367.759 367.046 367.739 367.058 367.718 367.066C367.696 367.073 367.673 367.075 367.65 367.072ZM365.57 364.482H365.487C365.279 364.555 365.279 364.659 365.279 364.711C365.279 365.2 366.465 366.188 367.359 366.583C367.141 366 366.662 364.846 366.028 364.503C365.887 364.439 365.727 364.431 365.581 364.482H365.57Z" fill="#3395FF"/>
<path d="M311.854 368.892C310.918 368.892 310.014 368.756 309.712 368.34C309.633 368.23 309.591 368.097 309.591 367.961C309.591 367.825 309.633 367.692 309.712 367.581C309.771 367.48 309.851 367.391 309.946 367.321C310.04 367.252 310.148 367.202 310.263 367.176C311.48 366.843 314.038 368.299 314.142 368.361C314.174 368.377 314.2 368.403 314.215 368.435C314.23 368.467 314.234 368.503 314.226 368.538C314.222 368.574 314.206 368.607 314.182 368.633C314.158 368.659 314.126 368.677 314.09 368.684C313.353 368.819 312.604 368.889 311.854 368.892ZM310.7 367.467C310.59 367.449 310.477 367.449 310.367 367.467C310.297 367.481 310.23 367.51 310.171 367.551C310.112 367.592 310.062 367.645 310.024 367.706C309.899 367.924 309.951 368.028 310.024 368.091C310.367 368.569 312.208 368.58 313.57 368.382C312.681 367.896 311.707 367.585 310.7 367.467Z" fill="#3395FF"/>
<path d="M314.08 368.684H314.007C313.123 368.288 311.376 366.708 311.511 365.876C311.511 365.678 311.678 365.439 312.156 365.397C312.327 365.377 312.5 365.393 312.665 365.443C312.83 365.493 312.982 365.576 313.113 365.688C313.779 366.485 314.179 367.471 314.257 368.507C314.257 368.536 314.25 368.566 314.237 368.593C314.225 368.62 314.207 368.643 314.184 368.663C314.152 368.679 314.116 368.686 314.08 368.684ZM312.291 365.72H312.187C311.875 365.72 311.855 365.865 311.855 365.907C311.771 366.406 312.957 367.654 313.862 368.195C313.782 367.36 313.444 366.571 312.895 365.938C312.724 365.792 312.505 365.715 312.281 365.72H312.291Z" fill="#3395FF"/>
<path d="M322.109 368.507H314.798L314.07 351.565H321.381L322.109 368.507Z" fill="#FF8B7B"/>
<path d="M375.804 365.127L368.659 366.677L361.473 350.889L368.628 349.35L375.804 365.127Z" fill="#FF8B7B"/>
<path d="M367.962 365.959L376.001 364.222C376.142 364.192 376.288 364.211 376.417 364.275C376.545 364.339 376.648 364.445 376.709 364.576L379.496 370.628C379.57 370.775 379.608 370.937 379.608 371.101C379.607 371.266 379.568 371.427 379.493 371.574C379.418 371.72 379.309 371.846 379.176 371.942C379.043 372.038 378.889 372.101 378.726 372.126C375.918 372.677 374.514 372.812 370.989 373.572C368.815 374.05 363.906 375.246 360.901 375.891C357.895 376.536 356.865 373.655 358.041 373.124C363.293 370.722 365.477 368.611 366.901 366.645C367.159 366.294 367.537 366.05 367.962 365.959Z" fill="#263238"/>
<path d="M314.849 367.664H322.837C322.982 367.665 323.122 367.715 323.235 367.806C323.348 367.896 323.428 368.022 323.461 368.164L324.906 374.664C324.949 374.821 324.954 374.985 324.921 375.145C324.888 375.304 324.818 375.454 324.717 375.581C324.616 375.709 324.486 375.81 324.338 375.879C324.19 375.947 324.029 375.98 323.866 375.974C320.985 375.922 316.825 375.756 313.206 375.756C308.963 375.756 305.313 375.984 300.341 375.984C297.336 375.984 296.504 372.948 297.762 372.667C303.482 371.419 308.162 371.284 313.102 368.236C313.621 367.889 314.226 367.691 314.849 367.664Z" fill="#263238"/>
<path d="M344.417 118.855C351.27 120.425 356.897 137.928 356.897 137.928L343.2 148.401C339.645 144.6 337.136 139.942 335.92 134.881C333.497 125.708 337.407 117.232 344.417 118.855Z" fill="#3395FF"/>
<path opacity="0.4" d="M344.417 118.855C351.27 120.425 356.897 137.928 356.897 137.928L343.2 148.401C339.645 144.6 337.136 139.942 335.92 134.881C333.497 125.708 337.407 117.232 344.417 118.855Z" fill="black"/>
<path d="M308.36 139.728C306.654 141.568 304.949 143.212 303.16 144.928C302.276 145.76 301.382 146.592 300.466 147.392L299.083 148.609L298.74 148.911L298.147 149.389C297.537 149.877 296.861 150.276 296.14 150.575C295.337 150.916 294.474 151.092 293.602 151.095C292.857 151.098 292.118 150.968 291.418 150.71C290.643 150.415 289.935 149.965 289.338 149.389C288.577 148.645 288.018 147.717 287.716 146.696C287.558 146.192 287.457 145.672 287.414 145.146C287.36 144.53 287.36 143.911 287.414 143.295C287.466 142.796 287.529 142.359 287.612 141.953C287.897 140.535 288.3 139.144 288.818 137.793C289.286 136.51 289.824 135.253 290.43 134.028C291.096 132.708 291.73 131.74 292.365 130.638C294.941 126.417 297.882 122.429 301.153 118.72C304.391 115.032 307.959 111.649 311.813 108.611L315.64 112.552C312.957 116.151 310.315 120.009 307.871 123.805C305.439 127.58 303.217 131.486 301.215 135.505C300.768 136.483 300.175 137.585 299.894 138.376C299.522 139.294 299.2 140.231 298.927 141.184C298.665 142.041 298.467 142.917 298.334 143.804C298.327 143.943 298.327 144.082 298.334 144.22C298.334 144.304 298.334 144.345 298.334 144.127C298.317 143.893 298.272 143.663 298.199 143.44C297.974 142.703 297.562 142.037 297.003 141.506C296.506 141.049 295.922 140.696 295.287 140.466C294.729 140.255 294.137 140.145 293.54 140.144C292.966 140.137 292.396 140.246 291.866 140.466C291.686 140.539 291.512 140.626 291.346 140.726L291.741 140.362L292.999 139.218L295.485 136.888C297.128 135.339 298.782 133.685 300.342 132.146L308.36 139.728Z" fill="#FF8B7B"/>
<path opacity="0.2" d="M338.541 131.709C342.264 135.391 343.481 142.109 343.741 147.933L343.138 148.401C339.582 144.6 337.074 139.942 335.858 134.881C335.722 134.34 335.598 133.841 335.504 133.248L338.541 131.709Z" fill="black"/>
<path d="M301.091 126.135C299.593 134.039 298.657 150.273 302.994 182.409H342.16C342.431 176.408 338.655 147.101 344.448 118.803C340.12 117.972 335.743 117.419 331.344 117.149C325.802 116.831 320.246 116.831 314.704 117.149C312.874 117.316 311.064 117.586 309.504 117.867C307.429 118.231 305.514 119.216 304.012 120.693C302.509 122.169 301.491 124.067 301.091 126.135Z" fill="#3395FF"/>
<path opacity="0.4" d="M301.091 126.135C299.593 134.039 298.657 150.273 302.994 182.409H342.16C342.431 176.408 338.655 147.101 344.448 118.803C340.12 117.972 335.743 117.419 331.344 117.149C325.802 116.831 320.246 116.831 314.704 117.149C312.874 117.316 311.064 117.586 309.504 117.867C307.429 118.231 305.514 119.216 304.012 120.693C302.509 122.169 301.491 124.067 301.091 126.135Z" fill="black"/>
<path opacity="0.2" d="M307.081 137.856L300.009 136.16C299.79 140.445 299.769 145.749 300.081 152.312C303.337 148.609 307.497 142.827 307.081 137.856Z" fill="black"/>
<path opacity="0.2" d="M314.07 351.576L314.444 360.301H321.766L321.391 351.576H314.07Z" fill="black"/>
<path opacity="0.2" d="M368.628 349.35L361.473 350.9L365.175 359.032L372.33 357.483L368.628 349.35Z" fill="black"/>
<path d="M332.727 93.0212C330.855 100.031 330.106 104.232 325.78 107.144C319.28 111.575 311.168 106.5 310.96 99.0948C310.731 92.4076 313.841 82.0596 321.36 80.6452C323.012 80.3351 324.716 80.4509 326.312 80.9816C327.907 81.5123 329.341 82.4405 330.478 83.6787C331.615 84.9169 332.419 86.4243 332.812 88.0588C333.206 89.6933 333.176 91.4011 332.727 93.0212Z" fill="#FF8B7B"/>
<path d="M316.316 93.2813C315.962 92.3453 314.35 85.0965 315.869 83.2141C317.387 81.3317 334.703 82.6941 337.262 85.2109C341.515 89.3709 338.562 93.1149 333.913 97.9301C330.418 101.549 330.283 105.626 328.515 106.25C325.395 107.29 320.632 106.313 319.675 103.016C318.718 99.7189 316.316 93.2813 316.316 93.2813Z" fill="#263238"/>
<path d="M335.161 76.9636C329.046 74.3636 317.575 77.2444 311.376 75.7468C311.297 78.0516 312.055 80.3071 313.51 82.0965C314.965 83.8859 317.018 85.0882 319.291 85.4812C324.432 86.4611 329.656 86.9452 334.891 86.9268C341.692 86.6148 340.361 79.1788 335.161 76.9636Z" fill="#263238"/>
<path d="M336.118 85.4293C338.352 85.6491 340.601 85.2193 342.597 84.1917C343.741 86.9581 337.449 87.7173 336.118 85.4293Z" fill="#263238"/>
<path d="M319.644 93.5724C319.504 95.376 318.773 97.083 317.564 98.4292C315.962 100.187 314.298 99.0844 314.018 96.9524C313.768 95.018 314.288 91.7524 316.243 90.8164C318.198 89.8804 319.779 91.3988 319.644 93.5724Z" fill="#FF8B7B"/>
<path d="M316.877 182.44C316.877 182.44 325.197 238.34 329.742 259.286C334.724 282.218 361.493 358.086 361.493 358.086L374.587 355.247C374.587 355.247 355.867 293.408 351.707 261.345C348.483 236.718 342.149 182.42 342.149 182.42L316.877 182.44Z" fill="#73748E"/>
<path d="M358.353 353.728C358.301 353.728 360.797 358.471 360.797 358.471L375.523 355.278L374.286 350.848L358.353 353.728Z" fill="#263238"/>
<path opacity="0.3" d="M322.129 202.356C331.729 204.239 330.71 240.036 329.555 258.454C326.789 245.433 322.733 220.39 319.966 202.616C320.637 202.285 321.4 202.194 322.129 202.356Z" fill="black"/>
<path d="M302.993 182.441C302.993 182.441 301.954 237.134 302.786 259.401C303.618 282.603 311.719 358.575 311.719 358.575H324.116C324.116 358.575 324.563 283.955 325.156 261.169C325.759 236.333 328.754 182.399 328.754 182.399L302.993 182.441Z" fill="#73748E"/>
<path d="M309.338 353.687C309.275 353.687 310.034 358.824 310.034 358.824H325.104L325.52 354.238L309.338 353.687Z" fill="#263238"/>
<path d="M316.42 128.569C319.925 138.022 299.323 149.161 299.323 149.161L290.399 137.721C290.399 137.721 296.4 125.844 303.68 120.498C312.676 113.905 313.747 121.372 316.42 128.569Z" fill="#3395FF"/>
<path opacity="0.4" d="M316.42 128.569C319.925 138.022 299.323 149.161 299.323 149.161L290.399 137.721C290.399 137.721 296.4 125.844 303.68 120.498C312.676 113.905 313.747 121.372 316.42 128.569Z" fill="black"/>
<path d="M397.144 56.798C417.874 56.798 434.678 46.0887 434.678 32.878C434.678 19.6674 417.874 8.95801 397.144 8.95801C376.415 8.95801 359.611 19.6674 359.611 32.878C359.611 46.0887 376.415 56.798 397.144 56.798Z" fill="#3395FF"/>
<path d="M383.604 44.9212C381.131 44.9132 378.741 44.0341 376.852 42.4383C374.963 40.8425 373.697 38.6321 373.277 36.1956C372.863 33.5563 373.458 30.8581 374.944 28.6379C376.43 26.4178 378.697 24.8386 381.295 24.2148C383.427 23.7236 385.659 23.9129 387.677 24.7561C389.696 25.5993 391.399 27.054 392.548 28.9156L416.645 23.9444C417.571 23.7415 418.539 23.8955 419.357 24.3756C420.174 24.8557 420.78 25.6264 421.054 26.534C421.18 27.0111 421.208 27.5089 421.135 27.997C421.062 28.4852 420.891 28.9533 420.631 29.3728C420.371 29.7924 420.028 30.1545 419.623 30.4371C419.219 30.7197 418.761 30.9168 418.277 31.0164L417.653 31.1412C417.561 31.1578 417.473 31.1955 417.397 31.2514C417.322 31.3073 417.26 31.3799 417.217 31.4636C417.178 31.5485 417.158 31.6407 417.158 31.734C417.158 31.8272 417.178 31.9194 417.217 32.0044L417.643 33.1068C417.786 33.4641 417.8 33.8601 417.682 34.2264C417.564 34.5928 417.323 34.9067 416.998 35.114C416.743 35.2719 416.526 35.4861 416.366 35.7402C416.206 35.9943 416.105 36.2816 416.073 36.5804C416.042 36.9232 415.904 37.2476 415.678 37.5072C415.452 37.7668 415.15 37.9484 414.814 38.026L414.325 38.13C413.987 38.1926 413.637 38.1457 413.326 37.9961C413.016 37.8465 412.761 37.602 412.599 37.298C412.383 36.9352 412.06 36.6489 411.673 36.4789C411.287 36.3088 410.857 36.2636 410.444 36.3495C410.031 36.4353 409.654 36.648 409.368 36.9578C409.081 37.2677 408.898 37.6593 408.845 38.078C408.816 38.4186 408.679 38.7412 408.455 38.9992C408.231 39.2572 407.93 39.4372 407.597 39.5132L407.108 39.6172C406.769 39.6781 406.42 39.6305 406.11 39.4811C405.8 39.3317 405.545 39.0881 405.381 38.7852C405.226 38.5272 405.016 38.3062 404.766 38.1374C404.517 37.9686 404.233 37.8561 403.936 37.8076C403.536 37.7594 403.167 37.567 402.899 37.2663C402.631 36.9657 402.482 36.5776 402.48 36.1748V34.9892C402.476 34.8964 402.451 34.8057 402.409 34.7231C402.366 34.6406 402.307 34.5682 402.233 34.5109C402.16 34.4537 402.076 34.4129 401.986 34.3913C401.895 34.3697 401.801 34.3679 401.71 34.386L394.025 35.9668C393.711 38.096 392.749 40.077 391.27 41.6401C389.791 43.2032 387.865 44.2726 385.757 44.7028C385.048 44.8476 384.327 44.9208 383.604 44.9212ZM381.524 25.1612C379.165 25.7122 377.103 27.1364 375.752 29.1472C374.401 31.158 373.862 33.6059 374.244 35.998C374.653 38.2234 375.845 40.229 377.604 41.652C379.363 43.0749 381.574 43.8212 383.836 43.7559C386.098 43.6905 388.261 42.8179 389.936 41.2957C391.61 39.7736 392.684 37.7025 392.964 35.4572V35.0828L401.44 33.3668C401.683 33.3079 401.936 33.304 402.181 33.3552C402.426 33.4065 402.656 33.5116 402.855 33.6629C403.055 33.8143 403.218 34.0081 403.333 34.2303C403.447 34.4525 403.511 34.6975 403.52 34.9476V36.1332C403.522 36.2743 403.573 36.4104 403.664 36.5183C403.755 36.6263 403.88 36.6997 404.019 36.726C404.474 36.7911 404.908 36.9588 405.288 37.2165C405.668 37.4742 405.985 37.815 406.213 38.2132C406.269 38.3254 406.357 38.4177 406.467 38.4773C406.577 38.537 406.703 38.5609 406.827 38.546L407.305 38.442C407.427 38.4108 407.535 38.3413 407.613 38.2439C407.692 38.1465 407.737 38.0263 407.742 37.9012C407.808 37.2537 408.078 36.6439 408.512 36.1599C408.947 35.6758 409.525 35.3425 410.162 35.2082C410.798 35.0739 411.461 35.1456 412.055 35.4128C412.648 35.68 413.141 36.129 413.462 36.6948C413.516 36.8062 413.602 36.8981 413.711 36.9578C413.819 37.0174 413.943 37.0418 414.065 37.0276L414.565 36.9236C414.684 36.8905 414.79 36.8202 414.866 36.7229C414.943 36.6257 414.987 36.5065 414.991 36.3828C415.043 35.9261 415.198 35.4873 415.445 35.0998C415.692 34.7123 416.024 34.3863 416.416 34.1468C416.53 34.0641 416.614 33.9455 416.654 33.8099C416.693 33.6742 416.686 33.5293 416.634 33.398L416.208 32.2956C416.12 32.0683 416.082 31.8245 416.098 31.5813C416.114 31.338 416.183 31.1011 416.299 30.8872C416.416 30.6733 416.579 30.4874 416.775 30.3427C416.971 30.1979 417.196 30.0978 417.435 30.0492L418.069 29.914C418.413 29.8408 418.738 29.699 419.025 29.4973C419.312 29.2956 419.556 29.038 419.742 28.7399C419.927 28.4418 420.05 28.1094 420.104 27.7626C420.158 27.4157 420.142 27.0615 420.056 26.7212C419.853 26.0667 419.41 25.5132 418.816 25.1717C418.222 24.8303 417.52 24.7262 416.853 24.8804L392.08 30.0284L391.893 29.706C390.897 27.9341 389.352 26.5343 387.491 25.7181C385.63 24.902 383.554 24.7138 381.576 25.182L381.524 25.1612ZM383.604 41.0524C382.312 41.0667 381.044 40.7054 379.953 40.0124C378.664 39.1657 377.708 37.8979 377.248 36.4252C376.789 34.9525 376.854 33.366 377.434 31.9362C378.013 30.5064 379.07 29.3217 380.425 28.5843C381.78 27.8468 383.349 27.6021 384.864 27.8919C386.38 28.1817 387.748 28.9881 388.735 30.1736C389.722 31.3591 390.268 32.8503 390.278 34.393C390.289 35.9357 389.764 37.4344 388.794 38.6336C387.823 39.8327 386.467 40.6582 384.956 40.9692C384.513 41.0493 384.064 41.0841 383.614 41.0732L383.604 41.0524ZM383.604 28.77C383.216 28.7722 382.83 28.8105 382.449 28.8844C381.725 29.0387 381.038 29.3342 380.428 29.7541C379.817 30.1739 379.296 30.7099 378.892 31.3313C378.489 31.9527 378.212 32.6475 378.078 33.376C377.943 34.1044 377.953 34.8522 378.107 35.5768C378.262 36.3013 378.557 36.9883 378.977 37.5986C379.397 38.209 379.933 38.7306 380.554 39.1338C381.176 39.537 381.871 39.8138 382.599 39.9485C383.328 40.0832 384.075 40.0731 384.8 39.9188C385.888 39.6923 386.884 39.149 387.663 38.3572C388.442 37.5654 388.97 36.5606 389.179 35.4694C389.388 34.3783 389.269 33.2497 388.838 32.2259C388.407 31.2021 387.682 30.3289 386.755 29.7164C385.834 29.104 384.751 28.7816 383.645 28.7908L383.604 28.77Z" fill="white"/>
<path opacity="0.6" d="M366.6 70.8276C373.412 70.8276 378.934 67.3075 378.934 62.9652C378.934 58.6229 373.412 55.1028 366.6 55.1028C359.787 55.1028 354.265 58.6229 354.265 62.9652C354.265 67.3075 359.787 70.8276 366.6 70.8276Z" fill="#3395FF"/>
<path opacity="0.3" d="M346.975 74.0413C349.772 74.0413 352.04 72.5978 352.04 70.8173C352.04 69.0367 349.772 67.5933 346.975 67.5933C344.178 67.5933 341.91 69.0367 341.91 70.8173C341.91 72.5978 344.178 74.0413 346.975 74.0413Z" fill="#3395FF"/>
</g>
<defs>
<clipPath id="clip0_7185_3035">
<rect width="520" height="387.514" fill="white" transform="translate(0 0.242798)"/>
</clipPath>
</defs>
</svg>
