<svg width="24" height="18" viewBox="0 0 24 18" fill="none" xmlns="http://www.w3.org/2000/svg">
<path d="M23.4703 8.46563C22.1719 7.26094 17.5125 3.32812 12 3.32812C6.4875 3.32812 1.82812 7.26094 0.529688 8.47031C0.370313 8.62031 0.28125 8.82656 0.28125 9.04219C0.28125 9.25781 0.370313 9.46875 0.529688 9.61406C1.82812 10.8188 6.4875 14.7516 12 14.7516C17.5125 14.7516 22.1719 10.8187 23.4703 9.60938C23.6297 9.45937 23.7188 9.25312 23.7188 9.0375C23.7188 8.82187 23.6297 8.61563 23.4703 8.46563ZM23.1516 9.27187C21.8859 10.4484 17.3438 14.2875 12 14.2875C6.65625 14.2875 2.11406 10.4484 0.848438 9.27187C0.782813 9.21094 0.745312 9.12656 0.745312 9.0375C0.745312 8.94844 0.782813 8.86406 0.848438 8.80313C2.11406 7.62656 6.66094 3.7875 12 3.7875C17.3438 3.7875 21.8859 7.62656 23.1516 8.80313C23.2172 8.86406 23.2547 8.94844 23.2547 9.0375C23.2547 9.12656 23.2172 9.21094 23.1516 9.27187Z" fill="#333333"/>
<path d="M12 4.85156C9.68901 4.85156 7.80933 6.73125 7.80933 9.04219C7.80933 11.3531 9.68901 13.2328 12 13.2328C14.3109 13.2328 16.1906 11.3531 16.1906 9.04219C16.1906 6.73125 14.3109 4.85156 12 4.85156ZM12 12.7641C9.94683 12.7641 8.27339 11.0953 8.27339 9.0375C8.27339 6.98437 9.94214 5.31094 12 5.31094C14.0531 5.31094 15.7265 6.97969 15.7265 9.0375C15.7265 11.0953 14.0531 12.7641 12 12.7641Z" fill="#333333"/>
<path d="M12 10.2283C12.655 10.2283 13.186 9.69736 13.186 9.04238C13.186 8.38741 12.655 7.85645 12 7.85645C11.345 7.85645 10.8141 8.38741 10.8141 9.04238C10.8141 9.69736 11.345 10.2283 12 10.2283Z" fill="#333333"/>
<path d="M17.2078 14.8875L18.4828 16.0312L18.7922 15.6891L17.5172 14.5453L17.2078 14.8875ZM6.79216 3.1125L5.51716 1.96875L5.20778 2.31094L6.48278 3.45469L6.79216 3.1125ZM14.2875 15.5766L14.9812 17.3156L15.4125 17.1469L14.7187 15.4078L14.2875 15.5766ZM8.9246 0.661406L9.79417 2.40052L9.37933 2.60794L8.50975 0.868875L8.9246 0.661406ZM11.564 17.7562L12.0281 17.7656L12.0656 16.0266L11.6062 16.0172L11.564 17.7562ZM12.4359 0.24375L11.9718 0.234375L11.9343 1.97344L12.3984 1.98281L12.4359 0.24375ZM8.21247 16.9969L8.63903 17.1844L9.40778 15.4453L8.98122 15.2578L8.21247 16.9969ZM15.4123 0.800156L15.8271 1.00758L14.9576 2.74664L14.5428 2.53922L15.4123 0.800156ZM5.19349 15.7497L4.89185 15.397L6.22778 14.2544L6.52942 14.6071L5.19349 15.7497ZM18.9101 2.24362L19.1886 2.61487L17.6623 3.75956L17.3839 3.38831L18.9101 2.24362Z" fill="#333333"/>
</svg>
