<svg width="48" height="48" viewBox="0 0 48 48" fill="none" xmlns="http://www.w3.org/2000/svg">
<g filter="url(#filter0_d_543_16343)">
<rect x="4" y="2" width="40" height="40" rx="10" fill="url(#paint0_linear_543_16343)" shape-rendering="crispEdges"/>
<g filter="url(#filter1_d_543_16343)">
<g clip-path="url(#clip0_543_16343)">
<path d="M35.25 29.7505H24.75C24.6121 29.7505 24.5 29.6384 24.5 29.5005V29.4979V29.495V29.4918V29.4883V29.4845V29.4803V29.4759V29.4711V29.4661V29.4607V29.4551V29.4491V29.4428V29.4363V29.4294V29.4222V29.4148V29.407V29.399V29.3907V29.382V29.3731V29.3639V29.3544V29.3447V29.3346V29.3243V29.3137V29.3028V29.2916V29.2801V29.2684V29.2564V29.2441V29.2315V29.2187V29.2056V29.1922V29.1786V29.1647V29.1505V29.1361V29.1214V29.1064V29.0912V29.0757V29.06V29.044V29.0277V29.0112V28.9945V28.9775V28.9602V28.9427V28.9249V28.9069V28.8887V28.8702V28.8514V28.8324V28.8132V28.7938V28.774V28.7541V28.7339V28.7135V28.6929V28.672V28.6509V28.6295V28.608V28.5862V28.5641V28.5419V28.5194V28.4967V28.4738V28.4507V28.4273V28.4038V28.38V28.356V28.3317V28.3073V28.2827V28.2578V28.2328V28.2075V28.182V28.1563V28.1304V28.1043V28.0781V28.0516V28.0249V27.998V27.9709V27.9436V27.9161V27.8885V27.8606V27.8326V27.8043V27.7759V27.7473V27.7185V27.6895V27.6603V27.631V27.6014V27.5717V27.5418V27.5118V27.4815V27.4511V27.4205V27.3897V27.3588V27.3277V27.2964V27.265V27.2334V27.2016V27.1697V27.1376V27.1053V27.0729V27.0403V27.0076V26.9747V26.9417V26.9085V26.8751V26.8416V26.808V26.7742V26.7402V26.7061V26.6719V26.6375V26.603V26.5683V26.5335V26.4985V26.4634V26.4282V26.3929V26.3574V26.3217V26.286V26.2501V26.2141V26.1779V26.1417V26.1053V26.0688V26.0321V25.9953V25.9585V25.9215V25.8843V25.8471V25.8097V25.7723V25.7347V25.697V25.6592V25.6213V25.5832V25.5451V25.5069V25.4685V25.4301V25.3915V25.3529V25.3141V25.2753V25.2364V25.1973V25.1582V25.119V25.0796V25.0402V25.0007V24.9611V24.9215V24.8817V24.8419V24.8019V24.7619V24.7218V24.6817V24.6414V24.6011V24.5607V24.5202V24.4796V24.439V24.3983V24.3575V24.3167V24.2758V24.2348V24.1938V24.1527V24.1115V24.0703V24.029V23.9877V23.9463V23.9048V23.8633V23.8217V23.7801V23.7384V23.6967V23.6549V23.6131V23.5712V23.5293V23.4874V23.4454V23.4033V23.3612V23.3191V23.277V23.2348V23.1925V23.1503V23.108V23.0656V23.0233V22.9809V22.9384V22.896V22.8535V22.811V22.7685V22.726V22.6834V22.6408V22.5982V22.5556V22.513V22.4703V22.4276V22.385V22.3423V22.2996V22.2569V22.2142V22.1714V22.1287V22.086V22.0433V22.0005V21.9578V21.9151V21.8723V21.8296V21.7869V21.7442V21.7015V21.6588V21.6161V21.5734V21.5307V21.4881V21.4454V21.4028V21.3602V21.3176V21.2751V21.2325V21.19V21.1475V21.105V21.0626V21.0202V20.9778V20.9354V20.8931V20.8508V20.8085V20.7663V20.7241V20.6819V20.6398V20.5977V20.5557V20.5137V20.4717V20.4298V20.3879V20.3461V20.3043V20.2626V20.2209V20.1793V20.1378V20.0962V20.0548V20.0134V19.972V19.9307V19.8895V19.8484V19.8073V19.7662V19.7252V19.6843V19.6435V19.6027V19.562V19.5214V19.4809V19.4404V19.4V19.3596V19.3194V19.2792V19.2391V19.1991V19.1592V19.1193V19.0796V19.0399V19.0003V18.9608V18.9214V18.8821V18.8428V18.8037V18.7647V18.7257V18.6869V18.6481V18.6095V18.571V18.5325V18.4942V18.4559V18.4178V18.3798V18.3419V18.3041V18.2664V18.2288V18.1913V18.1539V18.1167V18.0796V18.0426V18.0057V17.9689V17.9323V17.8958V17.8594V17.8231V17.787V17.7509V17.7151V17.6793V17.6437V17.6082V17.5728V17.5376V17.5025V17.4676V17.4328V17.3981V17.3636V17.3292V17.2949V17.2608V17.2269V17.1931V17.1594V17.1259V17.0926V17.0594V17.0263V16.9934V16.9607V16.9281V16.8957V16.8635V16.8314V16.7994V16.7677V16.736V16.7046V16.6733V16.6422V16.6113V16.5805V16.5499V16.5195V16.4893V16.4592V16.4293V16.3996V16.3701V16.3407V16.3116V16.2826V16.2538V16.2251V16.1967V16.1685V16.1404V16.1126V16.0849V16.0574V16.0301V16.0031V15.9762V15.9495V15.923V15.8967V15.8706V15.8447V15.819V15.7936V15.7683V15.7432V15.7184V15.6937V15.6693V15.6451V15.6211V15.5973V15.5737V15.5504V15.5272V15.5043V15.4816V15.4591V15.4369V15.4149V15.3931V15.3715V15.3502V15.329V15.3082V15.2875V15.2671V15.2469V15.227V15.2073V15.1878V15.1686V15.1496V15.1309V15.1124V15.0941V15.0761V15.0583V15.0408V15.0236V15.0066V14.9898V14.9733V14.957V14.941V14.9253V14.9098V14.8946V14.8796V14.865V14.8505V14.8363V14.8224V14.8088V14.7954V14.7823V14.7695V14.7569V14.7447V14.7327V14.7209V14.7095V14.6983V14.6874V14.6768V14.6664V14.6564V14.6466V14.6371V14.6279V14.619V14.6104V14.602V14.594V14.5863V14.5788V14.5716V14.5648V14.5582V14.5519V14.546V14.5403V14.535V14.5299V14.5251V14.5207V14.5166V14.5127V14.5092V14.506V14.5031V14.5005C24.5 14.3627 24.6121 14.2505 24.75 14.2505H35.25C35.3879 14.2505 35.5 14.3627 35.5 14.5005V29.5005C35.5 29.6384 35.3879 29.7505 35.25 29.7505Z" fill="#ECEFF1"/>
<path d="M35.25 29.7505H24.75C24.6121 29.7505 24.5 29.6384 24.5 29.5005V29.4979V29.495V29.4918V29.4883V29.4845V29.4803V29.4759V29.4711V29.4661V29.4607V29.4551V29.4491V29.4428V29.4363V29.4294V29.4222V29.4148V29.407V29.399V29.3907V29.382V29.3731V29.3639V29.3544V29.3447V29.3346V29.3243V29.3137V29.3028V29.2916V29.2801V29.2684V29.2564V29.2441V29.2315V29.2187V29.2056V29.1922V29.1786V29.1647V29.1505V29.1361V29.1214V29.1064V29.0912V29.0757V29.06V29.044V29.0277V29.0112V28.9945V28.9775V28.9602V28.9427V28.9249V28.9069V28.8887V28.8702V28.8514V28.8324V28.8132V28.7938V28.774V28.7541V28.7339V28.7135V28.6929V28.672V28.6509V28.6295V28.608V28.5862V28.5641V28.5419V28.5194V28.4967V28.4738V28.4507V28.4273V28.4038V28.38V28.356V28.3317V28.3073V28.2827V28.2578V28.2328V28.2075V28.182V28.1563V28.1304V28.1043V28.0781V28.0516V28.0249V27.998V27.9709V27.9436V27.9161V27.8885V27.8606V27.8326V27.8043V27.7759V27.7473V27.7185V27.6895V27.6603V27.631V27.6014V27.5717V27.5418V27.5118V27.4815V27.4511V27.4205V27.3897V27.3588V27.3277V27.2964V27.265V27.2334V27.2016V27.1697V27.1376V27.1053V27.0729V27.0403V27.0076V26.9747V26.9417V26.9085V26.8751V26.8416V26.808V26.7742V26.7402V26.7061V26.6719V26.6375V26.603V26.5683V26.5335V26.4985V26.4634V26.4282V26.3929V26.3574V26.3217V26.286V26.2501V26.2141V26.1779V26.1417V26.1053V26.0688V26.0321V25.9953V25.9585V25.9215V25.8843V25.8471V25.8097V25.7723V25.7347V25.697V25.6592V25.6213V25.5832V25.5451V25.5069V25.4685V25.4301V25.3915V25.3529V25.3141V25.2753V25.2364V25.1973V25.1582V25.119V25.0796V25.0402V25.0007V24.9611V24.9215V24.8817V24.8419V24.8019V24.7619V24.7218V24.6817V24.6414V24.6011V24.5607V24.5202V24.4796V24.439V24.3983V24.3575V24.3167V24.2758V24.2348V24.1938V24.1527V24.1115V24.0703V24.029V23.9877V23.9463V23.9048V23.8633V23.8217V23.7801V23.7384V23.6967V23.6549V23.6131V23.5712V23.5293V23.4874V23.4454V23.4033V23.3612V23.3191V23.277V23.2348V23.1925V23.1503V23.108V23.0656V23.0233V22.9809V22.9384V22.896V22.8535V22.811V22.7685V22.726V22.6834V22.6408V22.5982V22.5556V22.513V22.4703V22.4276V22.385V22.3423V22.2996V22.2569V22.2142V22.1714V22.1287V22.086V22.0433V22.0005V21.9578V21.9151V21.8723V21.8296V21.7869V21.7442V21.7015V21.6588V21.6161V21.5734V21.5307V21.4881V21.4454V21.4028V21.3602V21.3176V21.2751V21.2325V21.19V21.1475V21.105V21.0626V21.0202V20.9778V20.9354V20.8931V20.8508V20.8085V20.7663V20.7241V20.6819V20.6398V20.5977V20.5557V20.5137V20.4717V20.4298V20.3879V20.3461V20.3043V20.2626V20.2209V20.1793V20.1378V20.0962V20.0548V20.0134V19.972V19.9307V19.8895V19.8484V19.8073V19.7662V19.7252V19.6843V19.6435V19.6027V19.562V19.5214V19.4809V19.4404V19.4V19.3596V19.3194V19.2792V19.2391V19.1991V19.1592V19.1193V19.0796V19.0399V19.0003V18.9608V18.9214V18.8821V18.8428V18.8037V18.7647V18.7257V18.6869V18.6481V18.6095V18.571V18.5325V18.4942V18.4559V18.4178V18.3798V18.3419V18.3041V18.2664V18.2288V18.1913V18.1539V18.1167V18.0796V18.0426V18.0057V17.9689V17.9323V17.8958V17.8594V17.8231V17.787V17.7509V17.7151V17.6793V17.6437V17.6082V17.5728V17.5376V17.5025V17.4676V17.4328V17.3981V17.3636V17.3292V17.2949V17.2608V17.2269V17.1931V17.1594V17.1259V17.0926V17.0594V17.0263V16.9934V16.9607V16.9281V16.8957V16.8635V16.8314V16.7994V16.7677V16.736V16.7046V16.6733V16.6422V16.6113V16.5805V16.5499V16.5195V16.4893V16.4592V16.4293V16.3996V16.3701V16.3407V16.3116V16.2826V16.2538V16.2251V16.1967V16.1685V16.1404V16.1126V16.0849V16.0574V16.0301V16.0031V15.9762V15.9495V15.923V15.8967V15.8706V15.8447V15.819V15.7936V15.7683V15.7432V15.7184V15.6937V15.6693V15.6451V15.6211V15.5973V15.5737V15.5504V15.5272V15.5043V15.4816V15.4591V15.4369V15.4149V15.3931V15.3715V15.3502V15.329V15.3082V15.2875V15.2671V15.2469V15.227V15.2073V15.1878V15.1686V15.1496V15.1309V15.1124V15.0941V15.0761V15.0583V15.0408V15.0236V15.0066V14.9898V14.9733V14.957V14.941V14.9253V14.9098V14.8946V14.8796V14.865V14.8505V14.8363V14.8224V14.8088V14.7954V14.7823V14.7695V14.7569V14.7447V14.7327V14.7209V14.7095V14.6983V14.6874V14.6768V14.6664V14.6564V14.6466V14.6371V14.6279V14.619V14.6104V14.602V14.594V14.5863V14.5788V14.5716V14.5648V14.5582V14.5519V14.546V14.5403V14.535V14.5299V14.5251V14.5207V14.5166V14.5127V14.5092V14.506V14.5031V14.5005C24.5 14.3627 24.6121 14.2505 24.75 14.2505H35.25C35.3879 14.2505 35.5 14.3627 35.5 14.5005V29.5005C35.5 29.6384 35.3879 29.7505 35.25 29.7505Z" stroke="#3A99D9"/>
<path d="M35.25 29.7505H24.75C24.6121 29.7505 24.5 29.6384 24.5 29.5005V29.4979V29.495V29.4918V29.4883V29.4845V29.4803V29.4759V29.4711V29.4661V29.4607V29.4551V29.4491V29.4428V29.4363V29.4294V29.4222V29.4148V29.407V29.399V29.3907V29.382V29.3731V29.3639V29.3544V29.3447V29.3346V29.3243V29.3137V29.3028V29.2916V29.2801V29.2684V29.2564V29.2441V29.2315V29.2187V29.2056V29.1922V29.1786V29.1647V29.1505V29.1361V29.1214V29.1064V29.0912V29.0757V29.06V29.044V29.0277V29.0112V28.9945V28.9775V28.9602V28.9427V28.9249V28.9069V28.8887V28.8702V28.8514V28.8324V28.8132V28.7938V28.774V28.7541V28.7339V28.7135V28.6929V28.672V28.6509V28.6295V28.608V28.5862V28.5641V28.5419V28.5194V28.4967V28.4738V28.4507V28.4273V28.4038V28.38V28.356V28.3317V28.3073V28.2827V28.2578V28.2328V28.2075V28.182V28.1563V28.1304V28.1043V28.0781V28.0516V28.0249V27.998V27.9709V27.9436V27.9161V27.8885V27.8606V27.8326V27.8043V27.7759V27.7473V27.7185V27.6895V27.6603V27.631V27.6014V27.5717V27.5418V27.5118V27.4815V27.4511V27.4205V27.3897V27.3588V27.3277V27.2964V27.265V27.2334V27.2016V27.1697V27.1376V27.1053V27.0729V27.0403V27.0076V26.9747V26.9417V26.9085V26.8751V26.8416V26.808V26.7742V26.7402V26.7061V26.6719V26.6375V26.603V26.5683V26.5335V26.4985V26.4634V26.4282V26.3929V26.3574V26.3217V26.286V26.2501V26.2141V26.1779V26.1417V26.1053V26.0688V26.0321V25.9953V25.9585V25.9215V25.8843V25.8471V25.8097V25.7723V25.7347V25.697V25.6592V25.6213V25.5832V25.5451V25.5069V25.4685V25.4301V25.3915V25.3529V25.3141V25.2753V25.2364V25.1973V25.1582V25.119V25.0796V25.0402V25.0007V24.9611V24.9215V24.8817V24.8419V24.8019V24.7619V24.7218V24.6817V24.6414V24.6011V24.5607V24.5202V24.4796V24.439V24.3983V24.3575V24.3167V24.2758V24.2348V24.1938V24.1527V24.1115V24.0703V24.029V23.9877V23.9463V23.9048V23.8633V23.8217V23.7801V23.7384V23.6967V23.6549V23.6131V23.5712V23.5293V23.4874V23.4454V23.4033V23.3612V23.3191V23.277V23.2348V23.1925V23.1503V23.108V23.0656V23.0233V22.9809V22.9384V22.896V22.8535V22.811V22.7685V22.726V22.6834V22.6408V22.5982V22.5556V22.513V22.4703V22.4276V22.385V22.3423V22.2996V22.2569V22.2142V22.1714V22.1287V22.086V22.0433V22.0005V21.9578V21.9151V21.8723V21.8296V21.7869V21.7442V21.7015V21.6588V21.6161V21.5734V21.5307V21.4881V21.4454V21.4028V21.3602V21.3176V21.2751V21.2325V21.19V21.1475V21.105V21.0626V21.0202V20.9778V20.9354V20.8931V20.8508V20.8085V20.7663V20.7241V20.6819V20.6398V20.5977V20.5557V20.5137V20.4717V20.4298V20.3879V20.3461V20.3043V20.2626V20.2209V20.1793V20.1378V20.0962V20.0548V20.0134V19.972V19.9307V19.8895V19.8484V19.8073V19.7662V19.7252V19.6843V19.6435V19.6027V19.562V19.5214V19.4809V19.4404V19.4V19.3596V19.3194V19.2792V19.2391V19.1991V19.1592V19.1193V19.0796V19.0399V19.0003V18.9608V18.9214V18.8821V18.8428V18.8037V18.7647V18.7257V18.6869V18.6481V18.6095V18.571V18.5325V18.4942V18.4559V18.4178V18.3798V18.3419V18.3041V18.2664V18.2288V18.1913V18.1539V18.1167V18.0796V18.0426V18.0057V17.9689V17.9323V17.8958V17.8594V17.8231V17.787V17.7509V17.7151V17.6793V17.6437V17.6082V17.5728V17.5376V17.5025V17.4676V17.4328V17.3981V17.3636V17.3292V17.2949V17.2608V17.2269V17.1931V17.1594V17.1259V17.0926V17.0594V17.0263V16.9934V16.9607V16.9281V16.8957V16.8635V16.8314V16.7994V16.7677V16.736V16.7046V16.6733V16.6422V16.6113V16.5805V16.5499V16.5195V16.4893V16.4592V16.4293V16.3996V16.3701V16.3407V16.3116V16.2826V16.2538V16.2251V16.1967V16.1685V16.1404V16.1126V16.0849V16.0574V16.0301V16.0031V15.9762V15.9495V15.923V15.8967V15.8706V15.8447V15.819V15.7936V15.7683V15.7432V15.7184V15.6937V15.6693V15.6451V15.6211V15.5973V15.5737V15.5504V15.5272V15.5043V15.4816V15.4591V15.4369V15.4149V15.3931V15.3715V15.3502V15.329V15.3082V15.2875V15.2671V15.2469V15.227V15.2073V15.1878V15.1686V15.1496V15.1309V15.1124V15.0941V15.0761V15.0583V15.0408V15.0236V15.0066V14.9898V14.9733V14.957V14.941V14.9253V14.9098V14.8946V14.8796V14.865V14.8505V14.8363V14.8224V14.8088V14.7954V14.7823V14.7695V14.7569V14.7447V14.7327V14.7209V14.7095V14.6983V14.6874V14.6768V14.6664V14.6564V14.6466V14.6371V14.6279V14.619V14.6104V14.602V14.594V14.5863V14.5788V14.5716V14.5648V14.5582V14.5519V14.546V14.5403V14.535V14.5299V14.5251V14.5207V14.5166V14.5127V14.5092V14.506V14.5031V14.5005C24.5 14.3627 24.6121 14.2505 24.75 14.2505H35.25C35.3879 14.2505 35.5 14.3627 35.5 14.5005V29.5005C35.5 29.6384 35.3879 29.7505 35.25 29.7505Z" stroke="black" stroke-opacity="0.2"/>
<path d="M27.75 18.2505H24.75C24.336 18.2505 24 17.9145 24 17.5005C24 17.0865 24.336 16.7505 24.75 16.7505H27.75C28.164 16.7505 28.5 17.0865 28.5 17.5005C28.5 17.9145 28.164 18.2505 27.75 18.2505Z" fill="#388E3C"/>
<path d="M27.75 21.2505H24.75C24.336 21.2505 24 20.9145 24 20.5005C24 20.0865 24.336 19.7505 24.75 19.7505H27.75C28.164 19.7505 28.5 20.0865 28.5 20.5005C28.5 20.9145 28.164 21.2505 27.75 21.2505Z" fill="#388E3C"/>
<path d="M27.75 24.2505H24.75C24.336 24.2505 24 23.9145 24 23.5005C24 23.0865 24.336 22.7505 24.75 22.7505H27.75C28.164 22.7505 28.5 23.0865 28.5 23.5005C28.5 23.9145 28.164 24.2505 27.75 24.2505Z" fill="#388E3C"/>
<path d="M27.75 27.2505H24.75C24.336 27.2505 24 26.9145 24 26.5005C24 26.0865 24.336 25.7505 24.75 25.7505H27.75C28.164 25.7505 28.5 26.0865 28.5 26.5005C28.5 26.9145 28.164 27.2505 27.75 27.2505Z" fill="#388E3C"/>
<path d="M32.25 18.2505H30.75C30.336 18.2505 30 17.9145 30 17.5005C30 17.0865 30.336 16.7505 30.75 16.7505H32.25C32.664 16.7505 33 17.0865 33 17.5005C33 17.9145 32.664 18.2505 32.25 18.2505Z" fill="#388E3C"/>
<path d="M32.25 21.2505H30.75C30.336 21.2505 30 20.9145 30 20.5005C30 20.0865 30.336 19.7505 30.75 19.7505H32.25C32.664 19.7505 33 20.0865 33 20.5005C33 20.9145 32.664 21.2505 32.25 21.2505Z" fill="#388E3C"/>
<path d="M32.25 24.2505H30.75C30.336 24.2505 30 23.9145 30 23.5005C30 23.0865 30.336 22.7505 30.75 22.7505H32.25C32.664 22.7505 33 23.0865 33 23.5005C33 23.9145 32.664 24.2505 32.25 24.2505Z" fill="#388E3C"/>
<path d="M32.25 27.2505H30.75C30.336 27.2505 30 26.9145 30 26.5005C30 26.0865 30.336 25.7505 30.75 25.7505H32.25C32.664 25.7505 33 26.0865 33 26.5005C33 26.9145 32.664 27.2505 32.25 27.2505Z" fill="#388E3C"/>
<path d="M24.9084 11.3071L24.9101 11.3085C24.9669 11.3555 25 11.4253 25 11.5005V32.5005C25 32.5748 24.9665 32.6459 24.9101 32.6925L24.9084 32.6939C24.8648 32.7302 24.8091 32.7505 24.75 32.7505C24.7355 32.7505 24.7218 32.7491 24.71 32.7467L24.7101 32.7467L24.7041 32.7456L12.7041 30.4956L12.7033 30.4954C12.5856 30.4736 12.5 30.3706 12.5 30.2505V13.7505C12.5 13.6296 12.585 13.5276 12.7033 13.5056L12.7041 13.5055L24.7041 11.2555L24.7042 11.2556L24.714 11.2535C24.7732 11.2412 24.8487 11.2574 24.9084 11.3071Z" fill="#2E7D32"/>
<path d="M24.9084 11.3071L24.9101 11.3085C24.9669 11.3555 25 11.4253 25 11.5005V32.5005C25 32.5748 24.9665 32.6459 24.9101 32.6925L24.9084 32.6939C24.8648 32.7302 24.8091 32.7505 24.75 32.7505C24.7355 32.7505 24.7218 32.7491 24.71 32.7467L24.7101 32.7467L24.7041 32.7456L12.7041 30.4956L12.7033 30.4954C12.5856 30.4736 12.5 30.3706 12.5 30.2505V13.7505C12.5 13.6296 12.585 13.5276 12.7033 13.5056L12.7041 13.5055L24.7041 11.2555L24.7042 11.2556L24.714 11.2535C24.7732 11.2412 24.8487 11.2574 24.9084 11.3071Z" stroke="#3A99D9"/>
<path d="M24.9084 11.3071L24.9101 11.3085C24.9669 11.3555 25 11.4253 25 11.5005V32.5005C25 32.5748 24.9665 32.6459 24.9101 32.6925L24.9084 32.6939C24.8648 32.7302 24.8091 32.7505 24.75 32.7505C24.7355 32.7505 24.7218 32.7491 24.71 32.7467L24.7101 32.7467L24.7041 32.7456L12.7041 30.4956L12.7033 30.4954C12.5856 30.4736 12.5 30.3706 12.5 30.2505V13.7505C12.5 13.6296 12.585 13.5276 12.7033 13.5056L12.7041 13.5055L24.7041 11.2555L24.7042 11.2556L24.714 11.2535C24.7732 11.2412 24.8487 11.2574 24.9084 11.3071Z" stroke="black" stroke-opacity="0.2"/>
<path d="M22.2433 25.5645L21.9143 25.188C21.8654 25.2307 21.8077 25.2505 21.7498 25.2505C21.6809 25.2505 21.6135 25.2224 21.5633 25.1647L21.5633 25.1647L21.562 25.1632L19.381 22.6717L18.9819 22.2158L18.6101 22.6941L16.698 25.1536C16.6979 25.1537 16.6979 25.1537 16.6978 25.1538C16.6479 25.2177 16.5755 25.2505 16.4998 25.2505C16.4455 25.2505 16.3911 25.2336 16.3447 25.1983C16.2358 25.1117 16.2179 24.9548 16.3016 24.8475L16.3019 24.847L18.3929 22.159L18.6463 21.8334L18.3746 21.5228L16.3121 19.1648L16.3121 19.1648L16.3113 19.1639C16.2216 19.0619 16.2309 18.9044 16.3355 18.8128L16.3356 18.8128L16.3373 18.8112C16.4389 18.7215 16.595 18.7302 16.6868 18.8355L16.6868 18.8355L16.6875 18.8363L18.5595 20.9753L18.9585 21.4312L19.3305 20.953L21.5507 18.0986C21.6397 17.9867 21.7973 17.9712 21.9019 18.0531C22.0122 18.1395 22.0306 18.2972 21.9465 18.4051L21.9461 18.4056L19.5476 21.4896L19.2943 21.8152L19.566 22.1258L21.9375 24.8363L21.9383 24.8372C22.0279 24.9391 22.0187 25.0967 21.914 25.1882L22.2433 25.5645ZM22.2433 25.5645C22.5553 25.2915 22.5868 24.8175 22.3138 24.507L21.1858 25.4925C21.3343 25.6635 21.5413 25.7505 21.7498 25.7505C21.9253 25.7505 22.1008 25.689 22.2433 25.5645Z" fill="#FAFAFA"/>
<path d="M22.2433 25.5645L21.9143 25.188C21.8654 25.2307 21.8077 25.2505 21.7498 25.2505C21.6809 25.2505 21.6135 25.2224 21.5633 25.1647L21.5633 25.1647L21.562 25.1632L19.381 22.6717L18.9819 22.2158L18.6101 22.6941L16.698 25.1536C16.6979 25.1537 16.6979 25.1537 16.6978 25.1538C16.6479 25.2177 16.5755 25.2505 16.4998 25.2505C16.4455 25.2505 16.3911 25.2336 16.3447 25.1983C16.2358 25.1117 16.2179 24.9548 16.3016 24.8475L16.3019 24.847L18.3929 22.159L18.6463 21.8334L18.3746 21.5228L16.3121 19.1648L16.3121 19.1648L16.3113 19.1639C16.2216 19.0619 16.2309 18.9044 16.3355 18.8128L16.3356 18.8128L16.3373 18.8112C16.4389 18.7215 16.595 18.7302 16.6868 18.8355L16.6868 18.8355L16.6875 18.8363L18.5595 20.9753L18.9585 21.4312L19.3305 20.953L21.5507 18.0986C21.6397 17.9867 21.7973 17.9712 21.9019 18.0531C22.0122 18.1395 22.0306 18.2972 21.9465 18.4051L21.9461 18.4056L19.5476 21.4896L19.2943 21.8152L19.566 22.1258L21.9375 24.8363L21.9383 24.8372C22.0279 24.9391 22.0187 25.0967 21.914 25.1882L22.2433 25.5645ZM22.2433 25.5645C22.5553 25.2915 22.5868 24.8175 22.3138 24.507L21.1858 25.4925C21.3343 25.6635 21.5413 25.7505 21.7498 25.7505C21.9253 25.7505 22.1008 25.689 22.2433 25.5645Z" stroke="#3A99D9"/>
<path d="M22.2433 25.5645L21.9143 25.188C21.8654 25.2307 21.8077 25.2505 21.7498 25.2505C21.6809 25.2505 21.6135 25.2224 21.5633 25.1647L21.5633 25.1647L21.562 25.1632L19.381 22.6717L18.9819 22.2158L18.6101 22.6941L16.698 25.1536C16.6979 25.1537 16.6979 25.1537 16.6978 25.1538C16.6479 25.2177 16.5755 25.2505 16.4998 25.2505C16.4455 25.2505 16.3911 25.2336 16.3447 25.1983C16.2358 25.1117 16.2179 24.9548 16.3016 24.8475L16.3019 24.847L18.3929 22.159L18.6463 21.8334L18.3746 21.5228L16.3121 19.1648L16.3121 19.1648L16.3113 19.1639C16.2216 19.0619 16.2309 18.9044 16.3355 18.8128L16.3356 18.8128L16.3373 18.8112C16.4389 18.7215 16.595 18.7302 16.6868 18.8355L16.6868 18.8355L16.6875 18.8363L18.5595 20.9753L18.9585 21.4312L19.3305 20.953L21.5507 18.0986C21.6397 17.9867 21.7973 17.9712 21.9019 18.0531C22.0122 18.1395 22.0306 18.2972 21.9465 18.4051L21.9461 18.4056L19.5476 21.4896L19.2943 21.8152L19.566 22.1258L21.9375 24.8363L21.9383 24.8372C22.0279 24.9391 22.0187 25.0967 21.914 25.1882L22.2433 25.5645ZM22.2433 25.5645C22.5553 25.2915 22.5868 24.8175 22.3138 24.507L21.1858 25.4925C21.3343 25.6635 21.5413 25.7505 21.7498 25.7505C21.9253 25.7505 22.1008 25.689 22.2433 25.5645Z" stroke="black" stroke-opacity="0.2"/>
</g>
</g>
</g>
<defs>
<filter id="filter0_d_543_16343" x="0" y="0" width="48" height="48" filterUnits="userSpaceOnUse" color-interpolation-filters="sRGB">
<feFlood flood-opacity="0" result="BackgroundImageFix"/>
<feColorMatrix in="SourceAlpha" type="matrix" values="0 0 0 0 0 0 0 0 0 0 0 0 0 0 0 0 0 0 127 0" result="hardAlpha"/>
<feOffset dy="2"/>
<feGaussianBlur stdDeviation="2"/>
<feComposite in2="hardAlpha" operator="out"/>
<feColorMatrix type="matrix" values="0 0 0 0 0 0 0 0 0 0 0 0 0 0 0 0 0 0 0.1 0"/>
<feBlend mode="normal" in2="BackgroundImageFix" result="effect1_dropShadow_543_16343"/>
<feBlend mode="normal" in="SourceGraphic" in2="effect1_dropShadow_543_16343" result="shape"/>
</filter>
<filter id="filter1_d_543_16343" x="8" y="8" width="32" height="32" filterUnits="userSpaceOnUse" color-interpolation-filters="sRGB">
<feFlood flood-opacity="0" result="BackgroundImageFix"/>
<feColorMatrix in="SourceAlpha" type="matrix" values="0 0 0 0 0 0 0 0 0 0 0 0 0 0 0 0 0 0 127 0" result="hardAlpha"/>
<feOffset dy="2"/>
<feGaussianBlur stdDeviation="2"/>
<feComposite in2="hardAlpha" operator="out"/>
<feColorMatrix type="matrix" values="0 0 0 0 0 0 0 0 0 0 0 0 0 0 0 0 0 0 0.1 0"/>
<feBlend mode="normal" in2="BackgroundImageFix" result="effect1_dropShadow_543_16343"/>
<feBlend mode="normal" in="SourceGraphic" in2="effect1_dropShadow_543_16343" result="shape"/>
</filter>
<linearGradient id="paint0_linear_543_16343" x1="15.8194" y1="2" x2="37.7169" y2="35.2883" gradientUnits="userSpaceOnUse">
<stop stop-color="#E1E3EB"/>
<stop offset="0.065" stop-color="#DDE0EA"/>
<stop offset="1" stop-color="#CEE9FF"/>
</linearGradient>
<clipPath id="clip0_543_16343">
<rect width="24" height="24" fill="white" transform="translate(12 10)"/>
</clipPath>
</defs>
</svg>
